<mxfile host="65bd71144e">
    <diagram id="6mUAuuO2ZA_yn5baKIqj" name="Page-1">
        <mxGraphModel dx="4150" dy="1877" grid="1" gridSize="10" guides="1" tooltips="1" connect="1" arrows="1" fold="1" page="1" pageScale="1" pageWidth="850" pageHeight="1100" math="0" shadow="0">
            <root>
                <mxCell id="0"/>
                <mxCell id="1" parent="0"/>
                <mxCell id="5" style="edgeStyle=none;html=1;entryX=0;entryY=0.5;entryDx=0;entryDy=0;shape=flexArrow;fillColor=#FFFFFF;" edge="1" parent="1" source="2" target="3">
                    <mxGeometry relative="1" as="geometry"/>
                </mxCell>
                <mxCell id="6" value="Text" style="edgeLabel;html=1;align=center;verticalAlign=middle;resizable=0;points=[];" vertex="1" connectable="0" parent="5">
                    <mxGeometry x="0.2094" y="8" relative="1" as="geometry">
                        <mxPoint x="-1" as="offset"/>
                    </mxGeometry>
                </mxCell>
                <mxCell id="7" value="&lt;h1&gt;&lt;br&gt;&lt;/h1&gt;" style="edgeLabel;html=1;align=center;verticalAlign=middle;resizable=0;points=[];" vertex="1" connectable="0" parent="5">
                    <mxGeometry x="-0.5606" y="5" relative="1" as="geometry">
                        <mxPoint x="-1" as="offset"/>
                    </mxGeometry>
                </mxCell>
                <mxCell id="2" value="" style="shape=image;verticalLabelPosition=bottom;labelBackgroundColor=default;verticalAlign=top;aspect=fixed;imageAspect=0;image=data:image/png,iVBORw0KGgoAAAANSUhEUgAABdwAAAywCAYAAADSm8aWAAAACXBIWXMAACxLAAAsSwGlPZapAAAAAXNSR0IArs4c6QAAAARnQU1BAACxjwv8YQUAAO+ASURBVHgB7N3L0hz1eT/wlv6SkQBJSBi7krgKw8ZZ2GXAGydVjm2ySRYpEBeAgQtAwAX4wAUgkwsAm012Eriy8MZgvIk3AVP2xhthV4VU2Y44WBzMSfr7O67Gr0bdc3xm3pnpz6dq6j3Noae7p+ed7+/p53fgtddeu9LAnA4cONAcPHiw+X//7/+NLvk+v8v3Mf61/T7XgXX5+OOPm/fff7/54IMPmg8//LD56KOPGgAAANYvmcCRI0eaQ4cONZ/61KdGX2Fdrly5MsoI2u8vX748+j5f27/la3KD9u/t72BeBwTu9MmbYd4Ac2nD9cOHDwvO2VptAP/OO+8I3wEAAFYswfp1113X3HDDDXIEtlIbwieATyHf3q9yBfoI3Bm96bWjy7kkVM9Xb4bssrxBJnh/7733GgAAAOokY7jxxhtHYTvssvZs+nxtL6riEbgPTEL0BOp7L07jYsjyZvjGG298cmoZAAAAixG0w1/Ork9r2wTxbYtbIfywCNx3XAL2tkda3vASsAPXunTpUvP22283AAAAzO/48eOj1jHAtRK6t3PMJYhX9LfblDbvmLaCPeF6G7QD0x07dmz0unnzzTe98QEAAMwoOcTJkydVtcMEbZeJVhvA56ICfveocN8B7UzfeXPL6Vt6r8PiErZfvHhR6A4AADBF8oibb7559BVYXIL3zDGXCnh5xPYTuG+pBOu5JGjXJgZqCd0BAAAmE7bDarTV7wng036G7SNw3yJtyH706FGtYmDF8gaX0N1pXQAAAFfLmfW33HKLsB1WLIWACd6F79tF4L7h8iaWSUdUssP65Q0tPd0BAAD4qxMnTjTXX399A6xPwvd33nmn+dOf/uSM/A2nTHoDJWRPwJ5KdpOOwP7JazD90959990GAACAv3xOErbD+uWMkuPHj48ubcuZXNg8AvcNknYxCdhT0W7iU9gMx44dG72BaS0DAAAMXQK/fEYC9lfyw1zyekz4/vbbb6t63yAC9w2QoP3GG29UzQ4b6ODBg6PX56VLlxoAAIAhy2cjfdthc+T1mDNOclH1vjkE7vuk7c2eNyvV7LDZ8jpNWxmjxQAAwFC1wR6wmfZWvadoMC1y5Rj7Q+C+ZoJ22E75x1KVOwAAMFTJMYDNl8Gxm266afR9ige1m1k/gfuapG2MiUVge+W1mzcpvdwBAIAh0gYXtk/bbkbwvl4C9xXTnx12Q3q55+LNCQAAGJpUzOrdDttL8L5eAvcVOXz48KhnkqAdAAAAANhvgvf1ELgXy4hvKtq1jgEAAAAANo3gfbUE7kVMhgoAAAAAbAvB+2oI3AskZBe0AwAAAADbJqF72mIndE/4znIE7kvIhKg33XSTiUMAAAAAgK2VfPPEiROjouJLly417733XsNiBO4LaHdAE6ICAAAAALsiuWcKjFNorM3MYgTuc9CnHQAAAADYdW1/91S7J3hndgL3GWkfAwAAAAAMybFjx0bB+1tvvdW8//77DdMJ3KdIJXt2rFS2AwAAAAAMSQqQT506NZpQVZuZ6QTuE6RH+8mTJ7WPAQAAAAAGLZXuyUtNqjqZwL1DAvbjx4+PdiIAAAAAAEyqOguB+xi92gEAAAAA+rXV7nq7X+tgw0hb1X7zzTcL2wEAAAAAJmh7u994440Nf6XCvfnLzpFe7YcPH24AAAAAAJjNsWPHRhXvFy9e1GKmUeHe3HDDDc0tt9wibAcAAAAAWEAKmj/96U+bE7MZcIV7Wshk9CWBOwAAAAAAizt48GBz4sSJUfieCVWvXLnSDNEgA/dsdL3aAQAAAABqpaf70aNHB9tiZnAtZTJ7blrICNuBeeXMGAAAgKGRoQDzalvMJIsdmkEF7hldycy5QjNgETk1CgAAAIDpkqMki00mOySDSI8SsKd/UHq2AwAAAACwHslkT548OZgi6J0P3Nt+7WbIBZblNEoAAGCInO0LLOvIkSODafO900fMw4cPj8L2fAUAAABgflrzAhXawuhdD913NnDPTLhD2IDA+jieAAAAQ+SzEFBlCJOp7mTgfsMNNzQ33XSTEViglGMKAAAAwHJ2fTLVQ82OyYYyOSqwCvoWAgAAQ6TCHViFNsN9++23m12yU+mRsB1YJfNBAAAAQyRwB1YlWe6uVbrvTOB+4sQJYTuwUircAQCAITp0aOcaJAAbJJlu2oPvip1IjxK2X3/99Q3AKqnqAAAAhshnIWDVjh49ujOh+1YH7pnAMA32he3AuvhHEwAAGBKtNYF1Seh+8803jzLfbba1gXtWfDbAdddd1wCsi1MpAQCAIdn24AvYLp/61Ke2PnTfysC9DduNsgLrpsIdAAAYEtkLsG457mxz6L6VgfvJkycd8IF94dgDAAAMSapNAdYt+UtaiW+jrQvcM0GqNjLAfnH8AQAAhkRbTWC/ZMBvGydS3arAPWG7CVKB/ZSWMnoYAgAAQyFwB/ZTJlLdttB9awL3G2+8UdgObARtZQAAgCHQTgbYBAndkw1vi60I3LNCjx071gBsAhUeAADAECg2AjZFsuFtCd03PnAXtgObRh93AABgCFS4A5skGfE2dEDZ6MA9oZawHdg0/ukEAACGQLERsGkyx2dazGyyjQ3cMzHhyZMnG4BNc/DgQaE7AACw09JO5sCBAw3Apjl+/PhGt/vdyMA9YfvNN9/swA5sLIE7AACwy3zmATZVCiFPnTo1ypA30cYF7gnZE7Zv6goDCKdWAgAAu8xnHmCTtd1RNrFge+MC95tuuknYDmy8VHs4CwcAANhFqR4VuAObLq2v0tN902xU4H7jjTc2R44caQC2geMVAACwi7STAbZFJlBNprxJNiZwz8jpsWPHGoBtcf311zcAAAC7RnU7sE2SKW/ScWsjAve25w7ANsmM2NrKAAAAuyYVowDbZJPalO974N5Okiq0ArZN+hpqKwMAAOyShO0yGmDbJKPZlIx53wP3lPybJBXYVtrKAAAAu0RREbCtkjFvQj/3fQ3cb7jhhtEFYFtlMiHVHwAAwC5IWCVwB7ZZAvf9Lo7ct8A9B3GTpAK7wMAhAACwC1JQBLDt9rujyr4F7vq2A7tC4A4AAOwChZHALkg/95MnT+5b9rwvgXtK+/VtB3ZFDuQqQQAAgG2WzzSyGmBXHD58eN/6uR9q1uy6664zYrqDfvvb3zZvvvlm85vf/Gb09fOf//zo91/+8pebm266qYFdl+PaxYsXGwAAgG109OjRBmCXJHB///33mw8++KBZp7UG7hkpPXHiRMP2S6j+3HPPNS+++GLz7LPPjn7uk/D961//evPAAw+Mvu6KDC5koGEWqxp4eOWVVyau+11a35su1SCHDh1qPvroowYAAGCbJK/Z70kG2R/JNX7xi198UkTZl3Mkz0uukYwnl10qsPz973/fvPHGG6ML10prls9+9rNbu72z3H/4wx+aK1euNOty4LXXXlvbo+XF6QC+3XIAfvLJJ0eXSUFvnxyUv/Od7zTf+ta3mm2W537nnXfOHLg///zzzTe+8Y2mSh7/vvvua37605/2Xifr+sKFCw3r8/bbbzeXLl1qAAAAtom8ZjbJALo+h7eFhpsuWUIKJ/Mc8rXtUrCoBJl33HFHc88994y+blvRX4L2X/7yl6OvTJf56770pS81t912W7Nt3nvvvaX29XmtrcI9pyY5eG+3HIxTpT5ryNwlB/MHH3xwdHBP8N62ntk23/ve95ZaD8vIdjh9+vRaDxTMJse4hO7rHDUFAABYhur26WYtejt37twoeN4kWfYf/vCHoy4Fk5Z/0fvOfbb3mwA+4fu99947+rqpPvzww+ZnP/uZoH1O77zzTvPzn/+8+d3vfjcK3hPAb4vk0gnd015mHdZS4Z6D980332zyjS2WivZHH320qZQ3o1R+b1vonkGD22+/fa7bVFS4540sQX+2xSxUuO+PVLgndAcAANgGx48f36rgbD+kcDCh9TQJnPM5fBNab6RYLxlCdcg+q7bqf9OKLRMa/+QnPxl9ZXE5ZvzzP//zVh07Ll++PBpkWUeR5FoCd6cmbbccoHNZhW0M3XPqzLzV7csG7umnlqr2eR5X4L4/1nkABwAAWIYCyenmLbpLwJzLfmjbAP/gBz/Yt7Pyu6Ti/cyZMxvRcubHP/5xZ6/2z3zmM83f/d3fjeZn468y2Wgyjj/nx9f8Lessofs2WVcr4JW3lDly5IiwfYtlQtR5wvZbb731k+9nObjnjevuu+9uXnrppa2YfGE/Wsms4uwCVufgwYOjEV5V7gAAwKa78cYbhe1TvPLKK3Ndf7+C7mQHySw2sf1ssqVcUoj41FNP7VvRZfq1j4ftmRD0a1/7mrM8Jvj7v//70RkBacOzd/9KEP+rX/2q+eIXv9hsixzz0lYmAwmrdLBZsZyaxHZKGD5L0JuZqc+ePdu8/vrrzauvvvrJJT/nQLo3hO97nEUr6HOKVJbxoYceGn3Nfa3KpOXMYEH1gEE7GCFs3z55o/ZPKwAAsMn0bp9NVzX0Jkkucuedd46yg02f6y3tbXK2QFr0rDK/6ZLAOFnVXqnQ/pd/+Rdh+wyyjv71X/91tM72+vWvfz3qib9Nkt8dOHCgWaWVBu5GSrfbLNXc3/72t5uXX355dGrQeOCcnzPJag5oud4kGYmdt69YDtDf/OY3PzldKl9z4F5V+5s8Vp9MjJLWSVXyXO66665967XGclLlnuMfAADApvKZZbslXE/Inqxi3ir8/ZZ++CkwnKUvfpVUY+/t254A+atf/WrDfHI2wOHDhz/5OZXi29bOOFn1qgdZVtZSJgt/7Nixhu2UkcZpB74nnniieeSRR5pZfPe73x0F8I899ljvdRKUz9rnPNftW778LY+VQYAqCcD7Bh/yOMtOiLpX3jCnTYya55dBjGeeeWbU353Nk0qRzIC96tOUAAAA5qW6fbulqj0FjpvUp31eyZ1SSJlCw3VMrDoeCqdgsy90fe6550aXoUpB6R133NF861vfuuZv6XH/hS98YdRKppXBjPxum2TbJ7P5+OOPm1VYWeBupHS7TausTsg8a9jeyvXzZtAXJucNI487S3g9LZDO36sC90mtZPKGUD0ZyrSR6Uwy8vTTT48e+0c/+lHD5sqg48WLFxsAAIBNkr7VbKdVzPOWor60A07I2rbMzSXBaxvqp6I++UgulRX1KaZMHvT888+vNHTfW90en/vc5665Tp7b6dOnt+6MgVVJFta1XTJYsTdw3/S2S13SmSD7+Koym5UE7kePHjVSuuVSOd0nL7RFw+yE0zmY9vUVywjitMA9B+JpfclykMx1KvqqT5p0JM9nnZO9znNWAfsvI785Fr777rsNAADAJkhms7clBNuhbSFT0YYl4fq99947mpMvGcwiQXfOts8lOc4sOc0kyXAS4mZ+wMpuBXuNB+7jWU6WIe15tvmsgWrt3IIvvfTSVetr/MyA8XW7LZLZ5LKKzgQr6eGulcz2m9SmJBXWi4465gXadUpKa5Y3jspe6dOkN3zfMuV5THoulbK+M6oobN8+OR6uejIOAACAWQyt/W8bGJ46dWpU0Tp+ue+++9Y+eeciEmYnDF4mbG9b0yZbyFx7CbfTlmbRfCfV8Ln9+fPnm9dff310v8tmJBlQWNW8fNPMMo/hEOX1Ma3LxDZbVRFteeCeUQ4TpW63tjq8T0ZBl5ER1D553GntbPJmMO0FMct1psmyrLOVTJ+M7mY0sbJPPOtjAlUAAGBT5LPJUDKbZBt33XXXKGPoyzieffbZ0XU2PXS/8847F25zkqLJhOEJxTO/3qqyhdxv2t+mV/pTTz01qqJfRHKY/Qh4tZHpt87Jbdctx8NVZDalgfs6Znll9aaN6C160GxNO7hPm5iiHZWdpCIMnzS6uY4JPfI8z507Nxp1XmfbGurl4J3TlAAAAPZL2/JyKFItPUubk1wnk3duqnQgWKTyug3aX3jhhbUW8CUrSeV7qujTFneRDGk/At5JnR6GbhvOAllGsuzqzgSlgfuQRkqHbNWTq8zyQk5rlb6+Xgnjlz2NadIpM3nTWnUrmTxGqtqXPZuAzZFBE61lAACA/ZDPIkMr5JpWzLfXJlc3p3XLtKLDvbKdE3SvO2jvkuwmyzFvhjLP84VlpTNBdQF52aSpCdpNlDoMmX14mSr3aSPMs77RtZNpZOQzAXnehBJU5+uy0hutT06RWqW8sWgfs3va05QuXbrUAAAArFP6tiuQ7LfMhJ/rkFYwyT2eeeaZide75557RpnFIoMrWQeppE+ld77fu05yf6lczyV50Dz3n9tkmRK650yCadX6aUej+HD7/ed//ucoo9uWOSMSuL/33nvNxx9/3FQoC9z1KN4d08L0BOLLhNrTTtNpe8jPcgBfRS/1TJTa9waQMHzVrWSE7bsrx8nMfv3+++83AAAA63D06FHtf3dAsoroC91T1Z6K8lkld0kB44svvjixz32XZEKZny/BeEL+WSTrSLV72vf2tYxJ2J52NGy///3f/23+4z/+o/nKV74yumy6dv69t956q6lQ0lJGdftumTbhaHuQX1QO5tNU7eDzStg/aaLUjCrDMvLaUlkCAACsQz57bEuFKdMlj7n//vuv+l2yirSknSVsT6ie9rl33313c+rUqVGf+0wcO2+FfwopE5qfPn16dD+pXJ8l62mr3btaxgjbd9N///d/N7/+9a+bbZBs+9Chmtr0ksBddfvuyUhlnxxEF50wIbebZfKLTK6xHyZNlJrRYlhWRk1XPQ8CAABA5LOHgp/dsjd0T4CdiVGndSFIoJ684/bbbx+F7Klor9JWyqc171133TVT5pNixr0Zi7B9t/3Xf/3X1pzpf+LEiabC0oG76vbdNK2tyaIzeD/00EPNppo0GJBeY3qIUeXw4cOqTAAAgJVKcWQ+e7B7EronaE9l+7S2t7lugvYE7qvuVZ/K9+RFqaCfVqiZivwLFy6MnoOwfbelte6vfvWrZht86lOfGl2WtXSdvOr23ZTJSPtaq0Sq3HMQnWcC0Vx/1lHUaZNorELfRKmr6BMPOXZ+9NFHo0k5AAAAKqVv+zYX+SRzSKuTrnazOSM/fcNXPb/apptWKJnAO0WPldXss8pjJuRPljIpTxn6NhySX/7yl1vRyz1y7Lx48WKzjKUCd9Xtuyt9plPVPelUoHZyjYyqTjpI5joZucxkq5tq0kSpDz/8sDcBVuL48ePNhx9+OAreAQAAKiSrqWqLsB9S/DepADDSh/zcuXNTW6kMVXKY9FdfdUX7NNmOGTg5f/68XGXgUuWeEPvmm29uNl1b5Z5lXtRSLWVUt++2s2fPTpw8NTJimlHLnC6UN7znnntudGBPGJ8Da36fyvHxsD0TZNx666299zvtcStNmyh1nlm+YR7p554JZvRUBAAAKuSzRQKtAwcONNsoLUmmhe2Rz/H33Xdfw7Wy/pLD7HfY3koeNEuLGXbfMgH2uuUsoWUsXOGuun33JfTOxBWzvInldKFZT1NKiJ0JMiZVz69zNH7SRKkZMYdVav8h/sMf/tBcuXKlAQAAWERC9ny22OaCnlkm3GwlwE0OMa21ypDk7P1ZBizWLdsqE6qmZ/s6CyxhUcm8//jHPy6c0ywcuKtuH4ZMFJpq9Mcff7ypkANrWtBEVy+2dZs2UarT01iH/EOcSvdle4QBAADDlc/b23727LxV2fsx/9smW3Z9ZB9KN4IUSu4NxpOdZNss0yo4t89F4D5cFZORrtMNN9zQvP32280iFgrccwBftrSe7ZFq9BwQH3vssWYZbdje9u2a9EZ62223NevQN1FqltVEqaxT3niy323KaX8AAMD2yPxQR44caRi25Bivvvpq88wzz8x8m3YS2pwpMO1sgXxezVkFaSecr/ME/OmgoI/7cKVwexv6t++VwP2dd95ZqMp9oR7uCYa2tR8Yi0kf85z6kwPxIr7+9a83L7300icV4+nLNsmk/u5VTJTKpslAZmbDBgAAmFWCrARDEMk67r///qnXS06TosiXX355VGg5S2ueFImlE8LTTz89CvYTos+S3+R6DzzwQMNw/e3f/m2zbTLv3qLH1oUCd4HQMCWAzoE4B+S0W5kmB+L2AP7CCy9cFWBPaiezjtOLMio7aaLUvNnAfsg/y1p2AQAAs8hnBxkN4yaF7sk82pxm2f73CdETvKcVcZ/8Tdg+bDlOfeUrX2m20aKB+9wtZVKBue09wVhOe5pRRjRzClF6ee2tFG/7faWavS88nzTB6qxV9AnNn3zyyU96sOexzpw5M9NgwKTq9ty+ug9cTrfqus9ZlpXhaf9hXrRXGAAAsPs2LWxvP6N3ffY9ceKEedLWLLlH7G0vk8wkbWeqCx1TtJhQPW17927/hO0KGknYvq0Dg6lyT6eXDz74YK7bLRS4Q2vR0dAXX3xxqftMyD9+II8HH3yw+f73vz8aqZ30BjJpoo9UvlfP6p1/OroI3OkjdAcAAPpsWtietrF33333xDmp8rk4Ya/50tYnofvJkydHhYoJv9MueFXargjJU7Ktn3jiiZU+HtvhH/7hH5ovfOELzTbLsfbixYtz3WauwD2V7dddd10Dy2gn2eiTNjTT5ADeV4WeML19I4dtloP6oUOHTKQKAAB8ItXi119/fbNJTp8+PdPnlnyWz2f+ZVuZMLuzZ8+OLrPKdkzesnd7pqBxlm4Eud68j8du+pu/+ZvmH//xH7duotQuqXCft8p9rsBdX2EqPPvssxP/Psus2G0bmT4Cd3ZFzirKJNXZ7xeZGRsAANgN+Vxw/PjxjQvbcwb7PG1Z03JV4L5Z2pwl26avQDJh+j333DOaNDVfYZJ/+7d/a3ZJCtBXFrirbh+OHGD73jDbg+yiJrVrmeV+J7WDabUjsrPMlg2b7siRI80tt9wyOoXp448/bgAAgGFJx4G0Bjl8+HCzaTJp5jzeeuuths3Q9t3PZdoZCm0on0vax6TIUZtchiIDnWn5O2sh5MyBu8lShyUj1H3BeAL3CxcuLDTJxqTJSmOWmatnDdGF7eySHH9zKpbQHQAAhqX9LCCToVLf3Hiz3jZz6KV3/660j0mGtMi6GAKTHf9l8tQUQ7733nszXX+uwJ3hmNRHPaOaCePnPajmgDypuj0jpLNUuOd60w6E0/rAZ7CgOpCftDzCfyrkH+xPf/rTzR//+MeZD/IAAMD2SqeBVLannQxUuu+++5YOmFMZn3xlF1r6pgB0UmY1ZLP07x+CVLmXBu4mSx2e9FPLC6qvfcu8B9VZRk7nOUAn7M+bQ5+nn366mXb76lHYjHZNWh496qiQ/SyvvRyXczoTAACwmzKP3rFjxxpYhUy+WyFFkbvgzJkzU7syDFHbPoi/TJ6awc9Z2socbGaQknmGJwebSTLyl8u0Pl9pTzMtbM8LeJ7eX5mk46mnnrqmcjz38/zzz+/MAR/65B9vp5UCAMDuyf/4p06dErazUufPn1+6cvnb3/721vRxv+GGG676+Z133rnq5xS2vfDCCzoU7JH9oytje+ONN676eXzd7rJZn+tMFe5DWnH8VU6nyWQYCcz7JHDPddLCJSF4XoQ5SCWEz8Srk2a43isv4EWWL5fcfyro01NKXymGJKOrCd0z6dD777/fAAAA2y3/47dntMIqtQFzCiT7uhtMkrD9u9/9brMt0pppb8ieyX6/+MUvXnWdZFr5fSrds06mFZjusrR8Ts7X5X/+53+u+nlIuXGK0mfpNjA1cM8M2A70w5VWKHfdddfEg0zC7lwSvC8iB+llKtK1amHI2uqXS5cuaTEDAABbKm0KUtGu4JF1WjR037awPT7zmc9cFRT/+te/br7whS+Mcs9xKe6kWwYtMiix12233dYMRfaXDIx+8MEHE683taWMyVKHrW3RkoPwKmzjQRo2Uf45zz8QBkgBAGC7JLy55ZZbhO3sizZ0n7W9zLbmOAmF94brCUx/9rOfNczn5z//+VVnCuS49dnPfrYZkhyzp5kauOvfTtq0JHSv7mMlbIdaCdsTumdyJQAAYLOlqv348ePmZlrCqooDh2bW0H2bc5yEpKlo3+v3v/998+Mf//iafu5cK+so6yrrbK/bb799cIOF119//dTrTGwpo50MrYTuOfi2PduXkar5THiqFQysRqrd8waQNjPvvfdeAwAAbJZd6tU+72f7SaHuvO1mJ91X5pqbNCfdXpPmg6t8fptsWnuZXSia/NKXvjQKjPeGxpkA9Ec/+lHzuc99blTA1tViZsg+/PDDUSue8aA90hd/vA/+EOS4Pa2tzMTAXTsZ9sobX3q6ZwbqBO+zvnG1cvB++OGHm0ceecQoNKxY3gDyOsubQHq7f/zxxw0AALC/8n/6iRMnmuuuu67ZFckKZg23c91MxtjnzJkzzZNPPjnTZJXJJiYF9Pn7rLlFHrdP5fPbdH2h+y51KPjqV7/a/OQnP7mmqj2h8vhkoPRLVfvXvva1ZqimBe4HXnvttSt9f0wPsUOHps6rykBlotSf/vSnzXPPPTf6fnwENAfqtKHJaHDecFS0w/5J6P7uu+8K3gEAYB+kfUwCqrR/zPe7JgH5o48+OvGM+ITR586dm1hNHr/4xS+a06dPN7/97W97r5MA/Pz581OL+RISP/74471/z+0TJqcwcJLK57cN8nzvvPPO0TbYxXbACdt/+ctfXjP5J7PJmQD/9E//NOizAVL5/3//93+9f+8N3NtewADshoTtCd0TvgMAAKu360H7uBTjJTAfr1BPGD1vEV4K/HJ/43I/87SeyX20l70Stue+5jkDv/L5bYM833nb/GyTCxcuNL/61a/0cJ9RcuK0kBnaJKl90manr6ixN3BPOxltPwB2T94Q9HcHAIDVGVrQDtssfdx/97vfzdTKaIiSD6dfu6D9am+99daoqLFLb+B+6tSpneopBsDV2or3BO9azQAAwPIE7QDDkB7uFy9e7PxbZ4P2gwcPCtsBdlxahx07dmx0aVvNCN4BAGB+mUAvOUrCdkE7wO7LvKc53l+5cm0t+6G+GwAwHNdff/3o8v77748q3rWbAQCAyRK0JGTP/9GKFgGGJQXrmTg2le7jOpP1I0eONAAMTz4o5JKq9zZ873rzAACAoVLNDkDkvWDmwN3ILMCwpd1MW/WeNjPCdwAAhkzIDsC4o0ePNpcuXbrm99cE7glZtJQBoNUVvv/pT39qPvroIz3fAQDYSQnVc/Z/gvYEKkJ2AMYlL+nq435Nsp7eMwDQZW/4Hh9++OEogE/luwAeAIBtlf9zE66nADGV7LIRAGaRwdnxefCuCdzzBgMAs8gHkb0fRhK4t+F7wvj8nO8BAGBTtOF6e4Z//p91pj8Ai+h6/7jmN/q3A7CofGjJKbfjEr5fvnx5FMC3l/yc067GvwIAwLzyf+je73OK/8GDB0fftz8L1gGolix9vI/7Ve80eTPy5gNANafkAgAAALsmecd4H/eDe68gbAcAAAAAgNmMFxleFbjr3w4AAAAAALMZL2K/KnB3yj8AAAAAAMxmfE5UgTsAAAAAACygt6VMO3s3AAAAAAAwXTL1TJza+iRwN2EqAAAAAADMZ+/cqJ8E7trJAAAAAADAfPZ2jvkkcN+bwgMAAAAAANPtLWbXUgYAAAAAABYkcAcAAAAAgALXtJTRvx0AAAAAAOZ38ODBT0L3UeB+4MCBBgAAAAAAmF/bQUaFOwAAAAAALOGqCve9PWYAAAAAAIDZXRW4mzAVAAAAAAAWc1VLGRXuAAAAAACwmLZtu8AdAAAAAACWcODAgdHXg3/2yQ8AAAAAAMB82pz9oOp2AAAAAABYTkL3g6rbAQAAAABgOSluH7WUAQAAAAAAFjcK3LWUAQAAAACA5Yx6uGspAwAAAAAAyxn1cFfhDgAAAAAAy9HDHQAAAAAAimgpAwAAAAAASzp06FCjvB0AAAAAAAro4Q4AAAAAAEsa9XDXUgYAAAAAAJanpQwAAAAAABQ4+GcNAAAAAACwuHSTOXD58uUrDQAAAAAAsBTl7QAAAAAAUEDgDgAAAAAABQTuAAAAAABQQOAOAAAAAAAFBO4AAAAAAFBA4A4AAAAAAAUE7gAAAAAAUEDgDgAAAAAABQTuAAAAAABQQOAOAAAAAAAFBO4AAAAAAFBA4A4AAAAAAAUE7gAAAAAAUEDgDgAAAAAABQTuAAAAAABQQOAOAAAAAAAFBO4AAAAAAFBA4A4AAAAAAAUE7gAAAAAAUEDgDgAAAAAABQTuAAAAAABQQOAOAAAAAAAFBO4AAAAAAFBA4A4AAAAAAAUE7gAAAAAAUEDgDgAAAAAABQTuAAAAAABQQOAOAAAAAAAFBO4AAAAAAFBA4A4AAAAAAAUE7gAAAAAAUEDgDgAAAAAABQTuAAAAAABQQOAOAAAAAAAFBO4AAAAAAFBA4A4AAAAAAAUE7gAAAAAAUEDgDgAAAAAABQTuAAAAAABQQOAOAAAAAAAFBO4AAAAAAFBA4A4AAAAAAAUE7gAAAAAAUEDgDgAAAAAABQTuAAAAAABQQOAOAAAAAAAFBO4AAAAAAFBA4A4AAAAAAAUE7gAAAAAAUEDgDgAAAAAABQTuAAAAAABQQOAOAAAAAAAFBO4AAAAAAFBA4A4AAAAAAAUE7gAAAAAAUEDgDgAAAAAABQTuAAAAAABQQOAOAAAAAAAFBO4AAAAAAFBA4A4AAAAAAAUE7gAAAAAAUEDgDgAAAAAABQTuAAAAAABQQOAOAAAAAAAFBO4AAAAAAFBA4A4AAAAAAAUE7gAAAAAAUEDgDgAAAAAABQTuAAAAAABQQOAOAAAAAAAFBO4AAAAAAFBA4A4AAAAAAAUE7gAAAAAAUEDgDgAAAAAABQTuAAAAAABQQOAOAAAAAAAFBO4AAAAAAFBA4A4AAAAAAAUE7gAAAAAAUEDgDgAAAAAABQTuAAAAAABQQOAOAAAAAAAFBO4AAAAAAFDgUAMAMHAvvvhi799uvfXW5vOf/3wDAAAA0wjcAYBBe+6555rTp0/3/v3MmTPN2bNnGwAAAJhGSxkAYNCeffbZiX//4Q9/2AAAAMAsBO4AwKClwn2SN998s/npT3/aAAAAwDQCdwBgsBK2J1Cf5XoAAAAwjcAdABisae1kWtrKAAAAMAuBOwAwWF2V6zfddNM1v9NWBgAAgFkI3AGAQeprJ/PUU091hu7aygAAADCNwB0AGKSudjKf//znm3vvvbf58pe/fM3ftJUBAABgGoE7ADBIXRXrX//610dfv/Wtb13zN21lAAAAmOZQAwAwMH3tZNqgPVXujz322DXXye2+8Y1vNKzeb3/72+Y3v/nNVb9Lq5+usw/WJcuUfWLvfpGzIm699dZmaLIO3nrrrWu2UbZPV0umal3bYp2PDwAAfQ5cvnz5SgMAMCAPPvjgNS1iEpxeuHDhk5+/+c1vNi+++OJV10mQ9/rrrzfL6Av7Z5XlXCR4XvZx59V1lsAkWbYnn3xytM5/8Ytf9C5rnvsdd9wxuv+ckZD1sajxdZL7vueee666TpYn7Yeyv0xapgzEZJnGb7/M8kTub9kAefx+M0CwyMBRuy7abdQn2yTb5pFHHikbIMny53nkkjNNJu3L7fbIupt3P2zlMRLq77XoemtlcGL8mBLzLGPXPrLs66Drfpd9rrmvdtBsmeNO9p+83gEAtonAHQAYnFOnTl0TAiX0evrppz/5+Qc/+EHz0EMPXXPb559/fqkg6rbbbrsmyFvE3uB5lsCu6nFn9ef/MWe6XrbD9773vVHYvog89+985zsLBY7j62TvoEuCwmz/edsI5T4y8e4i+0jXNlp2f+vajx944IHRMs5zH88888xCLZUSep89e3apQDj7RvaRRYLbPG67j8yja1AuwfYLL7zQLKrvmDLrayW69pEctxYdWOhbrkWea7ZP1lk7KFIh223ebQcAsN/0cAcABmVaO5lW2sp0VRZ39X7fD21P+QSDt99++zWtPbZBwrks+6Jhe3sfd999d+ckuIvK8tx1110LhYbZDlmeBMT7LcuS1kiLShV7nssiAw+tvF6yLheZdLhdl48++ujCVdK5j2yLbX2NrFq7fpaV10zWcbaVuS4AgKETuAMAg9IVzKYKdryKuK9ty6TWIvulDSa3KVBMyJfBgop1med93333lQSHuY9lAt6995Pnt5/SFmnR57HMoMO4LEPWxTz3lW2a5a8Kb7fxNbIOGUxZ9syXqtcMAMCuMGkqADAoXRXqaZ/QJVXv4z2XEyql8nfTJk9NkHj69Onm5ZdfbjZdArpp4XgGPE6cOPFJK5I8v2nBYO4ztztz5kyziLa9Td/yZD9pz3rIdbNMr7zySu/9tVXde1sVrUuex6JB6izbJ9LnO+ujXSdZF5NC1wyKpGXPLD3pE7ZPW/48fvaPXNpe4ZO2R66T4H+ZtjC7JNt42QGNWfcVAIAhEbgDAIMxazuZVtrKpCXH+G3Sz7oycJ+lp3Yb8CbsT/VxV7CY3+VvXYFzJrCctQI1ZwGM33/bC3tZ6Rc9KaBre9L3rd8EhAmy+1qUpNI2ZyYssn261k9C9vSQ7ru/bJM8p3//93/vvH2WM732Fx0EWEQGiZYJQSeFsFkfeV2kN3tXX/ZJ26edGHdaT+5JgwV5zKzL7CN9wX27j3XdR9ZNlq1iX95mFa1kJr2Ws20efvjh0eumHRSZZt3zTAAArIrAHQAYjFnbybQSGiVYHA8Pcz9PPPHETJW6VdpJUnNJQP/d7363efzxx6+5XpatK9ydJ/DtqtxONfGykxdOCvmyHc6dOzd6fpNkW+WSwDTVyl0BXdpkvPTSS0tvn29/+9uj9TxJljvXyTbpq8rOc54UEFfKOs6yLOP8+fOj57J3H5h1Mth2+2R/6do/81qatB9N2keyD+e209Zjnn8uGXzpmh8gQfGQA/cMfGT7LqtvO2XAK/vQMhPlAgBsMz3cAYDBmKedTKsrmGvbyuynhLwJNcelgndTeyn3VR0nmHv++eenhu17JdRNa5CudZDQdpmJWGOWsH2vPIe+5Wkru9dhmVYyrQTaCUzb55KgO61g5jlrIOuu67U1rTVQX3V9luHs2bNzDVrk+l3LkNfIkCupMxCx7PPP8a/vtZzXgbAdABgygTsAMAjztpNpJQTuCvnSVma/9VUyb+LEkFmmvjYwCdsXCehym77+6Am4Fx14aKvWN2V5ZpXH6FvH82qD01S1J7heRN9r64033ui9TdfyZ1kWPbui73ZVk7Fum1T3V+wj43NbtLK/rPPMHwCATSRwBwAGYd52Mq22rUzX/e13JXlXNXVsYoV7X8CZUHaZathsv64q5qyDvlBwmmVa57TtbrqWpyoM75IBjVQuj5t2Bsck2S7LtKdJT+4uk/bPhPwZgElFe1qTxCxtZPpke3TddhMHpVYtzzlzUoxb5PXXdYZP1vOmTSYNALAfBO4AwCAs0k6mtaltZfpsYoVpJhXtsmxf+En38f3vf7+ZV8XksH237xr0qdLVkzttcfYzAO0L1vuC+FaWOVX1L7/88qiVzTKDBtEG93sNsaVM9pHxbdJOQDuvrm2rjQwAwF8I3AGAnbdoO5nWpraV6avgnqcX+jr0DU4kSK0I6dpJOseNT/w6i2XD3erlmUVXT+5F2+JU6hpgyOuo78yMLnkey+4jguDu3v5ZL4u2C9I2BgCgn8AdANh5i7aTaW1iW5m0h+hq01IRGFfrC5rvvffepkrXfS1yFkLVMlUtzzTpyT0+IWv217Rl2U8JeLta6HS9jqolWM4gW9ZLBiOG2q+9lYG5bI9x1fvIENv0AAB0OdQAAOy4ZdrJtFINPx4gtgHqutt2JNg6ffp0Z1uMRStWV6kvZO5q9bGovvtK2D9Pxf881dfrWJ5Jsh90BalpJbPuqu68FrI/JtzO660v5K5oIdQ+XtZl9q2shzx2+z1/lfXR1Yd/2X0k+3DX8TDbXR93AGDoBO4AwE5LBfAy7WRabVuZ8ftKW5llA6ZXX311pgk1E56lWrUvzEyItmntZKIvBJ3Wy3sefc973jMQqtZf3/1UBsIPPfTQNYMu2a8feeSRZpUy2LP3rIVZn9MyIW+eZ84oyeNm/xesz6arlUzOMli23VDfgFL2yVTOa+MDAAyZwB0A2Gld1e3ztJNpJWxPmDneviMh4BNPPLFUT+OE6H392GeVZVh10LqovtC7qpo8+tb/PIF7ZV/qVfe4TpA6PvCS/bqqgnySt956a+7A+/77718o5M2AWQa1ht4WZhE5Vo0P5C3Tt32vHD9zltD4cSv7xd133y10BwAGTeAOAOyshK0V7WRaqQwdD9z3q63MXlmuyn7ou2S/Avc+XW2A5tXXSuapp57a2JDzwIEDo+WedfnymnrwwQeXnmi23ab7NdfCfsm6Tv/6cRmQqdpHcl8J17se+/bbbx8dk3Ksbc8OMtEqADAUAncAYGd1TZYaCccXCT7TAmVVbWWWkUGFXFKBn+pVwdZfbdq6OHHiRLOM7Hvf/OY3r/l92rVscu/sVFqnGvqll16auk1y3YTts8r95WyJBLsJk9vv8/v8nPuapWXTLunaR86cOTN3K61Jsr9lv3v88cc7/57jb98xGABglwncAYCd1VXdHvOEebOoaCtTIaFiKoNfeOGFrQjdEx5XLWdFBXNlX/C+5Vn2+aZqeXywKKHysj2555H2MF1nibSTlvZVpedvee2dP3++6ZPX0rTXZ/qHJ+xtv06r2K44q2Cb9O0jq2g31O53faE7AMAQCdwBgJ3U105mVY+1TFuZBx54YNQOZJ7HSrjeVbWbsDPtRir6NFfpC0TTC7wqcM99dZn3/qsGAaqWZ6/0M+/a5umXvU7ZXydJsJ6e610TduY1mb91vVb62qC02grtTZwYeFNkHxlvexXZR1Y1CJfQPdszAyVDG9wAAOhysAEA2EHrbmWQtjLrkNAs4dbTTz/dXLhwoXPi0QRumzTJZN/kqJXLmEGILqmCrrifeVUtTyth9GOPPXbN73Nmxab1bc/yJJTvO9OibyAs+0NXYJv7SyuaDCItEra/+uqrzRD09fZP25dV7yM5JmU9J9ivnAwZAGAbCdwBgJ20rur2VgL+dU/MmBAtwXuX9MveFH0haVW4HX3h/bwB7bKTdLb6lmfR4DM9ucf3r1R7P/LII82mynPt6hne99rsGrTKfSTEXbSqPetsKFXXDz300DXPNa1/1tluKNura32nDVG246SLoB4A2BVaygAAO6evnUyqbZedtLI1Hiot21ZmUXm8BFXjy1MZZi+rncByPDBOe5SK1jd927t93Hlk4CStS5bVNeCRMHKRwL2rNcuqenJX66roTyV2V+uerkGKbItlqrM3aeBplbKPjK+/SQNyq9I1WWuW4/vf/77JnAGAwRC4AwA7p6+dzLlz58oC8VOnTl0TIKdCd92Be9x2223XBLKbVtWbStvxUDzrr6+f9zz6tvci7VsS0C7bxz19tLvOduiaaHSW5elqE7LqVjLtIEZXhXqF8f79fWeHLNqCp7Xu1lL7oa+VTAZk1tluqGtgqF0OYTsAMCRaygAAO6er2jnBU2UY3hVE7kdbmT5VlfxV+qrGu4LCefSFjbFoBXjXpJPz6FueRcLrvp7c9957b7MqCfnvvPPO0SSYy26fvsljx63idZN9o2uS2V3TtY3aCWbXpe91mGVY53IAAGwCgTsAsFP62ovcc889TaWu+2vbyqzbJrWP6dO2vhnXV8E9q4TjXVW1qSZftLo3y7PoOu2r8q0a8Mn9rKond/bf06dPj9qCtM8hz2eZ7ZNWIl3G94W+bbVMT/30NB+i/Wg31NdKZhvaHgEAVBO4AwA7pa+FRHWVZcLTrjYJXRM/rlJf+5JFJ5lcpb7wLYHuIlXlk263bG/4++67b1S1O49UU1dX24/L5JKrkn2pa7Bq0dC9b/Chr7VO14DMoi1hunqaD0X2kXW2cJnUSmadLW0AADaFwB0A2Cl97WRWEUDvd1uZVIc/9thjnX+rruiv8MADD/SGrY8++uiohcksIXeuk0rsSa1blt3eeYy777575tA9wX+Wv0uec8WAT1rJrDLAfOSRR3q3T9b17bffPtMkpNn/sz37tk/2gy5dbXLmPQMij13RCqdL2uMkWF70Mmt7nWWseh8Zl9dH16CXVjIAwJCZNBUA2Bnraiez937Hw6a2rcw87UNeffXVuXpN5/4TRPa1PanuV1/p6aefvqplyV5ZB7kkeE3wm9A8lbq55Lkm3Mv2nVS5nOe+bHV7K4+XkDnLk22d5Wkn8cx2znPIsqRtSt8ktVmePOdl5fFX1Upmr/Pnz4/6t3c9n6yPbLs8pyxPe5ZHfm73+1yyDfsGnXLdviA2fce7wts2PM/t+sLkPF5um8v4Y99///0lZ57kuWWC4mrZx7pkP57n2JV9cx37yF5p2zO+vrWSAQCGTuAOAOyMdbWTabWB43jglHBvnsA74fkslcOzeuqpp5pNlTAuoW6qx/tC2WzHRVqJ5L5X0U5j0eWJbItlK44rBxGmybp74YUXegdFoq1qXqQN0Llz53r/luc5KXTPJa+r8fWZQY++MxEycJMQet2tnubRt+zznCnTvq7WKS2Iuga/tJIBAIZOSxkAYGess51Ma7/byoxLwLup1e2tbI+XXnqps2f3otqwfdmgL9uzYrkSXFdti3UHmHmshO597WUWlfUx7bWY59qeRdAlAW+C3r2XSWH7ukPo/bLufSTrvKttj1YyAAACdwBgR6y7ncyk+2/ba6xTwsUEzn39sTdNG+pWhHOpik6AXxE4VixXG/5XbIs8t/0IMNv1kJB82QGIedZHW2G/7Os2vcxzP+ucPHS/7EfI3TVRqlYyAAB/IXAHAHbCutvJtNq2MuNWMWljK4+XEDQhewLZhJkJFze9sn1c2988Yfm82ynrIKFsnnvarVQGq+1yzRs2ZxkS9F64cKHkrIpNCDATkmffeuKJJ+YO3tv1ke07z76Z26UyfZH1n/0o63/dvcz3y37sIzmroGvOiYcfflgrGQCAPztw+fLlKw0AAOyztKlIy5BXXnnlk0lS90qInUAvLUcykemyIXsmwByv0k14OR5gZpnSYz9fc/bC3nZB7TK1k4juunb7tOti7zZqJ1DNesg2qlofeaycvZJ9om/9V+0T++XgwWvroDLooz0LAMD2EbgDADBIswbusGoCdwCA3aGlDAAAAAAAFBC4AwAAAABAAYE7AAAAAAAUELgDAAAAAECBQw0AAAD75vLlyw0AALtBhTsAAAAAABQQuAMAAAAAQAGBOwAAAAAAFBC4AwAAAABAAYE7AAAAAAAUELgDAAAAAEABgTsAAAAAABQ41AAAwACdPXu2efPNN6/63R133NEAAAAs6sDly5evNAAAAAAAwFK0lAEAAAAAgAICdwAAAAAAKCBwBwAAAACAAgJ3AAAAAAAoIHAHAAAAAIACAncAAAAAACggcAcAAAAAgAICdwAAAAAAKCBwBwAAAACAAgJ3AAAAAAAoIHAHAAAAAIACAncAAAAAACggcAcAAAAAgAICdwAAAAAAKCBwBwAAAACAAgJ3AAAAAAAoIHAHAAAAAIACAncAAAAAACggcAcAAAAAgAICdwAAAAAAKCBwBwAAAACAAgJ3AAAAAAAoIHAHAAAAAIACAncAAAAAACggcAcAAAAAgAICdwAAAAAAKCBwBwAAAACAAgJ3AAAAAAAoIHAHAAAAAIACAncAAAAAACggcAcAAAAAgAICdwAAAAAAKCBwBwAAAACAAgJ3GgAAAAAAlidwBwAAAACAAgJ3AAAAAAAoIHAHAAAAAIACAncAAAAAACggcAcAAAAAgAICdwAAAAAAKCBwBwAAAACAAgJ3AAAAAAAoIHAHAAAAAIACAncAAAAAACggcAcAAAAAgAICdwAAAAAAKCBwBwAAAACAAgJ3AAAAAAAoIHAHAAAAAIACAncAAAAAACggcAcAAAAAgAICdwAAAAAAKHDonXf/1AAAAAAAAMtR4Q4AAAAAAAUE7gAAAAAAUEDgDgAAAAAABQTuAAAAAABQQOAOAAAAAAAFBO4AAAAAAFBA4A4AAAAAAAUE7gAAAAAAUEDgDgAAAAAABQTuAAAAAABQQOAOAAAAAAAFBO4AAAAAAFBA4A4AAAAAAAUE7gAAAAAAUEDgDgAAAAAABQTuAAAAAABQQOAOAAAAAAAFBO4AAAAAAFBA4A4AAAAAAAUE7gAAAAAAUEDgDgAAAAAABQTuAAAAAABQQOAOAAAAAAAFBO4AAAAAAFBA4A4AAAAAAAUE7gAAAAAAUEDgDgAAAAAABQTuAAAAAABQQOAOAAAAAAAFBO4AAAAAAFBA4A4AAAAAAAUE7gAAAAAAUEDgDgAAAAAABQTuAAAAAABQQOAOAAAAAAAFBO4AAAAAAFBA4A4AAAAAAAUE7gAAAAAAUEDgDgAAAAAABQTuAAAAAABQQOAOAAAAAAAFBO4AAAAAAFBA4A4AAAAAAAUE7gAAAAAAUEDgDgAAAAAABQTuAAAAAABQQOAOAAAAAAAFBO4AAAAAAFBA4A4AAAAAAAUE7gAAAAAAUEDgDgAAAAAABQTuAAAAAABQQOAOAAAAAAAFBO4AAAAAAFBA4A4AAAAAAAUE7gAAAAAAUEDgDgAAAAAABQTuAAAAAABQQOAOAAAAAAAFBO4AAAAAAFBA4A4AAAAAAAUE7gAAAAAAUEDgDgAAAAAABQTuAAAAAABQQOAOAAAAAAAFBO4AAAAAAFBA4A4AAAAAAAUE7gAAAAAAUEDgDgAAAAAABQTuAAAAAABQQOAOAAAAAAAFBO4AAAAAAFBA4A4AAAAAAAUE7gAAAAAAUEDgDgAAAAAABQTuAAAAAABQQOAOAAAAAAAFBO4AAAAAAFBA4A4AAAAAAAUE7gAAAAAAUEDgDgAAAAAABQTuAAAAAABQQOAOAAAAAAAFBO4AAAAAAFBA4A4AAAAAAAUE7gAAAAAAUEDgDgAAAAAABQTuAAAAAABQQOAOAAAAAAAFBO4AAAAAAFBA4A4AAAAAAAUE7gAAAAAAUEDgDgAAAAAABQTuAAAAAABQQOAOAAAAAAAFBO4AAAAAAFBA4A4AAAAAAAUE7gAAAAAAUEDgDgAAAAAABQTuAAAAAABQQOAOAAAAAAAFBO4AAAAAAFBA4A4AAAAAAAUE7gAAAAAAUEDgDgAAAAAABQTuAAAAAABQQOAOAAAAAAAFBO4AAAAAAFBA4A4AAAAAAAUE7gAAAAAAUEDgDgAAAAAABQTuAAAAAABQQOAOAAAAAAAFBO4AAAAAAFBA4A4AAAAAAAUE7gAAAAAAUEDgDgAAAAAABQTuAAAAAABQQOAOAAAAAAAFBO4AAAAAAFBA4A4AAAAAAAUE7gAAAAAAUEDgDgAAAAAABQTuAAAAAABQQOAOAAAAAAAFBO4AAAAAAFBA4A4AAAAAAAUE7gAAAAAAUEDgDgAAAAAABQTuAAAAAABQQOAOAAAAAAAFBO4AAAAAAFBA4A4AAAAAAAUE7gAAAAAAUEDgDgAAAAAABQTuAAAAAABQQOAOAAAAAAAFBO4AAAAAAFBA4A4AAAAAAAUE7gAAAAAAUEDgDgAAAAAABQTuAAAAAABQQOAOAAAAAAAFBO4AAAAAAFBA4A4AAAAAAAUE7gAAAAAAUEDgDgAAAAAABQTuAAAAAABQQOAOAAAAAAAFBO4AAAAAAFBA4A4AAAAAAAUE7gAAAAAAUEDgDgAAAAAABQTuAAAAAABQQOAOAAAAAAAFBO4AAAAAAFBA4A4AAAAAAAUE7gAAAAAAUEDgDgAAAAAABQTuAAAAAABQQOAOAAAAAAAFBO4AAAAAAFBA4A4AAAAAAAUE7gAAAAAAUEDgDgAAAAAABQTuAAAAAABQQOAOAAAAAAAFBO4AAAAAAFBA4A4AAAAAAAUE7gAAAAAAUEDgDgAAAAAABQTuAAAAAABQQOAOAAAAAAAFBO4AAAAAAFBA4A4AAAAAAAUE7gAAAAAAUEDgDgAAAAAABQTuAAAAAABQQOAOAAAAAAAFBO4AAAAAAFBA4A4AAAAAAAUE7gAAAAAAUEDgDgAAAAAABQTuAAAAAABQQOAOAAAAAAAFBO4AAAAAAFBA4A4AAAAAAAUE7gAAAAAAUEDgDgAAAAAABQTuAAAAAABQQOAOAAAAAAAFBO4AAAAAAFBA4A4AAAAAAAUE7gAAAAAAUEDgDgAAAAAABQTuAAAAAABQQOAOAAAAAAAFBO4AAAAAAFBA4A4AAAAAAAUE7gAAAAAAUEDgDgAAAAAABQTuAAAAAABQQOAOAAAAAAAFBO4AAAAAAFBA4A4AAAAAAAUE7gAAAAAAUEDgDgAAAAAABQTuAAAAAABQQOAOAAAAAAAFBO4AAAAAAFBA4A4AAAAAAAUE7gAAAAAAUEDgDgAAAAAABQTuAAAAAABQQOAOAAAAAAAFBO4AAAAAAFBA4A4AAAAAAAUE7gAAAAAAUEDgDgAAAAAABQTuAAAAAABQQOAOAAAAAAAFBO4AAAAAAFBA4A4AAAAAAAUE7gAAAAAAUEDgDgAAAAAABQTuAAAAAABQQOAOAAAAAAAFBO4AAAAAAFBA4A4AAAAAAAUE7gAAAAAAUEDgDgAAAAAABQTuAAAAAABQQOAOAAAAAAAFBO4AAAAAAFBA4A4AAAAAAAUE7gAAAAAAUEDgDgAAAAAABQTuAAAAAABQQOAOAAAAAAAFBO4AAAAAAFBA4A4AAAAAAAUE7gAAAAAAUEDgDgAAAAAABQTuAAAAAABQQOAOAAAAAAAFBO4AAAAAAFBA4A4AAAAAAAUE7gAAAAAAUEDgDgAAAAAABQTuAAAAAABQQOAOAAAAAAAFBO4AAAAAAFBA4A4AAAAAAAUE7gAAAAAAUEDgDgAAAAAABQTuAAAAAABQQOAOAAAAAAAFBO4AAAAAAFBA4A4AAAAAAAUE7gAAAAAAUEDgDgAAAAAABQTuAAAAAABQQOAOAAAAAAAFBO4AAAAAAFBA4A4AAAAAAAUE7gAAAAAAUEDgDgAAAAAABQTuAAAAAABQQOAOAAAAAAAFBO4AAAAAAFBA4A4AAAAAAAUE7gAAAAAAUEDgDgAAAAAABQTuAAAAAABQQOAOAAAAAAAFBO4AAAAAAFBA4A4AAAAAAAUE7gAAAAAAUEDgDgAAAAAABQTuAAAAAABQQOAOAAAAAAAFBO4AAAAAAFBA4A4AAAAAAAUE7gAAAAAAUEDgDgAAAAAABQTuAAAAAABQQOAOAAAAAAAFBO4AAAAAAFBA4A4AAAAAAAUE7gAAAAAAUEDgDgAAAAAABQTuAAAAAABQQOAOAAAAAAAFBO4AAAAAAFBA4A4AAAAAAAUE7gAAAAAAUEDgDgAAAAAABQTuAAAAAABQQOAOAAAAAAAFBO4AAAAAAFBA4A4AAAAAAAUE7gAAAAAAUEDgDgAAAAAABQTuAAAAAABQQOAOAAAAAAAFBO4AAAAAAFBA4A4AAAAAAAUE7gAAAAAAUEDgDgAAAAAABQTuAAAAAABQQOAOAAAAAAAFBO4AAAAAAFBA4A4AAAAAAAUE7gAAAAAAUEDgDgAAAAAABQTuAAAAAABQQOAOAAAAAAAFBO4AAAAAAFBA4A4AAAAAAAUE7gAAAAAAUEDgDgAAAAAABQTuAAAAAABQQOAOAAAAAAAFBO4AAAAAAFBA4A4AAAAAAAUE7gAAAAAAUEDgDgAAAAAABQTuAAAAAABQQOAOAAAAAAAFBO4AAAAAAFBA4A4AAAAAAAUE7gAAAAAAUEDgDgAAAAAABQTuAAAAAABQQOAOAAAAAAAFBO4AAAAAAFBA4A4AAAAAAAUE7gAAAAAAUEDgDgAAAAAABQTuAAAAAABQQOAOAAAAAAAFBO4AAAAAAFBA4A4AAAAAAAUE7gAAAAAAUEDgDgAAAAAABQTuAAAAAABQQOAOAAAAAAAFBO4AAAAAAFBA4A4AAAAAAAUE7gAAAAAAUEDgDgAAAAAABQTuAAAAAABQQOAOAAAAAAAFBO4AAAAAAFBA4A4AAAAAAAUE7gAAAAAAUEDgDgAAAAAABQTuAMD/Z+8OX6y47z2On17TpERJ2kjrVUiposGCIX0Q6IP+/88spCAoKEloob1G4k3FlCY09t7PlmnX8XfWs3s+Z52z+3rBkt69ibtnZs4cfM9vvgMAAAAUCO4AAAAAAFAguAMAAAAAQIHgDgAAAAAABYI7AAAAAAAUCO4AAAAAAFAguAMAAAAAQIHgDgAAAAAABYI7AAAAAAAUCO4AAAAAAFAguAMAAAAAQIHgDgAAAAAABYI7AAAAAAAUCO4AAAAAAFAguAMAAAAAQIHgDgAAAAAABYI7AAAAAAAUCO4AAAAAAFAguAMAAAAAQIHgDgAAAAAABYI7AAAAAAAUCO4AAAAAAFAguAMAAAAAQIHgDgAAAAAABYI7AAAAAAAUCO4AAAAAAFAguAMAAAAAQIHgDgAAAAAABYI7AAAAAAAUCO4AAAAAAFAguAMAAAAAQIHgDgAAAAAABYI7AAAAAAAUCO4AAAAAAFAguAMAAAAAQIHgDgAAAAAABYI7AAAAAAAUCO4AAAAAAFAguAMAAAAAQIHgDgAAAAAABYI7AAAAAAAUCO4AAAAAAFAguAMAAAAAQIHgDgAAAAAABYI7AAAAAAAUCO4AAAAAAFAguAMAAAAAQIHgDgAAAAAABYI7AAAAAAAUCO4AAAAAAFAguAMAAAAAQIHgDgAAAAAABYI7AAAAAAAUCO4AAAAAAFAguAMAAAAAQIHgDgAAAAAABYI7AAAAAAAUCO4AAAAAAFAguAMAAAAAQIHgDgAAAAAABYI7AAAAAAAUCO4AAAAAAFAguAMAAAAAQIHgDgAAAAAABYI7AAAAAAAUCO4AAAAAAFAguAMAAAAAQIHgDgAAAAAABYI7AAAAAAAUCO4AAAAAAFAguAMAAAAAQIHgDgAAAAAABYI7AAAAAAAUCO4AAAAAAFAguAMAAAAAQIHgDgAAAAAABYI7AAAAAAAUCO4AAAAAAFAguAMAAAAAQIHgDgAAAAAABYI7AAAAAAAUCO4AAAAAAFAguAMAAAAAQIHgDgAAAAAABYI7AAAAAAAUCO4AAAAAAFAguAMAAAAAQIHgDgAAAAAABYI7AAAAAAAUCO4AAAAAAFAguAMAAAAAQIHgDgAAAAAABYI7AAAAAAAUCO4AAAAAAFAguAMAAAAAQIHgDgAAAAAABYI7AAAAAAAUCO4AAAAAAFAguAMAAAAAQIHgDgAAAAAABYI7AAAAAAAUCO4AAAAAAFAguAMAAAAAQIHgDgAAAAAABYI7AAAAAAAUCO4AAAAAAFAguAMAAAAAQIHgDgAAAAAABYI7AAAAAAAUCO4AAAAAAFAguAMAAAAAQIHgDgAAAAAABYI7AAAAAAAUCO4AAAAAAFAguAMAAAAAQIHgDgAAAAAABYI7AAAAAAAUCO4AAAAAAFAguAMAAAAAQIHgDgAAAAAABYI7AAAAAAAUCO4AAAAAAFAguAMAAAAAQIHgDgAAAAAABYI7AAAAAAAUCO4AAAAAAFAguAMAAAAAQIHgDgAAAAAABYI7AAAAAAAUCO4AAAAAAFAguAMAAAAAQIHgDgAAAAAABYI7AAAAAAAUCO4AAAAAAFAguAMAAAAAQIHgDgAAAAAABYI7AAAAAAAUCO4AAAAAAFAguAMAAAAAQIHgDgAAAAAABYI7AAAAAAAUCO4AAAAAAFAguAMAAAAAQIHgDgAAAAAABYI7AAAAAAAUCO4AAAAAAFAguAMAAAAAQIHgDgAAAAAABYI7AAAAAAAUCO4AAAAAAFAguAMAAAAAQIHgDgAAAAAABYI7AAAAAAAUCO4AAAAAAFAguAMAAAAAQIHgDgAAAAAABYI7AAAAAAAUCO4AAAAAAFAguAMAAAAAQIHgDgAAAAAABYI7AAAAAAAUCO4AAAAAAFAguAMAAAAAQIHgDgAAAAAABYI7AAAAAAAUCO4AAAAAAFAguAMAAAAAQIHgDgAAAAAABYI7AAAAAAAUCO4AAAAAAFAguAMAAAAAQIHgDgAAAAAABYI7AAAAAAAUCO4AAAAAAFAguAMAAAAAQIHgDgAAAAAABYI7AAAAAAAUCO4AAAAAAFAguAMAAAAAQIHgDgAAAAAABYI7AAAAAAAUCO4AAAAAAFAguAMAAAAAQIHgDgAAAAAABYI7AAAAAAAUCO4AAAAAAFAguAMAAAAAQIHgDgAAAAAABYI7AAAAAAAUCO4AAAAAAFAguAMAAAAAQIHgDgAAAAAABYI7AAAAAAAUCO4AAAAAAFAguAMAAAAAQIHgDgAAAAAABYI7AAAAAAAUCO4AAAAAAFAguAMAAAAAQIHgDgAAAAAABYI7AAAAAAAUCO4AAAAAAFAguAMAAAAAQIHgDgAAAAAABYI7AAAAAAAUCO4AAAAAAFAguAMAAAAAQIHgDgAAAAAABYI7AAAAAAAUCO4AAAAAAFAguAMAAAAAQIHgDgAAAAAABYI7AAAAAAAUCO4AAAAAAFAguAMAAAAAQIHgDgAAAAAABYI7AAAAAAAUCO4AAAAAAFAguAMAAAAAQIHgDgAAAAAABYI7AAAAAAAUCO4AAAAAAFAguAMAAAAAQIHgDgAAAAAABYI7AAAAAAAUCO4AAAAAAFAguAMAAAAAQIHgDgAAAAAABYI7AAAAAAAUCO4AAAAAAFAguAMAAAAAQIHgDgAAAAAABYI7AAAAAAAUCO4AAAAAAFAguAMAAAAAQIHgDgAAAAAABYI7AAAAAAAUCO4AAAAAAFAguAMAAAAAQIHgDgAAAAAABYI7AAAAAAAUCO4AAAAAAFAguAMAAAAAQIHgDgAAAAAABYI7AAAAAAAUCO4AAAAAAFAguAMAAAAAQIHgDgAAAAAABYI7AAAAAAAUCO4AAAAAAFAguAMAAAAAQIHgDgAAAAAABYI7AAAAAAAUCO4AAAAAAFAguAMAAAAAQIHgDgAAAAAABYI7AAAAAAAUCO4AAAAAAFAguAMAAAAAQIHgDgAAAAAABYI7AAAAAAAUCO4AAAAAAFAguAMAAAAAQIHgDgAAAAAABYI7AAAAAAAUCO4AAAAAAFAguAMAAAAAQIHgDgAAAAAABYI7AAAAAAAUCO4AAAAAAFAguAMAAAAAQIHgDgAAAAAABYI7AAAAAAAUCO4AAAAAAFAguAMAAAAAQIHgDgAAAAAABYI7AAAAAAAUCO4AAAAAAFAguAMAAAAAQIHgDgAAAAAABYI7AAAAAAAUCO4AAAAAAFAguAMAAAAAQIHgDgAAAAAABYI7AAAAAAAUCO4AAAAAAFAguAMAAAAAQIHgDgAAAAAABYI7AAAAAAAUCO4AAAAAAFAguAMAAAAAQIHgDgAAAAAABYI7AAAAAAAUCO4AAAAAAFAguAMAAAAAQIHgDgAAAAAABYI7AAAAAAAUCO4AAAAAAFAguAMAAAAAQIHgDgAAAAAABYI7AAAAAAAUCO4AAAAAAFAguAMAAAAAQIHgDgAAAAAABYI7AAAAAAAUCO4AAAAAAFAguAMAAAAAQIHgDgAAAAAABYI7AAAAAAAUCO4AAAAAAFAguAMAAAAAQIHgDgAAAAAABYI7AAAAAAAUCO4AAAAAAFAguAMAAAAAQIHgDgAAAAAABYI7AAAAAAAUCO4AAAAAAFAguAMAAAAAQIHgDgAAAAAABYI7AAAAAAAUCO4AAAAAAFAguAMAAAAAQIHgDgAAAAAABYI7AAAAAAAUCO4AAAAAAFAguAMAAAAAQIHgDgAAAAAABYI7AAAAAAAUCO4AAAAAAFAguAMAAAAAQIHgDgAAAAAABYI7AAAAAAAUCO4AAAAAAFAguAMAAAAAQIHgDgAAAAAABYI7AAAAAAAUCO4AAAAAAFAguAMAAAAAQIHgDgAAAAAABYI7AAAAAAAUCO4AAAAAAFAguAMAAAAAQIHgDgAAAAAABYI7AAAAAAAUCO4AAAAAAFAguAMAAAAAQIHgDgAAAAAABYI7AAAAAAAUCO4AAAAAAFAguAMAAAAAQIHgDgAAAAAABYI7AAAAAAAUCO4AAAAAAFAguAMAAAAAQIHgDgAAAAAABYI7AAAAAAAUCO4AAAAAAFAguAMAAAAAQIHgDgAAAAAABYI7AAAAAAAUCO4AAAAAAFAguAMAAAAAQIHgDgAAAAAABYI7AAAAAAAUCO4AAAAAAFAguAMAAAAAQIHgDgAAAAAABYI7AAAAAAAUCO4AAAAAAFAguAMAAAAAQIHgDgAAAAAABYI7AAAAAAAUCO4AAAAAAFAguAMAAAAAQIHgDgAAAAAABYI7AAAAAAAUCO4AAAAAAFAguAMAAAAAQIHgDgAAAAAABYI7AAAAAAAUCO4AAAAAAFAguAMAAAAAQIHgDgAAAAAABYI7AAAAAAAUCO4AAAAAAFAguAMAAAAAQIHgDgAAAAAABYI7AAAAAAAUCO4AAAAAAFAguAMAAAAAQIHgDgAAAAAABYI7AAAAAAAUCO4AAAAAAFAguAMAAAAAQIHgDgAAAAAABYI7AAAAAAAUCO4AAAAAAFAguAMAAAAAQIHgDgAAAAAABYI7AAAAAAAUCO4AAAAAAFAguAMAAAAAQIHgDgAAAAAABYI7AAAAAAAUCO4AAAAAAFAguAMAAAAAQIHgDgAAAAAABYI7AAAAAAAUCO4AACsAAADYnuAOAAAAAAAFgjsAAAAAABQI7gAAAAAAUCC4AwAAAABAgeAOAAAAAAAFgjsAAAAAABQI7gAAAAAAUCC4AwAAAABAgeAOAAAAAAAFgjsAAAAAABQI7gAAAAAAUCC4AwAAAABAgeAOAAAAAAAFgjsAAAAAABQI7gAAAAAAUCC4AwAAAABAgeAOAAAAAAAFgjsAAAAAABQI7gAAAAAAUCC4AwAAAABAgeAOAAAAAAAFgjsAAAAAABQI7gAAAAAAUCC4AwAAAABAgeAOAAAAAAAFgjsAAAAAABQI7gAAAAAAUCC4AwAAAABAgeAOAAAAAAAFgjsAAAAAABQI7gAAAAAAUCC4AwAAAABAgeAOAAAAAAAFgjsAAAAAABQI7gAAAAAAUCC4AwAAAABAgeAOAAAAAAAFgjsAAAAAABQI7gAAAAAAUCC4AwAAAABAgeAOAAAAAAAFgjsAAAAAABQI7gAAAAAAUCC4AwAAAABAgeAOAAAAAAAFgjsAAAAAABQI7gAAAAAAUCC4AwAAAABAgeAOAAAAAAAFgjsAAAAAABQI7gAAAAAAUCC4AwAAAABAgeAOAAAAAAAFgjsAAAAAABQI7gAAAAAAUCC4AwAAAABAgeAOAAAAAAAFgjsAAAAAABQI7gAAAAAAUCC4AwAAAABAgeAOAAAAAAAFgjsAAAAAABQI7gAAAAAAUCC4AwAAAABAgeAOAAAAAAAFgjsAAAAAABQI7gAAAAAAUCC4AwAAAABAgeAOAAAAAAAFgjsAAAAAABQI7gAAAAAAUCC4AwAAAABAgeAOAAAAAAAFgjsAAAAAABQI7gAAAAAAUCC4AwAAAABAgeAOAAAAAAAFgjsAAAAAABQI7gAAAAAAUCC4AwAAAABAgeAOAAAAAAAFgjsAAAAAABQI7gAAAAAAUCC4AwAAAABAgeAOAAAAAAAFgjsAAAAAABQI7gAAAAAAUCC4AwAAAABAgeAOAAAAAAAFgjsAAAAAABQI7gAAAAAAUCC4AwAAAABAgeAOAAAAAAAFgjsAAAAAABQI7gAAAAAAUCC4AwAAAABAgeAOAAAAAAAFgjsAAAAAABQI7gAAAAAAUCC4AwAAAABAgeAOAAAAAAAFgjsAAAAAABQI7gAAAAAAUCC4AwAAAABAgeAOAAAAAAAFgjsAAAAAABQI7gAAAAAAUCC4AwAAAABAgeAOAAAAAAAFgjsAAAAAABQI7gAAAAAAUCC4AwAAAABAgeAOAAAAAAAFgjsAAAAAABQI7gAAAAAAUCC4AwAAAABAgeAOAAAAAAAFgjsAAAAAABQI7gAAAAAAUCC4AwAAAABAgeAOAAAAAAAFgjsAAAAAABQI7gAAAAAAUCC4AwAAAABAgeAOAAAAAAAFgjsAAAAAABQI7gAAAAAAUCC4AwAAAABAwY9evHjxzxUAAAAAALAVK9wBAAAAAKBAcAcAAAAAgALBHQAAAAAACgR3AAAAAAAoENwBAAAAAKBAcAcAAAAAgALBHQAAAAAACgR3AAAAAAAoENwBAAAAAKBAcAcAAAAAgALBHQAAAAAACgR3AAAAAAAoENwBAAAAAKBAcAcAAAAAgALBHQAAAAAACgR3AAAAAAAoENwBAAAAAKBAcAcAAAAAgALBHQAAAAAACgR3AAAAAAAoENwBAAAAAKBAcAcAAAAAgALBHQAAAAAACgR3AAAAAAAoENwBAAAAAKBAcAcAAAAAgALBHQAAAAAACgR3AAAAAAAoENwBAAAAAKBAcAcAAAAAgALBHQAAAAAACgR3AAAAAAAoENwBAAAAAKBAcAcAAAAAgALBHQAAAAAACgR3AAAAAAAoENwBAAAAAKBAcAcAAAAAgALBHQAAAAAACgR3AAAAAAAoENwBAAAAAKBAcAcAAAAAgALBHQAAAAAACgR3AAAAAAAoENwBAAAAAKBAcAcAAAAAgALBHQAAAAAACgR3AAAAAAAoENwBAAAAAKBAcAcAAAAAgALBHQAAAAAACgR3AAAAAAAoENwBAAAAAKBAcAcAAAAAgALBHQAAAAAACgR3AAAAAAAoENwBAAAAAKBAcAcAAAAAgALBHQAAAAAACgR3AAAAAAAoENwBAAAAAKBAcAcAAAAAgALBHQAAAAAACgR3AAAAAAAoENwBAAAAAKBAcAcAAAAAgALBHQAAAAAACgR3AAAAAAAoENwBAAAAAKBAcAcAAAAAgALBHQAAAAAACgR3AAAAAAAoENwBAAAAAKBAcAcAAAAAgALBHQAAAAAACgR3AAAAAAAoENwBAAAAAKBAcAcAAAAAgALBHQAAAAAACgR3AAAAAAAoENwBAAAAAKBAcAcAAAAAgALBHQAAAAAACgR3AAAAAAAoENwBAAAAAKBAcAcAAAAAgALBHQAAAAAACgR3AAAAAAAoENwBAAAAAKBAcAcAAAAAgALBHQAAAAAACgR3AAAAAAAoENwBAAAAAKBAcAcAAAAAgALBHQAAAAAACgR3AAAAAAAoeGvFxr777rvVaXvnnXdWAAAAAAAsn+B+DPfv3199++23q9N0586d1fvvv78CAAAAAGDZjJQ5hn/84x8rAAAAAAAYEdwBAAAAAKBAcD+GNzHDHQAAAACA/WCG+xYuXry4unr16qrl2bNnq6+++moFAAAAAMD+Edw3NJrf/pOf/GR15cqVVZPgDgAAAACwn4yU2dAouF+4cGEFAAAAAAAhuG/ohx9+eOV777zzzgoAAAAAAEJw39BohTsAAAAAAEwE9y1khjsAAAAAAISHpm7o73//+2rfZZX+X//614N/fvfdd//+/ltvvXUwHicXEC5evLgC2Fc5t33zzTcHY8AO35l0+ByXcx6na/rcef78+UufP2HfAAAAcJb4m+0W9mGGeyLHX/7yl4PQnq/XSfR47733Vr/4xS9W77///mobf/7zn3c2iie/Z37Hufy8/NzDLl++XLuQ8Pjx45di0ZUrV157HMz/m/jlL3+5ahnt22vXrtXD1Wjb5hjZ9jiZzLfTSfZbLox99dVXq13ZZH/Pj/t1x+pJzPd1tk+2U9vXX3+9+vbbb1enIcdpjtdtZJvkd37y5MlG55xst+yTbLuTnMdHx1nrvTB6n63bz9lHed2n6Tj7K68l2+np06cbff7EtvsGAAAA3jTBfUPzYLp0U2g/bvROSJpiUuLRrVu3Thw98rN3td2miwJzea1/+tOfXvpea+V+Xs8XX3zx0veyjV63fRIB57GpHdznrzlheBfBff5zohEZE9sfPXr00vdOst8SIEe/Y8sm+3t+3K87Vo8r78uHDx++9GdPYbItgXSXFy4Oy/Y8aXCfjv1NY+4kx0ney/nKz/7www+P9X7JPtjVe2H0Plu3n7NafJfH+8im+yvvg/xux73ouu2+AQAAgDfN32I3NIoGS53hnmBx//79rWN3Itbdu3cP4nCix3mW2HnaYeu8aG7bs/xw4wcPHuzdhb9dyjHzxz/+cbWthOFcYLh9+7aRWgV5D+ZYPe5FkJFp39y5c8dqdwAAAPaGh6ZuKPOA90FWpX722WfVMJeolZW159m9e/fOdMx9k7KyvXW8ntUgnbh8WiNe9kHOR43YPslFn5w3T2tV/1mVc2TOlZvE9qxa32TlevZN/kwXmwAAANgXVrhvaPSX/aWtuMss33VhPGHjgw8+OBhv8dOf/vSl3z2vLVEjkSTBafRapxCVETPnTWKn2LMbJxkHct7kvdmMy/su57h1YTznuatXrx6MdskdSIfPc7lgkW2ZFdP5Gl1Ay5994cKFnYzp2YW83pzTj+PZs2ev/BnvvvvualNH3dmVi2frLgzl98x2Hc1mz77If5f9mvPB/Hw7RfdPPvnEeBkAAAAWz99cNzSPM0v7S3+CxHwG9iQBKmNh1v3OiR/5SqTKv5d52qPInBhy6dKlgz/vJBJcPv7449U+SQQSO3djFyF5dGHkt7/97Yner/nd3vQYoWnF8BJ8+umnlYuMGVN10gtY2R+j2J79e/369SNn5WdczPTw0Rx7GVeS51zM5Tya89w+jDCZAvam8rp///vfv/S9XIhtXEjN58boAa4J9Ddv3jxyvn323/TQ2XX7Zvp+8/kXAAAAsAtGymxoHtyXFmPWjTxJSLlx48axgmMeuLluZu7nn39+bkZbJPBkFj67sYuQPHoP7POKWHdX/Me6CzQJur/5zW+O9WDa/Dc5L45Cc46h8z5C6yRGF6eynfNZcpyHyU77ZnRhd3SBBAAAAJZGcN/QPHpl7MBSZGXhKMq9bsXnUaZQMoruX3zxxeo8EDt3J8fQLrbt/FkL+/ygxbyvs6KXfxndwXPUeWoTOT+Oovs0XovNjD6Dtt03o7uycjHECCoAAACWTnDfwGjV7I9//OPVUoxWFiYkXbt2bbWNBJN1MeqsR48EpHlwO84qTdYbheTWtl366KdNZTX3/H193FndZ8m6c842QXeSc+VoNfVRwX2fL+TswpMnT175XrbpNttpmsc/NxpbAwAAAEsiuG9gtBL37bffXi1B4sNoZWFrzu00V3f0c8+qdbHzww8/XLGd0bbN8dratvPgvqQ7UY4jq7kPv6+zjT766KPVeTWK3wnlrfA9Wk193AuL5/lumJ///OcHs+CnbZh/nvTuqsNGf8b8LhYAAABYGg9N3cCS50I/ffr0le8lDjdXYCaGzsNTVjQe9SDWffbgwYNh7EwsZjtffvnlS9s2x09WKbe27Tx6LulOlE3lgsT8/Zb34HldVZ3z7yi4Nx+emeMw0Xg+IzwXFt3Z8np57ke+Isdu3oeNz4ace/PnHP4Mdh4GAABg6axw38DoIaEJAUswCu7bjpKZS3C6ePHiS99LADmLD09N7Jy/rvMcO5syRmZ+Z8Sut+2+rXAfPRg0q3wbq4X31WiVec5H7ePm8uXLr3xvNCplHSuv/yWfF83jdb6fPVcDAACApRPcNzBa4b6EAJswPP/dciFgHscbRvOjz9pYGbFzd7Jt5w/bbTxnYP4z5vbpQkney/fu3Xvpe83xUPtqFNx3Mc8+oXj0kM5R4B1dcLXyejfO4l1UAAAAnG3+JruBUXBZQgQYBZ5dxPZIjJqPW/j+++9XZ8W62Hn9+vUV2zuNkDxaYbxPsS53V8zPNTdv3jz3d1f87W9/e+V7uxrzkpA/v2sowX900S375fD+svJ6O9PFjXyuTf/MZ8xZvJMKAACAs01w38AopCxlhfvcu+++u9qFUch//vz56qwYxc7bt29bXVkw2ra7GCWz1DtRNvH48eODkTuHZRuZHz6+sLirkV6j42XdyvX8DoeP6xx/ifP22dGyzfLZkX/mMyxf+d+j9y8AAADsIzVxA6PgsoQQu+mog4bR6z0rM4vXxc5d3S0Q89E123j27NlqqTJ2aP5ar169upMxPUt9n75Ofu9clDjMKJn/GJ3ndvXeHP2561auZzX8fNxNHu4quP/HdBEiX7lTYTQGDQAAAM4awX0D8+CyyxC7VKNweRbCyZuKnfOfeRaN5rZn2964cWO1C6d5Aarpyy+/fOV3v3PnzoplS1ifv48T3HPuOO9jgBLYpwdQC+wAAACcN4L7a4zGtly4cGG1BEsddbNPHj169NJ2zIUFsbNjNEpml9t2H0fKZBvNHz6c5wZ4H//LkvdpgntGeM1nzOd5BZ988smJ767Y5zuHcpEt59TRg243kX2br1wom/736DwCAAAASya4v8Yo+CxlhfsoPAkTm0vImYehXcwWP48yoierfQ/b9badH/tLHyeTODkft3P58uXVtWvXVvzL0kdZZV8lMB+W/fqHP/zh4OLScY73fNbkwdTz8Vb7Ihenc7HhdSvas09zoSKfo1NYv3Tp0tpt9eTJE59rAAAA7BXB/TVGK9z3YUwFRxvFzswVFzu3NxrTk3nXux7TMw+xS79wkjh5WM4rWd3O0ZY0ouTKlSsHQXh+4S7vgbt37x6cUz744IOD1fCjiwcJyd98883BcxiePn26t+NX8nqPiu15/+diUrbDcS9YG0kDAADAvhHcX2P0IMalhLzRaJtdxYl9fSDlSLbRKHae5kMqf/e7361acuFgSTPh5+Et2/ajjz5a7dr8GF3K6KeRzLafr9p1d8VYzjPz81q23S621UnGdN28efPgmB/9t7nLY7rTI6/j8DF5llZtr4vt04W2bR4kK7gDAACwb/5rxZHm83ljKSvcR7/HaEV+wygOZSzAPhrNBBY7O97ktp3/3KXeifL48eNXxoZcvXr1YDU0rxodO6MLgA2j8+frLizmONtkfEzCcY7R6eusyPE8ej23bt1affzxx1vF9jBOBgAAgH0juL/GKMAsZYb76PfYVXA/K6N1xM7dyViN0Zie09i2o+NziRdQRuN2Tvvuin1zmue5Udzd5Hyfffjpp59ufXEpK8ITqvdJ5s7PZTRS432/q/0MAAAAu2SkzBESx+a3sy8ltse6EJXfuT3uJfOF57ZduXjaxM7dybZ9+PDhS987zW07GjuxxAtCozsAsjp6X8cznYbReS7no/bzFnIMb3uBNcd7QnMuPmWUTO6QOmokSuL8NNc8/12Og12t3t+FvLb5Nsv7rrVvnj9/vgIAAIB9o/IcYemruhNnEmvmD+xL6GnGqASg+c+IfQvujx49Ejt3ZBSSM9v6tFaZ78MK99xZMc3znhhl9Hp56Ghm3h+2iwuLo3NcVpwf92fkMyJfeaBq5H0xj+j5/2ee+76fe0bvu5/97GerljxMFgAAAPaNkTJHWBdgliQxam4e9bb15MmTV76XFZn7FAoThOf7U+zsWBeST/OCzGhV8JLuRsnvN4/G7q7YTLbT/FhKbJ+PhtrW6MHDUzTfxrSK/fBXvndWL/S1XlfeM+3PMgAAADgNgvsRRg9MXVLEi2kMwWFZdTiaq3sSiR6Zez7XHuewS3kN89ni2Y9i5/ayencJY3rm79W8J5YUNO/du/fS/53fLXdXsJnRhcWc444a13Ic6x78uW938Zy2Xb7HRhd6AQAAYB8I7muMxqhMI1yWJL9THvo5l8A8CkjHNRoVkqA6CmBLNQ/C2Wa//vWvV2wvK1Dn0fNNhOT5e/Xdd99dLUXGYszfQ+6uOJ7RhcUcd/O7Bk5i9GyH6WfaR0fLWJy5xhiY0UVSAAAA2BeC+xqjcQVLiniHZbX5KEbdv39/q+ieCDW6pT+xcJ/HIVy/fl1I25E3sW1Ho5+WdifKYQm5+3SHyBLkfJPzzlzOT6NYvqmcJ3P3wfw8mZ/nDpjXy8XX+WdB3o/bfO4kts/vCAEAAIB9IrgP5C/8o5EsjXm+u7AuRmW0zCgmvc60cnS0wjCBJcFwX+V33+fff8kuX778RkLy6KLQUkeBmNt+cjm2Rvs156mcr447Xibn+c8++2x4fnQHwuZGd1jlYu9Jxv0k1s8/s5Z88QwAAABGzuZT245p+st9AsHTp0/XPoxvyfN8E6MS2OfxMVHp7t27/15Ve1S8yOvPf5/XP4pQiYX7PHda7NydbNusbj8NOU5zkSn/XHcXxlLfq7/61a+E3C3cvHlzeBEx56ycu6eH9R61jRN1v/7667XPuUhAdgfC5vLZMr/LYLrYm9Fdmxzv01if+Xs555Xs0wcPHqwAAABgXwju/+/hw4fDsRSH7cM831u3bh2EqNFrScjIVwJGXsf0NYWrBJJ8rZPAefv27b2OhYl1YudunOaK4HWrkidZab/EkUfZRvndOLmcvxJxR+OyEm1zLo9cWMy/+/bbbx8cC/l3f/jhh4Nz41Errz1M+fimKD6K7tPF3jzzYz5+5vnz5wf7JRdKRp9Z0wXe7FcAAADYJ4L7BvZpZXQCxeeff7529WbixXEDxhQ+9jlWTytf6cuK4CWN6RmNuHjT3F3Rkyie89FR47JedwFxJMdw7tLY5+dTvCk5trMvRnebTBd7j+PwZ47gDgAAwL5RFl5jH1d237hx4yBKZcXhNg+vi8TLxJR9jlBi5+4sbdvmeF3ihZV9HsW0RFOQXTdS6DimZ2AYI7Od3GF14cKFtRd7N3UWPnMAAAA43/yN9gjvvffev+P1vskDXhMep9WFxw3vee2JHmdhVbjYuTvZtksIY/kdplC3NB7AuRuJ7om80ziT44b36ZhJaBd3O/J5mc+MPMT2OJ852f75zFn3YFwAAADYJz968eLFP1fnXGb6ZvxAbl1PJEgcu3Tp0l6G9nWmBwXmdeb1fv/99/9++GRWJeYroSOveakzsCGm92v+ma+E1xy3jtnzLefvnOemcTI5l0/Rd7rgkeMk/zvnOGF3t7IP8pkzzc2ff+ZkP2R/+MwBAADgrBHcAQAAAACg4L9WAAAAAADA1gR3AAAAAAAoENwBAAAAAKBAcAcAAAAAgALBHQAAAAAACgR3AAAAAAAoENwBAAAAAKBAcAcAAAAAgALBHQAAAAAACgR3AAAAAAAoENwBAAAAAKBAcAcAAAAAgALBHQAAAAAACgR3AAAAAAAoENwBAAAAAKBAcAcAAAAAgALBHQAAAAAACgR3AAAAAAAoENwBAAAAAKBAcAcAAAAAgALBHQAAAAAACgR3AAAAAAAoENwBAAAAAKBAcAcAAAAAgALBHQAAAAAACgR3AAAAAAAoENwBAAAAAKBAcAcAAAAAgALBHQAAAAAACgR3AAAAAAAoENwBAAAAAKBAcAcAAAAAgALBHQAAAAAACgR3AAAAAAAoENwBAAAAAKBAcAcAAAAAgALBHQAAAAAACgR3AAAAAAAoENwBAAAAAKBAcAcAAAAAgALBHQAAAAAACgR3AAAAAAAoENwBAAAAAKBAcAcAAAAAgALBHQAAAAAACgR3AAAAAAAoENwBAAAAAKBAcAcAAAAAgALBHQAAAAAACgR3AAAAAAAoENwBAAAAAKBAcAcAAAAAgALBHQAAAAAACgR3AAAAAAAoENwBAAAAAKBAcAcAAAAAgALBHQAAAAAACgR3AAAAAAAoENwBAAAAAKBAcAcAAAAAgALBHQAAAAAACgR3AAAAAAAoENwBAAAAAKBAcAcAAAAAgALBHQAAAAAACgR3AAAAAAAoENwBAAAAAKBAcAcAAAAAgALBHQAAAAAACgR3AAAAAAAoENwBAAAAAKBAcAcAAAAAgALBHQAAAAAACgR3AAAAAAAoENwBAAAAAKBAcAcAAAAAgALBHQAAAAAACgR3AAAAAAAoENwBAAAAAKBAcAcAAAAAgALBHQAAAAAACgR3AAAAAAAoENwBAAAAAKBAcAcAAAAAgALBHQAAAAAACgR3AAAAAAAoENwBAAAAAKBAcAcAAAAAgALBHQAAAAAACgR3AAAAAAAoENwBAAAAAKBAcAcAAAAAgALBHQAAAAAACgR3AAAAAAAoeGt1zv3xf/53BQAAAADA9n753z9bnWdWuAMAAAAAQIHgDgAAAAAABYI7AAAAAAAU/OjFixf/XAEAAAAAAFuxwh0AAAAAAAoEdwAAAAAAKBDcAQAAAACgQHAHAAAAAIACwR0AAAAAAAoEdwAAAAAAKBDcAQAAAACgQHAHAAAAAIACwR0AAAAAAAoEdwAAAAAAKBDcAQAAAACgQHAHAAAAAIACwR0AAAAAAAoEdwAAAAAAKBDcAQAAAACgQHAHAAAAAIACwR0AAAAAAAoEdwAAAAAAKBDcAQAAAACgQHAHAAAAAIACwR0AAAAAAAoEdwAAAAAAKBDcAQAAAACgQHAHAAAAAIACwR0AAAAAAAoEdwAAAAAAKBDcAQAAAACgQHAHAAAAAIACwR0AAAAAAAoEdwAAAAAAKBDcAQAAAACgQHAHAAAAAIACwR0AAAAAAAoEdwAAAAAAKBDcAQAAAACgQHAHAAAAAP6PvfuLsbM+Dzz+A9sY7MEBAx5sQoINBqpQ/ggUKexmBRdEyjZEpVWSXRoiNVJDIrW5aIiqzUUglbZVFCcXabWQVCrSQmkh2iUKrCqFiyChpUoFgiBHxfgPLiQeZhwbsGdsY2PTeQ6cYI/f9/x9zvjMnM9HGhnOzJx5z3vm6vs+87xAAsEdAAAAAAASCO4AAAAAAJBAcAcAAAAAgASCOwAAAAAAJBDcAQAAAAAggeAOAAAAAAAJBHcAAAAAAEgguAMAAAAAQALBHQAAAAAAEgjuAAAAAACQQHAHAAAAAIAEgjsAAAAAACQQ3AEAAAAAIIHgDgAAAAAACQR3AAAAAABIILgDAAAAAEACwR0AAAAAABII7gAAAAAAkEBwBwAAAACABII7AAAAAAAkENwBAAAAACCB4A4AAAAAAAkEdwAAAAAASCC4AwAAAABAAsEdAAAAAAASCO4AAAAAAJBAcAcAAAAAgASCOwAAAAAAJBDcAQAAAAAggeAOAAAAAAAJBHcAAAAAAEgguAMAAAAAQALBHQAAAAAAEgjuAAAAAACQQHAHAAAAAIAEgjsAAAAAACQQ3AEAAAAAIIHgDgAAAAAACQR3AAAAAABIILgDAAAAAEACwR0AAAAAABII7gAAAAAAkEBwBwAAAACABII7AAAAAAAkENwBAAAAACCB4A4AAAAAAAkEdwAAAAAASCC4AwAAAABAAsEdAAAAAAASCO4AAAAAAJBAcAcAAAAAgASCOwAAAAAAJBDcAQAAAAAggeAOAAAAAAAJBHcAAAAAAEgguAMAAAAAQALBHQAAAAAAEgjuAAAAAACQQHAHAAAAAIAESwsn2bp1a5mamirDZvny5eWGG24oAAAAAAAMHxPuAAAAAACQQHAHAAAAAIAEgjsAAAAAACQQ3AEAAAAAIIGbpnZo5cqVZe3atWW+vP7662XPnj0FAAAAAICFQXDv0JIlS8r4+HiZL2+99ZbgDgAAAACwgFgpAwAAAAAACQR3AAAAAABIILgDAAAAAEACwR0AAAAAABK4aeoIevvtt8vMzEzjpqyHDx8u09PTJ33NmWeeWZYuXVpWrVpVVq5cWT7wgQ+UU+HNN9884TjjZrJNy5cvbxznihUrynnnnTevxxjnMI5r3759jXMZ/193bHFc8RHnEwAAAABYvBTAEXLo0KGya9eusnv37kYgbqUZjyMqh4jHq1evLuvWrWvE5F5t3bq1TE1NnfDYVVdddUIsj2ObmJhoHGur44xjjI+I8vH1cYwXX3xx4zgHFbfjZ7366quNf1uZe2xxPHFcH/rQh/o6f3U2b97c9ph6tWbNmrJx48aWXxO/W88+++xJj8f7Ea8ZAAAAAEaB4D4CmgH7lVdeKb1qxvqI5RHdI6QOQvyMCNrtLghUiWOMoN8M7xGKs8Rzb9u2reeoHa8nzl18xHFlh/dezhcAAAAAkEtwX+QiFMf08/HrTvoRYTfCfUy+/87v/E5aNI7njaDdnKjvRzO8x6qX9evXl371cxGgSkT3WEUTk/1Z5y9eKwAAAABwarlp6iKWHduPF4E3njsjQsdzxHNlxPbjRSiP8N6PCO0vv/xy+gR5vDfPP/98SiiP5wIAAAAATj0T7otUJ7E9pqtjr3jcFDXWsBwvQnCsT4lJ7LrYHD/jxRdfbExq9yMm26t+RvOmrXGM55xzTlmyZMlvd7PH64qfH9PicZx1r7O5L77dDvIqEdvbreGJ44sbtsa5HBsbazwWryWOrXlj2gMHDlR+b/NCQ5y/eA96Vffae5meP3r0qPU0AAAAANAjwX2RihBeF2Ij7saqleNvVDpXfC52tYfJyclGfK56vuZNQdeuXVt6VRV44/liz3ndzU8jJsdH8zW0OsaI7hHDuznGeF2tYnur44vjinMcIT6+JsL7Sy+9VBne47XHe3XNNdf0fKPXqvMXFwJ+93d/t3Sr6qa2AAAAAEBnrJRZhCIW160qiVB87bXXtoztc42Pj7ecwo4wnTkVHdPoGzZs6CpAN4+xbqq722OsW0UTxxQ/p5vji/N23XXX1d5oNqbh42JBr6re62XLlhUAAAAAYH4J7otQxPSIwmvWrDnh8YjtEYp7EStn6qJ7hOzYl54hJu/nHnenmsdYFd27Oca6SfkI7N1erDheTLvXrbaJY4sLJb2oupCwYsWKAgAAAADML8F9kYooHHH3+uuvbwTsiNG9xvamCM5XXnll5WR3rJXpV1wQaK6x6VW8zrqoHcfYyZR7rKepEhcDetmLfrx4L+pW2/Q65V61qqbX9TQAAAAAQO8E90WuGaAjvGc93wUXXHDS4xGye53Qbj7vRRddVDLExYaqKfk4xnb7ySO2V023x070Xifv56rb/R7nr5fVPFXf089NWAEAAACA3gjudC1uBlqlbm98JyJo9zs9fry6OL53796W37d79+7KxyOSZ4nYXjfl3stqnrr1NwAAAADA/BLc6VpMkFcF3X6Ce2bQDnGMVVPerabI66b0Y/q+173tdepW5+zbt690I455GCbcBX4AAAAAmO1kBWrE5PShQ4caH/Hf8RFRPf6tirxHjx4tvYignTnd3hRT81UXASKqV03p110wOPfcc0u2CNTxmudOpzcvCHQasIdlul1wBwAAAADBfeRF3I1oOz093QjOEc0j+sa/3e4TP3LkSOnFoKaxYyq96mauVZE61AX37On2ptWrV9ceX6cBOy6GzLVixYoyLGJFT7dT+3H8cc7HxsYGciEGAAAAAAZFcB8xEdH37NnTiKAR1uvi83yKSfRBqAv5dWG97vGYwB+EVsfX6UWIqvdv2bJlZVg0/0KiG/F72bwQEbv4Y92Q8A4AAADAQiC4j4iImK+++mrljvJTbVAxtS6U162+qbv4MKgJ/Lop9m4C9bBPuPdramqqcaPbiO51N5oFAAAAgGEhuC9y2aE94ngE6OYu9wyD3P8dzz13NU43q28GeWwZk/PDssN9kOL927FjR+Pfiy++uAAAAADAsBLcF7Fdu3aVl19+ufSiGdab/zb3aTdj7r/9278NxTqadpYsWXJScK877qpp8fj+Qal77m5251dN6w9qIv9Ue+WVVxq/fybdAQAAABhWgvsiFVPtESjbiYAZO9Sbcf2cc87paMVL3VqWhWAxTYBX7Z0fptcXNz/tZkd/vJ5Wfz0Rv9Nxs1k73QEAAAAYRoL7IhST2q1ie3NK+Lzzzlu009BNVeG2brI8zsvcrx/khYW6qNxNMK+ahh+mGB2xPfavdyt+f+Oi0Vzxerdu3VquuuqqAgAAAADDRnBfhDZv3lz5eITc9evXlzVr1pR+dbP2pJ1hWU0ToXruxHjm68xWN92+GCb4I9LH66haiRT3I4j3ZbHtqgcAAABg4Tu9sKjs2bOnMmDHDTqvvfbalNgeqmJvrwYVteuOse5mpXUBd1AXBOqOr9O/Oqg6bytWrCiLxbp162p/X6empgoAAAAADBvBfZHZu3dv5eOxgiNr1UhmbB/E8zVV3QQ11J2HutAdE9WDUHd8nU5uV523ZcuWlcUkonuVQf3OAAAAAEA/BPdFpioOx672zL3ek5OTJdOggnbd89aF9brHp6enyyDs27ev8vG40WgnqibczzjjjLKYNG/mO5fgDgAAAMAwEtwXmar1J3Hjykx1U/S9imMeRHSvC9pjY2OVj9cF9927d5dsMd1eFY27ea+qvr9uXc5CVvWahnm3PgAAAACjS3BfRPpdUdKJmG4fxE7z7OAeMboqSNdNTIc4T1XT5RF3s49v165dlY/HXyN0qup96HT/+0JSFdfdMBUAAACAYSS4LyJ1ETJrJUoE/VdffbUMwsTEROrUcl3QbnfT2NWrV1c+nvm64zzW/ZVAp8E9zlXdBYXFpO4vAZYsWVIAAAAAYNgI7otIBPeq6H7gwIHSrwi8L7744kCm25vPnxW1Ywp/amqq8nPtgnYE+apzGBPucVEgQ7zOqvMYP7vTXft79uw56bGI7Ytt8rvuwkSne+4BAAAAYD4J7otM1Q7wiMVVgbZTMWW8efPmgd+oMqbS+43arabwOwnaEazXrl1b+blXXnml73MQx1Z3MeBDH/pQ6VTVXvnFON1e9152s3oHAAAAAOaL4L7IrFu3rvLxbdu29TSdHrG+KrbXrV7p144dO3qedI9jjGOtep0R0jsN2nEOq8J8TOHH89cF83bidUW0rxKRv9Pp9nieqp3y7dblLCTN37uqNUNxYWEx7qoHAAAAYOFz58FFJlZtRLidG50jXD7//PNl/fr1HYXZCJ51YffMM89sxOu6dR/9iigd083xMzqJ0PHaYjI+JuTr9sBffPHFHQftiPMbN25sBN+qn7V169bGeen0+Fqdy9A8n600d7ZH7K8K/vEcw7hmJY67mws9cb+B+L1qdVGj7qISAAAAAJxqgvsi1C4WR/xtBugItU0ROyMKR/Csi6Tx9VdddVV55513yiA1w3JE5Jimb041N3eUx/E1jzfWq7S64WpMj3cbaePnxjmqm7avOr7mDv04lrhg0O5chvj6OJ+tdq/HTvr4C4VW4liHUVwIydp9H+K9XEyT/AAAAAAsLoL7IhQROMJkXeiMGBzhvVvN2B6hPp4jS8TmJUuWVIbpiNZ1k+GdiDi7YcOG0ovm1HmrFTf9HF8ztnc6eV8n3pdRiNCxt73X9xIAAAAA5oMd7otUhMnMCBs3Y82Iw1UitsdzZ69EiYsOMe3fj4jug5geb1686HcXefN5Frt4L6+88soCAAAAAMPMhPsiFrE5AnmvNyENMYXd6d73fjTDcexv7+d4QxzzZZdd1piIzhDRPV5/3Q1ZuxXPFee01RqZTsRFkMsvv3wgF0GGRfxeXHLJJWnvJQAAAAAMkuC+yDVjcUTsVjeinCti7vj4+LyvKjn+eGP/eavd7HNFwG7ua+83Zs8V4feGG25o7FOP87hv376uvj+OJ85pHFs/k/wR12Mqvt/nGWbxGuO1xe/BYn2NAAAAACxOpx07dmywd79kaBx/I8/476NHj/72c80bqEYUjmni7GDdFLvj54b/+NkRs6vs2bOnccwzMzON6fLjJ8yb8Tn+jWOezzjbPJcR3uO/Dxw4cMLFgTimWJUTxxTHOMhzCgAAAAAMBwVwhERQj4+YXF8oIlQP4zqRhXguAQAAAIDBctNUAAAAAABIILgDAAAAAEACwR0AAAAAABII7gAAAAAAkEBwBwAAAACABII7AAAAAAAkENwBAAAAACCB4A4AAAAAAAkEdwAAAAAASCC4AwAAAABAAsEdAAAAAAASCO4AAAAAAJBAcAcAAAAAgASCOwAAAAAAJDjt2LFj7xQAAAAAAKAvJtwBAAAAACCB4A4AAAAAAAkEdwAAAAAASCC4AwAAAABAAsEdAAAAAAASCO4AAAAAAJBAcAcAAAAAgASCOwAAAAAAJBDcAQAAAAAggeAOAAAAAAAJBHcAAAAAAEgguAMAAAAAQALBHQAAAAAAEgjuAAAAAACQQHAHAAAAAIAEgjsAAAAAACQQ3AEAAAAAIIHgDgAAAAAACQR3AAAAAABIILgDAAAAAEACwR0AAAAAABII7gAAAAAAkEBwBwAAAACABII7AAAAAAAkENwBAAAAACCB4A4AAAAAAAkEdwAAAAAASCC4AwAAAABAAsEdAAAAAAASCO4AAAAAAJBAcAcAAAAAgASCOwAAAAAAJBDcAQAAAAAggeAOAAAAAAAJBHcAAAAAAEgguAMAAAAAQALBHQAAAAAAEgjuAAAAAACQQHAHAAAAAIAEgjsAAAAAACQQ3AEAAAAAIIHgDgAAAAAACQR3AAAAAABIILgDAAAAAEACwR0AAAAAABII7gAAAAAAkEBwBwAAAACABII7AAAAAAAkENwBAAAAACCB4A4AAAAAAAkEdwAAAAAASCC4AwAAAABAAsEdAAAAAAASCO4AAAAAAJBAcAcAAAAAgASCOwAAAAAAJBDcAQAAAAAggeAOAAAAAAAJBHcAAAAAAEgguAMAAAAAQALBHQAAAAAAEgjuAAAAAACQQHAHAAAAAIAEgjsAAAAAACQQ3AEAAAAAIIHgDgAAAAAACQR3AAAAAABIILgDAAAAAEACwR0AAAAAABII7gAAAAAAkEBwBwAAAACABII7AAAAAAAkENwBAAAAACCB4A4AAAAAAAkEdwAAAAAASCC4AwAAAABAAsEdAAAAAAASCO4AAAAAAJBAcAcAAAAAgASCOwAAAAAAJBDcAQAAAAAggeAOAAAAAAAJBHcAAAAAAEgguAMAAAAAQALBHQAAAAAAEgjuAAAAAACQQHAHAAAAAIAES2cOHCoAAAAAAEB/TLgDAAAAAEACwR0AAAAAABII7gAAAAAAkEBwBwAAAACABII7AAAAAAAkENwBAAAAACCB4A4AAAAAAAkEdwAAAAAASCC4AwAAAABAAsEdAAAAAAASCO4AAAAAAJBAcAcAAAAAgASCOwAAAAAAJBDcAQAAAAAggeAOAAAAAAAJBHcAAAAAAEgguAMAAAAAQALBHQAAAAAAEgjuAAAAAACQQHAHAAAAAIAEgjsAAAAAACQQ3AEAAAAAIIHgDgAAAAAACQR3AAAAAABIILgDAAAAAEACwR0AAAAAABII7gAAAAAAkEBwBwAAAACABII7AAAAAAAkENwBAAAAACCB4A4AAAAAAAkEdwAAAAAASCC4AwAAAABAAsEdAAAAAAASCO4AAAAAAJBAcAcAAAAAgASCOwAAAAAAJBDcAQAAAAAggeAOAAAAAAAJBHcAAAAAAEgguAMAAAAAQALBHQAAAAAAEgjuAAAAAACQQHAHAAAAAIAEgjsAAAAAACQQ3AEAAAAAIIHgDgAAAAAACQR3AAAAAABIILgDAAAAAEACwR0AAAAAABII7gAAAAAAkEBwBwAAAACABII7AAAAAAAkENwBAAAAACCB4A4AAAAAAAkEdwAAAAAASCC4AwAAAABAAsEdAAAAAAASCO4AAAAAAJBAcAcAAAAAgASCOwAAAAAAJBDcAQAAAAAggeAOAAAAAAAJBHcAAAAAAEgguAMAAAAAQALBHQAAAAAAEgjuAAAAAACQQHAHAAAAAIAEgjsAAAAAACQQ3AEAAAAAIIHgDgAAAAAACQR3AAAAAABIILgDAAAAAEACwR0AAAAAABII7gAAAAAAkEBwBwAAAACABII7AAAAAAAkENwBAAAAACCB4A4AAAAAAAkEdwAAAAAASCC4AwAAAABAAsEdAAAAAAASCO4AAAAAAJBAcAcAAAAAgASCOwAAAAAAJBDcAQAAAAAggeAOAAAAAAAJBHcAAAAAAEgguAMAAAAAQALBHQAAAAAAEgjuAAAAAACQQHAHAAAAAIAEgjsAAAAAACQQ3AEAAAAAIIHgDgAAAAAACQR3AAAAAABIILgDAAAAAEACwR0AAAAAABII7gAAAAAAkEBwBwAAAACABII7AAAAAAAkENwBAAAAACCB4A4AAAAAAAkEdwAAAAAASCC4AwAAAABAAsEdAAAAAAASCO4AAAAAAJBAcAcAAAAAgASCOwAAAAAAJBDcAQAAAAAggeAOAAAAAAAJBHcAAAAAAEgguAMAAAAAQALBHQAAAAAAEgjuAAAAAACQQHAHAAAAAIAEgjsAAAAAACQQ3AEAAAAAIIHgDgAAAAAACQR3AAAAAABIILgDAAAAAEACwR0AAAAAABII7gAAAAAAkEBwBwAAAACABII7AAAAAAAkENwBAAAAACCB4A4AAAAAAAmWFvp2YPpY+flT02Xn1sNl6rUjZee2t8rM7GMz+48VAAAAAIBhs2bt0nLBhcvK+suWl0s2Li9XXXfW7P/Lxf06bf/0gXcKXYvI/viP3iibnztYfjn7AQAAAACwkK2fDe+/95lzxPc+CO5daob2+DDBDgAAAAAsRjd/clX53BdXC+9dEty78Mj9e4V2AAAAAGBkRHT/7B+vLnRGcO/A7teOlG9/47Xy8ta3CgAAAADAKFmzdln5y+9fZNq9A4J7Gz/75/3l/r/ZbaodAAAAABhZK8dOL3/6jfHy0Y+vLNQT3Ft4+P695ZG/31sAAAAAALBipp3TC5XEdgAAAACAEz0820zjXpdUE9wr/OtTM2I7AAAAAECFiO6xipuTCe5zxA1S//avJwsAAAAAANXu//7u2Zb6duFEgvsc3/zqr90gFQAAAACghZnpY+Xb35gonEhwP07sbZ+acFUGAAAAAKCdl7e+ZTX3HIL7e2KVjF8OAAAAAIDOPf6jN8qBaRtDmgT39zwstgMAAAAAdCVWyzz+yBuFdwnu5d3pdnfVBQAAAADonin39wnuszY/d7AAAAAAANA9U+7vE9xLXIF5swAAAAAA0JvNzxtqDiMf3GOdzM6tbxUAAAAAAHrzy+cOWitTBHfrZAAAAAAAEvz8qZky6kY+uL+89XABAAAAAKA/NokI7mXnNr8EAAAAAAD9mnrtSBl1drhP+CUAAAAAAOjXTttEBPep194uAAAAAAD0Z2b6aBl1Ix/cAQAAAADo38z0sTLqBHcAAAAAAEgguAMAAAAAQALBHQAAAAAAEgjuAAAAAACQQHAHAAAAAIAEgjsAAAAAACQQ3AEAAAAAIIHgDgAAAAAACQR3AAAAAABIILgDAAAAAEACwR0AAAAAABII7gAAAAAAkEBwBwAAAACABII7AAAAUACA/gnuAAAAAACQQHAHAAAAAIAEgjsAAAAAACQQ3AEAAAAAIIHgDgAAAAAACQR3AAAAAABIILgDAAAAAEACwR0AAAAAABII7gAAAAAAkEBwBwAAAACABII7AAAAAAAkENwBAAAAACCB4A4AAAAAAAkEdwAAAAAASCC4AwAAAABAAsEdAAAAAAASCO4AAAAAAJBAcAcAAAAAgASCOwAAAAAAJBDcAQAAAAAggeAOAAAAAAAJBHcAAAAAAEgguAMAAAAAQALBHQAAAAAAEgjuAAAAAACQQHAHAAAAAIAEgjsAAAAAACQQ3AEAAAAAIIHgDgAAAAAACQR3AAAAAABIILgDAAAAAEACwR0AAAAAABII7gAAAAAAkEBwBwAAAACABII7AAAAAAAkENwBAAAAACCB4A4AAAAAAAkEdwAAAAAASCC4AwAAAABAAsEdAAAAAAASCO4AAAAAAJBAcAcAAAAAgASCOwAAAAAAJBDcAQAAAAAggeAOAAAAAAAJBHcAAAAAAEgguAMAAAAAQALBHQAAAAAAEgjuAAAAAACQQHAHAAAAAIAEgjsAAAAAACQQ3AEAAAAAIIHgDgAAAAAACQR3AAAAAABIILgDAAAAAEACwR0AAAAAABII7gAAAAAAkEBwBwAAAACABII7AAAAAAAkENwBAAAAACCB4A4AAAAAAAkEdwAAAAAASCC4AwAAAABAAsEdAAAAAAASCO4AAAAAAJBAcAcAAAAAgASCOwAAAAAAJBDcAQAAAAAggeAOAAAAAAAJlhYAAGBorDz79DI2tuSkx6enj5aZ/cdqv2987bLKxycnjhQAAGB+CO4AADBExtedUe79x40nPT6563D5wqe21H7fvf+0cTbWnxzqv/B7L4ruAAAwTwR3AAB6UjeJ3Yt209ujZGpXdRyPEH/19SvLC8/OnPS5eLwqtofpaecVAADmi+AOAEBPbrz5A+Wuez5YMs3sP1q2bTnYiMpP/OT1kZzMnp49B5MTh8v42jNO+txd3/pg+fqf7DjhvIyvW9Z4vMr2LYca5xQAAJgfgjsAAEMjprSvuWGs8XHHnePlF89Ml+/e/auRC+9xseHzs69/rphy/87fbZg9LzPvRfll5T/NXviom25/9KHfFAAAYP4I7gAADK0I7//7/11ZHrhvsjz4w6kyKh59aE+57fbzK0N6RPdPfPqMts8xuetIeeGZmQIAAMyf0wsAAAy5O748nr6+ZpjFWpkHftDfBYYHfjDZmIIHAADmj+AOAMCCcMunzy1f/traMipiHcyDPUb3iPVPPPZ6AQAA5pfgDgDAgnHbH51fPnbTqjIqYkq9m+g+s/9YuW/TxOz3TBYAAGD+Ce4AACwoX7lrdKbcQ0T3L3xqS9uJ9ReenSlf+W9b3SgVAABOITdNBQBgIO7btKs8/eS+jr527OwljZuB3njTqnLLree2/Nr4ultuPWc2QL9RRsXkrsNl092/aqyKufSKM8uGy898/3MTR8rTP9tXZvYfLQAAwKkluAMAMBBx48/JXUc6+trJcqRs33KoEY5/+pPXyz3f+3BZORvh69xy6+qRCu5NEd7jI84TAAAwfKyUAQBgqMRqlJjmbuWaG1a2DPIAAACnggl3AACGTqyieeGZmXL1bFivM75uWdmxJW+NSqxpufSKs8rY2aefEPNjSj+myre/dLBxU1IAAIA6gjsAAEMpAner4H7pbCDfseVQ6cfV168sv3/7eeXaG8Y6mpjfvuVg+cWzM+XH//Cbxu70fn923euLdTw/fmhP6UfsuY9993PFhYz4K4K54nx+7OZV5VSIFTk7Xjr5vYyd/huuOLPye+JCSLsbybZz2+x7X/W+1x0PAAC0I7gDADCUYqp8UCJG33HneGWQbiUm4OPjD24/v7Fr/sEfTPYc3iO2xzFUidfeT3C/40tryue/XP3cD5TJyuC+4cqzao9n0OL1VgXuuADwiZqb6MaFj36Ce6tzVHc8AADQjuAOAMBQGsSO9lhD87V7PliuuWGs9OsTnz63sUu+Ed5/OFWGRbzGupDMu+KvC5wjAAAGQXAHAGAoxSR5K91OlsfKlLu/9+Gup9pbiee6Yzbcjs1eHLjvuxPlVIvY/p0fbijUi3N017c+WAAAYBBOLwAAMGQiisb+7lYmf915cI/Y/p2/25Aa24932x+dX+6659RH3M/3sCZn1MRfODhHAAAMiuAOAMDQ+fLX1rX8/PYth8rkRGc73iPex2T7IFbUHO+WT59bPv+lNeVUiZ3kdfvOeVeco4x1QgAAUMdKGQAAhkZjt/ad7aPoow/9pnTq7u92t0YmVtUcf8PWSy8/azbWdzanEutlnn5y37zfcNPe9vbsbQcAYD4I7gAADMQtt57biJydiOnzy644q6MwPrnrSHnisddLJ2659Zy2u+CbzxkR/6ezzzuz/+hJn7/0ijPLbbef33hN7dzzvQ+Xr/z3bZXPMwhZe9tfeGamfP1LOzr++tiDPr62+v2ann3t3/rav5dOxV8sDJK97QAAzBfBHQCAgRjU6o57N+3q+GvvuLP9RPOjD+0p97V5zgjCm+7+VXn0H35T7v7eJY2AWycuGtx2+3nlwR9MlfkQ63cydpLHVP/xk/39iIsNEfCHRbd/5QAAAL2ywx0AgAXjvk0T5V+e3NfR18Z0e7vI+sBsFL+vi4C//aVD5Vt/vrPt9HpMw8+H2El+482rCvXiHHXyVw4AAJBBcAcAYOjFipLGhHkXu9v/oE30jjUyD/5gsnQrovsDbabXx85e0vE6nV5devmZdpK38bGbznaOAACYV4I7AABDLwL2HXeuKb9/+3kdfX2sfNnQZqr5gR5ie1OE/3ZT7oOcPI/Xd/f3PlyoF+foK3etKwAAMJ8EdwAAFoRYDxMBNfZxx01WW2k3XR4T853eeLVOu2n7G28aXHBvtbc9Jvfn64atw6zV3vY4RwAAMAiCOwAAC0pMjkdMbaXdzu4Xnu3/hp7/v80u+Yi97S4M9KLd3vaY3J+eHu3g3m5v+6Z7Xi0AADAISwsAAAzA0z/bV7a/dLCr74lIeunlZzXWgbRyzQ0ry+fvXFMerNmlHvvNW/nFM9OlXzu2HGpMkreK6vE6dmzJi9/t9rbHbvmY3L/jy2vKqGq3tz3O0QvP9H/BBQAAqgjuAAAMxNNPvjkbf98ovbjl1nPLHXeOtwzv8fknfvJ6mZw4eT3I+EVnlFamklaKxCR5q+AegTzCfIZ2e9t7vQnsYtJub/v22fdi1M8RAACDZaUMAABDJ6a0v/6lHW13bd/2R+dXPj421nqVS9bKlclfH275+cyVMq32ts/sP1a+/ic7yqhrt7f9W3/+7wUAAAZJcAcAYChN7jo8G0h3tvyamISvitqD2J3ei7Gk4+hkb/vkROv4v9i129vuHAEAMB8EdwAAhtb2lw613LcdQbvdvvaFrt3e9lir8+hDvymjrN3e9kcf2tP4qwkAABg0wR0AgKH208dbh9INV5wc3Idlkjmm9PvRyd72e787UUZZu73tcY7u27SrAADAfBDcAQAYau32pPeytmV87bKSodUKk1B1Q9dutNrbHmJv+8z+nH30C1Wrve122wMAMN8EdwAAFp3tWw61/Hy7UN6JmKxutyt+uo8Y3n5v+5S97fa2AwAwZAR3AACGWi8T7Du2HGz5+RtvWlX6dfX1K1t+PmL7jjbhv06E/FY7yV94dqY8OBuTR5nd9gAADCPBHQCAofaxm1vH8aop8l+0uNFqiBUk7YJ5O5+49dyWn48bvvaq1UWG2Em+6Zu/KqOu3TmKvwAAAID5JrgDADC0Ym1Lu7C9oyJsx2Ptdpvfdvv5pZ/juvqGsZZfExPWg3Dvpl3WpLTxrT//d+cIAIBTQnAHAGAorTz79MYNMdup2tceU+8/fax18I796L1OuX/nhxvafs0LbabsexFT2//y5L5CvThH2186WAAA4FQQ3AEAGDoxQR5Ru93NTSO2102yP/2z9mH67u99uIyvXVa6cdc9H2yspGklptuzJ6xjTcqo721vx257AABOtaUFAAAGoNs96XGj0AtnQ/vHblpVrmmzrqWp1U0xI77GlPnVN9QfQ+wB/1//tLE8MBtpf/zQntJKvJbP37mmo2PL3h8+s/9Y+fqf7CjUs9seAIBhILgDADAQd9w5XsqdZWAisLZb27Lpnl+Ve//xskbMrxPR/St3rSt/cPv5jZut7njp4G/X1MRFg7GzT+/qIkDE9uzpdnvb24uLJs4RAACnmuAOAMCC1Elgndx1uBHAv3zX2tJOxPVPfDpWxZxbejWItS+PPrSnPPHYYG7AuljEe+wcAQAwDOxwBwBgwekmQsfamR+3WD2TJWJ79tqXeM4H7CRvyW57AACGieAOAMCC8sRjb5T7Nu3q6nvu3TQx0OjejO3ZK03iOetuCovd9gAADB/BHQCABSMm2zfd/WrpRUT3B5NvZhpi3/sgYvsgdsEvNva2AwAwbOxwBwBg6L3w7Ey57zsTZftLB0s/ItD+9LHXy3d+uKGMr1tW+hHT1bGuZhArX/7lZ/usSWnjiZ+83jj/AAAwTAR3AACGSoTsmFretuVg2bHlUCOQZ65ViRupfuFTL5Zbbj23fOLT55arr1/Z1fc3Q/v/nf0YxLqXWE8T0/jUa5yj7zpHAAAMn9P2Tx94p4ywP/z4tgIAwOgaX3dGI7rfePOqMnb2ksb/j699d/p9cuJI49/ts/E/Qv3TT+4rLzwzUwAAgGr/56nLyigz4Q4AwEiLkP5EfDz2egEAAOiHm6YCAAAAAEACwR0AAAAAABII7gAAAAAAkEBwBwAAAACABII7AAAAAAAkENwBAAAAACCB4A4AAAAAAAkEdwAAAAAASCC4AwAAAABAAsEdAAAAAAASCO4AAAAAAJBAcAcAAAAAgASCOwAAAAAAJBDcAQAAAAAggeAOAAAAAAAJBHcAAAAAAEgguAMAAAAAQALBHQAAAAAAEgjuAAAAAACQQHAHAAAAAIAEgjsAAAAAACQQ3AEAAAAAIIHgDgAAAAAACQR3AAAAAABIILgDAAAAAEACwR0AAAAAABII7gAAAAAAkEBwBwAAAACABII7AAAAAAAkENwBAAAAACCB4A4AAAAAAAkEdwAAAAAASCC4AwAAAABAAsEdAAAAAAASCO4AAAAAAJBAcAcAAAAAgASCOwAAAAAAJBDcAQAAAAAggeAOAAAAAAAJBHcAAAAAAEgguAMAAAAAQALBHQAAAAAAEgjuAAAAAACQQHAHAAAAAIAEgjsAAAAAACQQ3AEAAAAAIIHgDgAAAAAACQR3AAAAAABIILgDAAAAAEACwR0AAAAAABII7gAAAAAAkEBwBwAAAACABII7AAAAAAAkENwBAAAAACCB4A4AAAAAAAkEdwAAAAAASCC4AwAAAABAAsEdAAAAAAASCO4AAAAAAJBAcAcAAAAAgASCOwAAAAAAJBDcAQAAAAAggeAOAAAAAAAJBHcAAAAAAEgguAMAAAAAQALBHQAAAAAAEgjuAAAAAACQQHAHAAAAAIAEgjsAAAAAACQQ3AEAAAAAIIHgDgAAAAAACQR3AAAAAABIILgDAAAAAEACwR0AAAAAABII7gAAAAAAkGDkg/uKMdccAAAAAADo38jX5jHBHQAAAACgb2suXFZG3cjX5ks2Li8AAAAAAPTngguXllE38sH9AlddAAAAAAD6tt5ws+C+fuMZBQAAAACA/lxymeA+8sH9ox8fKwAAAAAA9Ocj151VRt3IB/eVY6f7RQAAAAAA6ENMt69Za4f7yAf38JFrBXcAAAAAgF596jPnFAT3hk999pyyYsypAAAAAADohS0i71KZy7trZVyBAQAAAADo3k2fXGWdzHsE9/eYcgcAAAAA6N7n/nh14V0K83tMuQMAAAAAdCdiu+n29wnux/ncF1eXSzYuLwAAAAAAtHbBhcvKZ79ouv14gvscf/E/L7RaBgAAAACghWiof/n9iwonUpbnWLN2WfniV88vAAAAAABU+7P/MW6VTAXBvcLNn1xVPmvRPwAAAADASWJv+0f/y8rCyQT3GrHPXXQHAAAAAHhfxHZ72+udtn/6wDuFWv/61Ez5m7+aLAemjxUAAAAAgFEUO9u/+GcXlJv/69mFeoJ7B6YmjpRvfvXXZfdrbxcAAAAAgFFyyWXLy1/81Vo72zsguHfh4b/fWx65f28BAAAAAFjsYqr9U585p7F+m84I7l2KafeHZ6P7k/+8vwAAAAAALDbN0B4fK892G9BuCO49ivD+y+cOlsd/9GbZue2tAgAAAACwkH3k2rPKR647S2jvg+CeoBnfX952uOzc+lbZ/dqRMmXfOwAAAAAwhGKCfWz248OXLS9r1i4r6zeeUT76n8dE9gSCOwAAAAAAJHDJAgAAAAAAEgjuAAAAAACQQHAHAAAAAIAEgjsAAAAAACQQ3AEAAAAAIIHgDgAAAAAACQR3AAAAAABIILgDAAAAAEACwR0AAAAAABII7gAAAAAAkEBwBwAAAACABII7AAAAAAAkENwBAAAAACCB4A4AAAAAAAkEdwAAAAAASCC4AwAAAABAAsEdAAAAAAASCO4AAAAAAJBAcAcAAAAAgASCOwAAAAAAJBDcAQAAAAAggeAOAAAAAAAJBHcAAAAAAEgguAMAAAAAQALBHQAAAAAAEgjuAAAAAACQQHAHAAAAAIAEgjsAAAAAACQQ3AEAAAAAIIHgDgAAAAAACQR3AAAAAABIILgDAAAAAEACwR0AAAAAABII7gAAAAAAkEBwBwAAAACABII7AAAAAAAkENwBAAAAACCB4A4AAAAAAAkEdwAAAAAASCC4AwAAAABAAsEdAAAAAAASCO4AAAAAAJBAcAcAAAAAgASCOwAAAAAAJBDcAQAAAAAggeAOAAAAAAAJBHcAAAAAAEgguAMAAAAAQALBHQAAAAAAEgjuAAAAAACQQHAHAAAAAIAEgjsAAAAAACQQ3AEAAAAAIIHgDgAAAAAACQR3AAAAAABIILgDAAAAAEACwR0AAAAAABII7gAAAAAAkEBwBwAAAACABII7AAAAAAAkENwBAAAAACCB4A4AAAAAAAkEdwAAAAAASCC4AwAAAABAAsEdAAAAAAASCO4AAAAAAJBAcAcAAAAAgASCOwAAAAAAJBDcAQAAAAAggeAOAAAAAAAJBHcAAAAAAEgguAMAAAAAQALBHQAAAAAAEgjuAAAAAACQQHAHAAAAAIAESwt9OzB9rPz8qemyc+vhMvXakbJz21tlZvaxmf3HCgAAAADAsFmzdmm54MJlZf1ly8slG5eXq647a/b/5eJ+nbZ/+sA7ha5FZH/8R2+Uzc8dLL+c/QAAAAAAWMjWz4b33/vMOeJ7HwT3LjVDe3yYYAcAAAAAFqObP7mqfO6Lq4X3LgnuXXjk/r1COwAAAAAwMiK6f/aPVxc6I7h3YPdrR8q3v/FaeXnrWwUAAAAAYJSsWbus/OX3LzLt3gHBvY2f/fP+cv/f7DbVDgAAAACMrJVjp5c//cZ4+ejHVxbqCe4tPHz/3vLI3+8tAAAAAABYMdPO6YVKYjsAAAAAwIkenm2mca9LqgnuFf71qRmxHQAAAACgQkT3WMXNyQT3OeIGqX/715MFAAAAAIBq939/92xLfbtwIsF9jm9+9ddukAoAAAAA0MLM9LHy7W9MFE4kuB8n9rZPTbgqAwAAAADQzstb37Kaew7B/T2xSsYvBwAAAABA5x7/0RvlwLSNIU2C+3seFtsBAAAAALoSq2Uef+SNwrsE9/LudLu76gIAAAAAdM+U+/sE91mbnztYAAAAAADonin39wnuJa7AvFkAAAAAAOjN5ucNNYeRD+6xTmbn1rcKAAAAAAC9+eVzB62VKYK7dTIAAAAAAAl+/tRMGXUjH9xf3nq4AAAAAADQH5tEBPeyc5tfAgAAAACAfk29dqSMOjvcJ/wSAAAAAAD0a6dtIoL71GtvFwAAAAAA+jMzfbSMupEP7gAAAAAA9G9m+lgZdYI7AAAAAAAkENwBAAAAACCB4A4AAAAAAAkEdwAAAAAASCC4AwAAAABAAsEdAAAAAAASCO4AAAAAAJBAcAcAAAAAgASCOwAAAAAAJBDcAQAAAAAggeAOAAAAAAAJBHcAAAAAAEgguAMAAAAAQALBHQAAAAAAEgjuAAAAAACQQHAHAAAAAIAEgjsAAAAAACQQ3AEAAAAAIIHgDgAAAAAACQR3AAAAAABIILgDAAAAAEACwR0AAAAAABII7gAAAAAAkEBwBwAAAACABII7AAAAAAAkENwBAAAAACCB4A4AAAAAAAkEdwAAAAAASCC4AwAAAABAAsEdAAAAAAASCO4AAAAAAJBAcAcAAAAAgASCOwAAAAAAJBDcAQAAAAAggeAOAAAAAAAJBHcAAAAAAEgguAMAAAAAQALBHQAAAAAAEgjuAAAAAACQQHAHAAAAAIAEgjsAAAAAACQQ3AEAAAAAIIHgDgAAAAAACQR3AAAAAABIILgDAAAAAEACwR0AAAAAABII7gAAAAAAkEBwBwAAAACABII7AAAAAAAkENwBAAAAACCB4A4AAAAAAAkEdwAAAAAASCC4AwAAAABAAsEdAAAAAAASCO4AAAAAAJBAcAcAAAAAgASCOwAAAAAAJBDcAQAAAAAggeAOAAAAAAAJBHcAAAAAAEgguAMAAAAAQALBHQAAAAAAEgjuAAAAAACQQHAHAAAAAIAEgjsAAAAAACQQ3AEAAAAAIIHgDgAAAAAACQR3AAAAAABIILgDAAAAAEACwR0AAAAAABII7gAAAAAAkEBwBwAAAACABII7AAAAAAAkENwBAAAAACCB4A4AAAAAAAkEdwAAAAAASCC4AwAAAABAAsEdAAAAAAASCO4AAAAAAJBAcAcAAAAAgASCOwAAAAAAJBDcAQAAAAAggeAOAAAAAAAJBHcAAAAAAEgguAMAAAAAQIKlBQAWiJVnn15uvOkD5errV5RLrzirjJ29pIyvO+OEr5ncdbi8Nvux/aVD5YVnZsqOLQfL5MSRAgAAADBop+2fPvBOGWF/+PFtBYDhduNNq8rv335e+Q/27j/WzrpO8PijDijTC6KLtHVgkQJi1gydGZpJwHUDyRYzGzDiZH6grcma2B+bzPxhi5P9R1qTnT+mt/PHbiIVkt0EEJ3dCEY0m4E/ZGKAZIOzUyabWKBdiZVS/IHCraCsuufztA9eLuc8v87n3Hvuua9X0nG07e25z/Oc59zz/n7P97t5y1zRx+HHF4qHHnhh8OsnBQAAADA5X/nW5cVaZoY7AFPrqqvXFXv3X/SGWexdRaiPX9t3ri9u/dQxM94BAACAibCGOwBTZ/27zyr+5o5LiwN3bho7tr/+655d3PWN9xXbdlxYAAAAAGQzwx2AqRKz2vf97SXFunPfUkzK9l3ry/+8547nCwAAAIAsgjsAU2PrjecXez93cbEcRHcAAAAgmyVlAJgKl733bcsW2ysR3WNGPQAAAEAGM9wBmApHn3yleOiBF4qtN72j8c+eeulXxYMP/Lj8Oyef/cXrfu+y955TXHv9ea1D+rad64vP7DhWAAAAAIxLcAdgaszfdrz8z1HR/eSzrxbz+75XPPH4qZFfI37v/nt/WG6QeuCOTeUGrHU2b1lXxvknvn2qAAAAABiHJWUAmCoR3YcF9fvv/VGx+5anamP7YjHz/RM3fqecNd8kZsQDAAAAjEtwB2Dq7N/zTHHsyCuv/fe7v/B8cWj+2eLUS78sujo0f6Lx72167zkFAAAAwLgsKQPA1FkYBPJbdxwrl4R55OEXi3u+cLLoK75WLDETa7WPsqFh2Zku1m88q9h05Tnl11x37lte93uxJE7MvD/65MvlOvQrIR7fVVvmirlz3/y6x3f0yOn18I89+UqxEkY9rhgsice2kseMN2o6X3EtnTzxarFWjboPxLGJY2QJq+HWDa6n2IcjlgRbvBzYSt8H4nGt33h2cdmV57xhmTLn9Deq635ucM0vPU7T8PrHG3ntBYDJENwBmEpVdF/oMat9qaNH6iPy0jDeVawBv/Wm84sPXP/21l/r6JGXi8ODQPPVL/6wd5i87L1vK64ZsRzOo9988bV4Hn/u3374HcWHbnpH4+OLIHL48VPlUjyTDkhdj1vGMQt1xy3LQ1/7yeAx/uIN/3t8vxETh4nr9LHBAFNfEQVv/tgFRZfH00XX81VdSzFg1uV8bdt5YbESIggOW4IqwuGofSUWn7Py+N9yQXHD4Lk26hxXImb90+MLg3/vJ2Od8zDJa6rue29zTd38sX8x8lq55wvPv/b/X3vdecVHBn928yD8NYn7QAyixvJikxzUifN5w+B7v2bw2No8rnC4PKcvlOd1XHXHrosqnMZr6SQGVOO+EPfTDwyOU9N1X4lzGI8pzmPXx7Sa7g8hrtNpG4xZqdfeUeomKvQR1/pX7/1RAQAr6U0vLfzs18Ua9scffLoAYLbFm8sDd26q/TMf+oN/Lvp83Xjz3zbGjPLg117oHCXD1kHY27vvoqG/N3/b94pHB6Ft+471xc0fv6Do45FBtP/C/LPpb7AzjlvfYxbqjluWGCwatt/AgTsuLWcTDhPf08F9x4u+du3ZOPJcj3o8bSz3+fr7f/zdYiVEUPrMp4694X+vu39U52zbjguLjw6OfZ9YFAMT5d4VPaPcJK+pPfsvKqPzMG2uqbu+cWU5M3yYuOfGsd07+DfahtrF4riV19UdzxeZqoGTvucz67HVHbu++g6CDROhec/gPjru618MUhwcXP9tH89quj+EuwfHevHg0koa5/lWGee1d+ljiYGaNhMBujq9h8+RAoCV9ZVvXV6sZWa4A7DmxZuzrrYPAtu2XeuLDDEjNjZuPXTgRPHQ15s3eW0jlmXYvnP9WG+sPxCzFge/bh9E94zZYhGy9u67OGWT2jhmm7esGzy2E2PPEJ4FMRu278DKKHG+xhmwWSzOV/y6+9DJ9EC6kuL59fkvXV4uNTLO14hgN23HJu5xN9TM3M34+uPcQ+O4bR/8/biubh2E0IyBwYwgOanHliEe1w0fPru8d0YI7jsTf+uN5xe7b313SiiNYH/XN943c/eGaZL92htfJ66fPj8XZL6uAMA0s2kqADMvZjTXea5jDMmM7ZVY83bv5y4ahIycwBVvZseNRpXde99dzuAdR8yGvP1LV6S84f/N1zy72Pe3l5RLUaxlcWy378y9HuNrxh4K2VEkImTMxJ8VES7Hie2LxbG57eAl6bM9+4jzn32PWyrr61cDFpve+7ZiHHFfj6+Tdd8M5YDMl69Iu69nice1d//Fve7rcZz2fu7i9Os0rv9xX2d4o0m89sbPK31+Lqgei9gOwFoguAMw0+IN3uar19X+mee/336G+yRi+2K7bt04djiahHFiSBVvM0PWYvHGf9qC1nKJ2YJxbDPjV3W+skLyUhFbZim6Z4ootnuFj011/leTKrrHWtB9TPK+nj2Yminu610GLK+57tyJvv7F44k188kx6dfeLj8XTPqxAMC0EdwBmFlt3+A92nJJkthsc9KzPiPO7BoE5GkUb667RqMqCE/6TXYMVPSNbatZfDQ/+9jGLOtJn6+I7mv9kwmjxCdyVnJAYtvO9asyisW9M6J718GnWI5p0vf1ENF9KgdTB+e7zTGL19Pdy/DaFEv6TMOnPFa75XrtbftzwXK8rgDANLGGOwAzp8umdyeffbV1cL/tby8p2jr25CvF00deLk699Mvyv8cbzQ2DX22CSyxTEWsJ991EcZRTL/2qeOThnxbHjrxSLCyceVyDSB1r6F7V8CmASoTtR//hxde+r8Y/Pwg0bd5kL35sJ0/8olhYdNziEwpXXT1XBp9RIrbt2X9x8Zkdx4q1YhLrtsdM3y4z22Nt6sV7ILS9jsp/axD6Hvvmi1OzvnWWuJaPPvlyuRlk9b3F8yyO67UtZ+/GeY37UvY9oMmk121vEt/v0cF9M+7LcY+am3vL4Li9rfH5XynXTh98D4cOnija6LocU5zbxfenuO90ieixBNbuW55uff+sE2to14nrLfbyaDpu8T1sven8xvW4uwzExHUf13+f1794PHFvm5aNRlerroOxi+/lXa/rpp8L4ny2eV2J59fhby+Uj2Oh4Tny0Y9dYGAGgKkmuAOw6iyNetWbyk2DMBOz0CMgt/XgA+02KY0g0fTmNd4s3n/vD4v7Br9GvfGMrxGzV5vWU906iF5Zsa3pcUXYKEPVzgvLf7dOvBFvG7QiLraJd/Hvjz5mp4qHvvbC6c3+Bl9r287RH1+PgYo4T303AqxE6FwYM4gtJAS1OpNat73NTN+66ykCSJz30xv2Noe+CMuH5l9/Ld3aYdAkrom6aza+dsTvNjIi6P2DaBkhtO7533QdVyJwLucA0nJ8gmeUo4OBtkMHny2eeHz0PS/Oc5vrqstgRdyL20S7+FpxXkc9vnhsEQDjNahO1wGBOm2D9M2Dx7Vrb/0nJiLM14lj3vZeXg2cDv867V5n4h4y6vtbzfeH5RLnq81gbAxsxb08fg4a+15eM0gS12CTpnvnUrF5q+AOwDQT3AFYdWLZgAzxZjNibhvXXv/2xq9166eOlbMf6//cL4r9e54pdg8CyEdq3oRGkD+4rxhbxNF4XE1RIR7X/G3Hy++jKQbGG/m773i+8Y1xU+SJx7Zvz3drI9vix1fN6Kx7fFtveufYwT0CRJvHtFImsW572NYi4EcYjeA16tzH//7QIN48Ngiee/Zd1Gpg6e4vvP5a6nLsm2bUx3W/XOcy4l1cO3Wq6zhmcTctnTGpT7oME0Gtyyd4MsWnHA7sO954P4nrKo7FvoOXNIbtNoMVcWyb7utt71Hx2OJXxMk298+4Tpbrkx3xb80N7hl1z++m2cdNwTReN/Z/+pm015l4PPGpkGHHaLXeH5bT3sG9t0m8Tt4+/2zjvTyec20mCcQ1EtF86deLc9A0WSFeA+5p+MQGAKw21nAHYM2KN5tNgbxSBZUIBUu1je2LLY2MS8WMsYw1ycu413IGX/Xnv9oQDcPNDetvt3uTfbJz7Gj6O1WknGVtl+npos0M1vI6r4nti8UM/xhYevSb9cs1VctZrHYRmu5v8bypxAzs2+ebZzlv27k8M8537cm/ptqIayqOQ9tZrRFs4xocdh9eLO4DTQNS21t8yuDAbd/rdI+K+1ObmefZS0E1OdzwPUSQr/PgIM6Oev0LbWL7Ym3u/ZPatHnWxb38qoZP+cV5nB9c222ed9UkgScar6G3lJ+SWeqqLesaH4vYDsAsEtwBWJMieD/Wcu32EOEwZuZ94sbvlMFncXw4PVuxfWwPESSblrNZd954M5irj4t3FQFs1JIAlaYZj7HxY53D3z7V67GFprWLm2birWYx0DGJNbbbfM0YVOq6rMLBhpnLMYM1ZhGvZuXz7Ivdr+W4hzQNSLQJx+OKJU5W6jkTz+U+986IhU3qBgXbRMn49FOX14hKm5gcn+xYzuUwxp1Nf+zIy6+9/v2HW54qv8fYpyTEceoS2yuPPvzT2t9fd663qX20GaSLe3lX8w338rge+lzT9937gwIAZpElZQBYc2JZjIe+9uOir4gpVVCJDf0WXuwXDI8+WR+158YMMnePMWss/m7dEhPx2OqWu/hAw+aQX/1iv9ge4t+MN/6j3tzHurOH5sdfI3naRCSM2e2T0LSZZ8zI7hpGQ8TRGFipIlC1OW6cw4jNq2ld5FGeKDdH7X5sQizN1LzsTvOGln2t5Lrt5ZJeLffQWCqun7gH182ejY1Wi2L4bPM2m9fePcamnXH/PLBl9NJn1Wzg5doUtyleP9chyMfrZ/yq9v7ou1/Fow+/NLifjf5963P3s7nhE14xQNLnfhUz3SdxLz/W8HMQAKxWgjsAa05E8ru+8b7i7kMni3vu6B9VwtEj3d4sxjIxm648p9jw7tP/OUnjrE3bFLVDrKM8LBhFiK/7exFoHu0xc3SxRwZ/f9Ss7IhA8e/PQsytVOu2jxLxo++M0Ih/Tddi270OhonlVhYGj++Jby90fr6sBg9+vf+xiZnDTeG4aUPLvprWbY8g3rRZ4jhioGIcMUO67rhVnw4Ydh9oCu59o2SlzYBADLQsV3AfttTHYnEd9hERtovq9a8csG1YamRuRoJ7rOvfdoPrOJ7PDX7FYHzsbdD1+ojX5Kaloca5X/W5lzc9nrk5AysAzCbBHYA1a/uu9eU6sfMtNuzratMgcJQbvw2CVUSGzVvmyoCwXLP24s3wOMEoonhd1A6jQuBlDRsaHk2Y0VYGoprHFsf92JHZCe5167aXGzt++pniwJ2XFn1saohxYZwBkmqW+6wad9PFNuF4EurWbT+9xvPx3tdUG+MOusWmj02f+Bh1H2haH/xwQgiPKNk8A3/yIrbvbjhO938x9xMUrxtYPvNauOHMQCijxfMxfsXPCx/92AVlgH9wMPjTdmLAho31cTvuxePcr/rcy5sGZS6c4KAeAKwkwR2ANS1mGe5+aWMZ3fuKmcXXXvf2cnZZfJx7GjZ7Gye2V5qi9qjvs2lGWxyjv//H3y0mKSLTsRmZTd20bnufdbAXaxogObxMs3BXo4wZ+01fYxKbmTat2z7uNdXGc2N+/Yh/8RjX10TGYfeBNgOffdYkf8PXaDyv44XGus2h45qJjVDjz1x7/duLOjFreZxzHa9/Mfh6zeB6iuN9+eB1QVjPEecxJgbc8OF3lIOqTcuvbFqGwe6umvYPuOGmd05sySwAWEmCOwCrzof+4J/L/1wcLKqIUi6PcWZG3ear51otsxEbfB7+9kI5Y7KLWFs5Nr/bvGV5Zip2cfTI+MGo2hR2lFHB6LIWM6YnbVaCT9O67bH0Rcw4HCfKNv3dWVqaJ1tGlG6zoWXMGB5348tK07rtEWBjbfVJhP7Fmu4vbUTUrgvuw76HNjNqMwbr2uzRMc7SVwfu3FSMK17zDs0/W/QRMX/bzgsF9mUQ1/HtX76imP/s8eKhmiVhmp6zxxJ+LuiqaUZ9DPhuGwwAjru8HwBMG8EdgFVrcbA5Wfzm/48NvCoRxGP91KbZhPFn2gb3a647t/yI/qSD1Di6rq07zKQ3dZ2kWVj/t2nd9rj+bz84/uawjbN9VyDSrBYLL44/GJHxXG2rzbrtfQNsVxkDOU0bdg67DzStGZ11Ptp8f3Nzb16RAa1Yhio+xdBnqacqtE/jQPOs23XrxvLTF6Nmuje97i2swLUWz6cYwKqbfR+z+OPnqXvKT9bkDCwCwEoT3AGYaTFTMzYe23fwkto3fPFmL0JC3SZlEUC371hf3PzxCwpGW/870zsQsZrsahjUufVTx8w+XyPiOZURourWbY8IG9fULFm3ghsyLkzxc/O5Z38++L+/7vzJiVjeqmndfCYngnoc/8/sGP48jQGcafTg4OewXVdurP0zsWxO/IoB3jaDvDZbBWDaCe4AzLyYYXXr4A3qXV+/snY2b6xpXBfc9+67uHbd406PaRA5Tr34y8Y1V1mbmtdtf37ia2wzW6Zh3fbldmrBgNQwseRa/Ip4e/ehk62W84jrp24poi5icCeutU1TsPzYpMXz6p4v1B/fWFYlBsJu/tgFtWvzh9hEedTkgIWFXxXTKD5JEa9nbX7eqa5NAFjtBHcA1oSYbRizrOIN7Sh1s4mbYtUoERbiI+DlrK0nXynXUH3u2VfLmcmxdvzefRcVk5Cxpm7MfuwjBhKKmslscUwWJhzC4t9YrZrWbY/QEh+9X7bHs9EnFlbaye+PF8Kb1m2v9gJYbSaxhEbWeuRtlhybhkC6/cx1URfdY7+SPrG9CuuHH18olys6/Vr4Svn6F/H19i9dUXB6L4L4FcvhxfJ2sWRPnVgqb2hwn+JPVezb80y5RNq4mwUDwGohuAOwZjStST4qLMYbxLaxIQLDgw/8uPy3njgTGUaZ5Me/NySsL98Us0atdfzciVcHMWX0DLX77v1B44y/tarNuu2xcV6mpjWr587z0f1RMpZPajPrc5ww22bd9rtX4PmYsRFs0z10WIBs+jfH3cy00mbAcpx/o+7TWJX4XuJ1rWnz8IjuMQj61Xt/NPz3d7Z//Xvk4Z+Wj6359c99ZZiYET83OF8fqZkcELPch2m6nlZy8LT6pKHoDsBaIbgDMHXiY+bHGuL4cqpb2qNSbmA5/2zx2MMvFm2tm+DGnhkbul61pf6j7c+NCFcLU/ymf9o1rdse11j2sh9NAbJpiYO17LKEJTE2NDwf4vk0TpitW7c97P/0MyuylEwsGzFucG9aemLY60ibTVHjvLYJ2rVfo2EgJWY0j6PLevtxL48l0epCZ7Vx+NJr7drrzmt8PYnQHp+QuG/wq+21OgsbW09KDIDFLPZRPyPE+Rg2KNR0bW/esrL38iq6b995Yfn9AcAsm86dVQBYs7btuLC4/ctXTCTyNc6GHLHMSQSHOhEpdt/yVKfYHia5TmnG8WuKicdGbGx2rGHDs6x18GfNBwbHpWnd9q7XWBtNG9SdniVrRuIwGcfmmobnw9ExBh/jmqpft/35cpmPlTDu/hVxj2satDz5/eFBv+kedVVCmLxqy1zt7y/nIMcTj58qQ2ddDI9redg9v/H6HAwc7P7zp8qZ2V0GhsxyHi0G2Ro/eTTk55mmQZwq1K+k+L7mbztefOLGI4Pn4fRMrACAbII7AFMh3uh//kuXv7aebN0a1n01BZBRsaBueZRyiY/bvtdrBuplE9wwLuLJONE9YkjT8YqIM8zhhpmh4z620LREwmpUF0LiOpvUuu3HzqypXCf2G+grzvXOvRuLawYDV7O4SeI1Yw4gbW54LjTF4Tp119Ry7wWw1FVXzxXjaLom4zkzKmo33aPq9vpoI+6fTQO1sV73corQ2bRO/7BBkMsbnrN9PyHRdHzWuqd7DLTFJzqa7uWxIXdf11x37mv38nEHGq+6+rdrB91i8CAGcUb9GnfJJwCYNEvKALDi4g3g0sAeH8fftWdjcejgiSJDmwAybKZv00fpY732PiJCZiz7UifWgO27LMK2Fmv2jopWVcCti33x9T+zo/2SCEtVm+0dHkT/hx54YezlH6ZZLNfQZfmIPh55+MXa2fURIO+/90e9IsfNH7+gfO599EzEjK/xT48vFP88OGcRVVb7ubv2urePXPu6SWxG2XQfeHQCn2qYxF4AXcXyFnEf7HP+437eNFARa4iPErG7LqrHoGBExb6fKGlz/xw1YDlJTTOgh+39UXd9xrXZJ7a3GdBd6zb0CNoxMz7Ocd0nNMa5l8c9PM5bdS+PQZynBz839bmXN+0L0DSQc8OH37His/UBoI4Z7gCsmHjT/Td3XDpyNnuEulhiJsOefRc1/pk+4afNesDD7N3f/HjGFctJ9JlRHOelad36CC11b9ibZlJGbLum5wzH7YNrIiJQ/Io33Qfu3FTc9w//qvjswX95OmDO2PInk1i3famHvvZC7e9HgNze47kYoX3pQFdEkg9c//byeR/nbtfejcVq1vdajk9pNEWnCOOTCLMxQ3Ql1m1falvLzTiXuuHGdzQPhn599DUd9/qm4Lh7cF32CXpt7p8xWDkNx7+NumOw8GK/WcZ9z/ta0WZAYtRGyo8+/NPav9f3Xh6vrUsfUzwHF9/L267LXr2GjxJLXa2W5wcAjCK4A7BiIkpsbnhTGUvMRCwfJ6LuHfz9pn+nb9jqsw5705vNTHv3X9wpGkUEPHDHpsY/17Qcwv0tZvzGoEPXAYE4dtt2vTHWVBE3vt8Dd15WzIo4jjGDf9LaBMiuA2ARjdrE9Pu/2G92+DSJa7nrPer0Jpb194H7Ggau+oiYtRzXVBsxWPGRjktcbL3x/KH3gMXa3M+bBgXj3MS9sMv9M675NvfPpgGuSWla/mjYhtd194U+r2PxibYbbJhZKwaU6hytWQZs2Ma3S8W9fOuN7c9BXNfbkz61EV+r7vk7yeXTAGA5Ce4ArJiIifHmqkk1izliX5eoFcsVxLrwbdafvnvEG7yYwV735jVmdHUJMqOC8aTE0jwRgNoctyoWNUWUOGdNwS7CTdOb5phpFxvktom48dhuO3hJq2N394y8WY/jvJzfy/0t4m4MgMVST03XUzz32lxLER5nYSZjXMtxj2rzPItBrbiWr20RPx9LXud7GmPW7r3vbj2QE7F27+cubvxzbZ43bZbViPvn7YPXkDZ7TsQM4FjqKuP+OQltZt4P28Sy7lNcMWDS5TU5BksmsT/LLGnzM0Ldvg5x32hzL9/7uYta/UwV136b67rtvbxpQCo+0QUAs8Aa7gCsmHhjGBuORqhqEm/2IvbFr8OPLxRHn3yleH4QAhZe+lUZBCJ6z5W/3lzOmo7Zzm1DeFMAqVsTNf7NmEE/v+94w0zAs8qZ+ptXYN3aMroPjnG13vnRJ18u1wUPEf8ue+855czHD7UcPGgbgSNobb3pneX3XifOaQyqxOM7Nnhs1TrDcc7jfMZyHW2P20rFrEmIdduXc2O4mPnc5nzF7Mg4X48MYvDS8xXxJp4rbc9X/JuzIr7/u77xvuLBQXga9jxbv/Hs02vZD45fm+dZOSCZOBixHHsB9FXdA+LeEtfTsUUbRp6+pubKoN3mump7D4jXn7j+mj6FUc50H9w/Y4+PWAomZvFWe1TE/T82fvxQh4HXfXu+WyynOH4xMBzXXZNha7zH91y3cXgcm7iuTp4YPXheLp+0Y3157+D1quDd5RqvWy4pxL0j1mpvuibrXnvjuo6N3TPv5U17VkS0f+zh5d1MGAAmRXAHYEXFUhaH5k90Wsc53gBmhes2ESrWRK3bhCxmqt5+5eXlxpPVjNSIOfHGcsMgXnYJxpNyer3z02uej+OhMzGxja4DKvH4iqL/45vmoNjVSq1hu//T3y0+/+UrGv9chJzT11L/85UdlKdFHJdxn2eTmIk+Leu2jxL3gFgSalzz+77X+s/GTOAYBKm7v1di+bD49dGP9Y/G8bw+1rBxaVt//4+/W2Qata580wazcd7inhF/rtrbI+79MRgRg71dB8BnTSzFsj1xzfo4xk1Lt8Tx3/fpZ5bttbfN61XTsjSnP9E1OwOwACC4A7DiInrEm/NtO3M2SG2rCrRNbxRjTdR4o1gXDOJNa4SYrjEm3mQ2zSieFvFYbz94otPf6TOg0tdybC66HGLQZqWW/YhPjizH+Vru5XJWk0kMHMVA2f0TWA9+2kSw67oXx/49zxSfL5fMmOx9eCWf122MemxPnJnVXzcoMXdmAK7rQFMMPsRMatqJ++ahA+1eg+O83TN4Pkz656qYFd/muo6Ncus3Sp3uAUEA6Moa7gBMhXizFaFvuZbQqKJWLPvQpFp6IFt8zQcf+HGxGsQb/b5LnETou2fCM9fi2pmFpWTKQY35boMa2SZ9vsa5lmZd3JdiyZHM8NRnoGw1ivtpn6Ad9/dbdxxrtZ9IXxE/D+w7XkyrpoGKQxNYVztCrfW624t7w/5PP9Pp3hA/V311ggNt8ZyJx9QklpKp2z9glpaCA4CK4A7A1IjQt/uWpycaPkLEj91//lSr2F7JjpB949BKqALpOBEw3viXsSD53JYDJ4NYNiuzd2M5jGmY5VcNgGWLyDbutTSrqkHArjO0m6yFwY1x76exD0jcRx79Zv760bF00jSfg3h8Tceu+uRLlngNjuNNO3Hf7PozSyUGcCdxLy9/jrrlqVb38qYldWZlKTgAWMySMgBMlQgfn7jxO+Umb9vLjyDnfcy/Wsai70yqagmMcT6iHVEtvs5yBOKIR7Hm8DjHMGJMPN6MWBRrz0a42T44fltvGm+N6xDLZMTM3VmJiX2Ww5ikuEbjnB24Y9PYz8O47uPrzeIyMhnPs4hX8589nj4QsVJ7AbQRM8tjg8Rx7gVxT49BqoznTbz2xPIyWa89mY9tEuKai+dj28cXz984Rnv3XzTWeuzxmnLIzPZWIrTHcR939nf2vbzLzzDbd1zYsJTM9N6jAGAcgjsAUyneYMaviB+xLuxVVzdvajdMvDmMWWFdwkKd+DoPDh5XRIcuj6kKjvcNfi1XII7NXg8NgnR8lDuOY5c32l1jTFsRbOZvO16+yY7wfu11sZle+w/cxXE8/O2F8lhOa8jqYxKbZGZYPADW53kY5yuWTbr/i7O5QWqI+0vfUDup51n1taf5UzSnyk2Vjw/uiT86cy84r8Pfndz9NF534tjF44nNQrsGyoik8TXidWJaBgPjeC0s/HLw2F4u102Pe2ifay6ibXwKrc+gabmfx4ETvWZprwUnT5z+9Fecozg3cZwy7wuL7+Uf/fgF5Wa2XfR5zsVzZ9uu+o1S18LeEgCsTW96aeFnvy7WsD/+4NMFANMvZtRt3rKufJMYs0k3vPvs8n9bv/F0DKmCQrwRfHrwhjXeXMYb/Igfk4oel135tuKaQZTZvGWu3DRu/cazy3i8OG5Uj+Pw4I1z9uPYOgige/ddNPL352/7XrnhayU2vYuIdHo27tmvHbt4o18dt4gxyx2Krr3+vDLkxuMadhzjsRx+fKGcHR+zia39vXLiuolzFeesPFdLrqNQXfflJxom+PxbLvH9Hrhz08jfj2C+eLmpeJ7F36m7L0wiqE2ju75xZfn9D3M6AB557b8vvrYW39+r4xZ/Po7dcl9X1fkc9rqz9N75xCBkx2NbC+J8xetJHJ8N5X3gjfftOC7x+ue+PX0Wn7829/JZv1cBkO8r37q8WMsEd8EdgFWqa3AHuusa3PmNLsEdAIDZsdaDu01TAQAAAAAggeAOAAAAAAAJBHcAAAAAAEgguAMAAAAAQALBHQAAAAAAEgjuAAAAAACQQHAHAAAAAIAEgjsAAAAAACQQ3AEAAAAAIIHgDgAAAAAACQR3AAAAAABIILgDAAAAAEACwR0AAAAAABL8VgEArEpPPH6qmN93vOb3f1YA4zn25Cu1z7Nj33mlYLhD8yeKdee+ZejvLbz4ywIAAGbRm15a+NmvizXsjz/4dAEAAAAAwPi+8q3Li7XMkjIAAAAAAJBAcAcAAAAAgASCOwAAAAAAJBDcAQAAAAAggeAOAAAAAAAJBHcAAAAAAEgguAMAAAAAQALBHQAAAAAAEgjuAAAAAACQQHAHAAAAAIAEgjsAAAAAACQQ3AEAAAAAIIHgDgAAAAAACQR3AAAAAABIILgDAAAAAEACwR0AAAAAABII7gAAAAAAkEBwBwAAAACABII7AAAAAAAkENwBAAAAACCB4A4AAAAAAAkEdwAAAAAASCC4AwAAAABAAsEdAAAAAAASCO4AAAAAAJBAcAcAAAAAgASCOwAAAAAAJBDcAQAAAAAggeAOAAAAAAAJBHcAAAAAAEgguAMAAAAAQALBHQAAAAAAEgjuAAAAAACQQHAHAAAAAIAEgjsAAAAAACQQ3AEAAAAAIIHgDgAAAAAACQR3AAAAAABIILgDAAAAAEACwR0AAAAAABII7gAAAAAAkEBwBwAAAACABII7AAAAAAAkENwBAAAAACCB4A4AAAAAAAkEdwAAAAAASCC4AwAAAABAAsEdAAAAAAASCO4AAAAAAJBAcAcAAAAAgASCOwAAAAAAJBDcAQAAAAAggeAOAAAAAAAJBHcAAAAAAEgguAMAAAAAQALBHQAAAAAAEgjuAAAAAACQQHAHAAAAAIAEgjsAAAAAACQQ3AEAAAAAIMGaD+6/PWfMAQAAAACA8a352jwnuAMAAAAAjO3CDWcVa92ar83vueKtBQAAAAAA43nXht8q1ro1H9zfZdQFAAAAAGBsl5rcLLhfesXZBQAAAAAA43nP5YL7mg/uf/jBuQIAAAAAgPG8//fPKda6NR/c18292YUAAAAAADCGmN1+4UZruK/54B7e/3uCOwAAAABAXzf+yfkFgnvpxj89v/jtOYcCAAAAAKAPq4icpjIXp5eVMQIDAAAAANDddX90nuVkzhDczzDLHQAAAACguz/79+8sOE1hPsMsdwAAAACAbiK2m93+G4L7In/2yXcW77nirQUAAAAAAPXeteGs4k8/aXb7YoL7En/1nzZYWgYAAAAAoEY01M/9598peD1leYkLN55VfPIvLygAAAAAABjuL/7jekvJDCG4D3H9H51X/KmF/gEAAAAA3iDWbf/Df7Ou4I0E9xFiPXfRHQAAAADgNyK2W7d9tDe9tPCzXxeM9L++dar4L399svjZwq8KAAAAAIC1KNZs/+RfvKu4/t+dWzCa4N7C8ydeLT77l98vfvDc/ysAAAAAANaS91z+1uKv/nqjNdtbENw7+Lv/+uPiv/+3HxcAAAAAALMuZrXf+Cfnl8tv047g3lHMdv+7QXR/+H++VAAAAAAAzJoqtMevdefaBrQLwb2nCO//53+/XHz9f/y0+O7TPy8AAAAAAFaz9//eOcX7f/8coX0MgnuCKr7/36d/UXz3qZ8XP3ju1eJ5670DAAAAAFMoZrDPDX5dcvlbiws3nlVcesXZxR/+6zmRPYHgDgAAAAAACQxZAAAAAABAAsEdAAAAAAASCO4AAAAAAJBAcAcAAAAAgASCOwAAAAAAJBDcAQAAAAAggeAOAAAAAAAJBHcAAAAAAEgguAMAAAAAQALBHQAAAAAAEgjuAAAAAACQQHAHAAAAAIAEgjsAAAAAACQQ3AEAAAAAIIHgDgAAAAAACQR3AAAAAABIILgDAAAAAEACwR0AAAAAABII7gAAAAAAkEBwBwAAAACABII7AAAAAAAkENwBAAAAACCB4A4AAAAAAAkEdwAAAAAASCC4AwAAAABAAsEdAAAAAAASCO4AAAAAAJBAcAcAAAAAgASCOwAAAAAAJBDcAQAAAAAggeAOAAAAAAAJBHcAAAAAAEgguAMAAAAAQALBHQAAAAAAEgjuAAAAAACQQHAHAAAAAIAEgjsAAAAAACQQ3AEAAAAAIIHgDgAAAAAACQR3AAAAAABIILgDAAAAAEACwR0AAAAAABII7gAAAAAAkEBwBwAAAACABII7AAAAAAAkENwBAAAAACCB4A4AAAAAAAkEdwAAAAAASCC4AwAAAABAAsEdAAAAAAASCO4AAAAAAJBAcAcAAAAAgASCOwAAAAAAJBDcAQAAAAAggeAOAAAAAAAJBHcAAAAAAEgguAMAAAAAQALBHQAAAAAAEgjuAAAAAACQQHAHAAAAAIAEgjsAAAAAACQQ3AEAAAAAIIHgDgAAAAAACQR3AAAAAABIILgDAAAAAEACwR0AAAAAABII7gAAAAAAkEBwBwAAAACABII7AAAAAAAkENwBAAAAACCB4A4AAAAAAAkEdwAAAAAASCC4AwAAAABAAsEdAAAAAAASCO4AAAAAAJBAcAcAAAAAgASCOwAAAAAAJBDcAQAAAAAggeAOAAAAAAAJBHcAAAAAAEgguAMAAAAAQALBHQAAAAAAEgjuAAAAAACQQHAHAAAAAIAEgjsAAAAAACQQ3AEAAAAAIIHgDgAAAAAACQR3AAAAAABIILgDAAAAAEACwR0AAAAAABII7gAAAAAAkEBwBwAAAACABII7AAAAAAAkENwBAAAAACCB4A4AAAAAAAkEdwAAAAAASCC4AwAAAABAAsEdAAAAAAASCO4AAAAAAJBAcAcAAAAAgASCOwAAAAAAJBDcAQAAAAAggeAOAAAAAAAJBHcAAAAAAEgguAMAAAAAQALBHQAAAAAAEgjuAAAAAACQQHAHAAAAAIAEgjsAAAAAACQQ3AEAAAAAIIHgDgAAAAAACQR3AAAAAABIILgDAAAAAEACwR0AAAAAABII7gAAAAAAkEBwBwAAAACABII7AAAAAAAkENwBAAAAACCB4A4AAAAAAAkEdwAAAAAASCC4AwAAAABAAsEdAAAAAAASCO4AAAAAAJBAcAcAAAAAgASCOwAAAAAAJBDcAQAAAAAggeAOAAAAAAAJBHcAAAAAAEgguAMAAAAAQALBHQAAAAAAEgjuAAAAAACQQHAHAAAAAIAEgjsAAAAAACQQ3AEAAAAAIIHgDgAAAAAACQR3AAAAAABIILgDAAAAAEACwR0AAAAAABII7gAAAAAAkEBwBwAAAACABII7AAAAAAAkENwBAAAAACCB4A4AAAAAAAkEdwAAAAAASCC4AwAAAABAAsEdAAAAAAASCO4AAAAAAJBAcAcAAAAAgASCOwAAAAAAJBDcAQAAAAAggeAOAAAAAAAJBHcAAAAAAEgguAMAAAAAQALBHQAAAAAAEgjuAAAAAACQQHAHAAAAAIAEgjsAAAAAACQQ3AEAAAAAIIHgDgAAAAAACQR3AAAAAABIILgDAAAAAEACwR0AAAAAABII7gAAAAAAkEBwBwAAAACABII7AAAAAAAkENwBAAAAACCB4A4AAAAAAAkEdwAAAAAASCC4AwAAAABAAsEdAAAAAAASCO4AAAAAAJBAcAcAAAAAgASCOwAAAAAAJBDcAQAAAAAggeAOAAAAAAAJBHcAAAAAAEgguAMAAAAAQALBHQAAAAAAEgjuAAAAAACQQHAHAAAAAIAEgjsAAAAAACQQ3AEAAAAAIIHgDgAAAAAACQR3AAAAAABIILgDAAAAAEACwR0AAAAAABII7gAAAAAAkEBwBwAAAACABII7AAAAAAAkENwBAAAAACCB4A4AAAAAAAkEdwAAAAAASCC4AwAAAABAAsEdAAAAAAASCO4AAAAAAJBAcAcAAAAAgASCOwAAAAAAJBDcAQAAAAAggeAOAAAAAAAJBHcAAAAAAEgguAMAAAAAQALBHQAAAAAAEgjuAAAAAACQQHAHAAAAAIAEgjsAAAAAACQQ3AEAAAAAIIHgDgAAAAAACQR3AAAAAABIILgDAAAAAEACwR0AAAAAABII7gAAAAAAkEBwBwAAAACABII7AAAAAAAkENwBAAAAACCB4A4AAAAAAAkEdwAAAAAASCC4AwAAAABAAsEdAAAAAAASCO4AAAAAAJBAcAcAAAAAgASCOwAAAAAAJBDcAQAAAAAggeAOAAAAAAAJBHcAAAAAAEgguAMAAAAAQALBHQAAAAAAEgjuAAAAAACQQHAHAAAAAIAEgjsAAAAAACQQ3AEAAAAAIIHgDgAAAAAACQR3AAAAAABIILgDAAAAAEACwR0AAAAAABII7gAAAAAAUIxPcAcAAAAAgASCOwAAAAAAJBDcAQAAAAAggeAOAAAAAAAJBHcAAAAAAEgguAMAAAAAQALBHQAAAAAAEgjuAAAAAACQQHAHAAAAAIAEgjsAAAAAACQQ3AEAAAAAIIHgDgAAAAAACQR3AAAAAABIILgDAAAAAEACwR0AAAAAABII7gAAAAAAkEBwBwAAAACABII7AAAAAAAkENwBAAAAACCB4A4AAAAAAAkEdwAAAAAASCC4AwAAAABAAsEdAAAAAAASCO4AAAAAAJBAcAcAAAAAgASCOwAAAAAAJBDcAQAAAAAggeAOAAAAAAAJBHcAAAAAAEgguAMAAAAAQALBHQAAAAAAEgjuAAAAAACQQHAHAAAAAIAEgjsAAAAAACQQ3AEAAAAAIIHgDgAAAAAACQR3AAAAAABIILgDAAAAAEACwR0AAAAAABII7gAAAAAAkEBwBwAAAACABII7AAAAAAAkENwBAAAAACCB4A4AAAAAAAkEdwAAAAAASCC4AwAAAABAAsEdAAAAAAASCO4AAAAAAJBAcAcAAAAAgASCOwAAAAAAJBDcAQAAAAAggeAOAAAAAAAJBHcAAAAAAEgguAMAAAAAQALBHQAAAAAAEgjuAAAAAACQQHAHAAAAAIAEgjsAAAAAACQQ3AEAAAAAIIHgDgAAAAAACQR3AAAAAABIILgDAAAAAEACwR0AAAAAABII7gAAAAAAkEBwBwAAAACABII7AAAAAAAkENwBAAAAACCB4A4AAAAAAAkEdwAAAAAASCC4AwAAAABAAsEdAAAAAAASCO4AAAAAAJBAcAcAAAAAgASCOwAAAAAAJBDcAQAAAAAggeAOAAAAAAAJBHcAAAAAAEgguAMAAAAAQALBHQAAAAAAEgjuAAAAAACQQHAHAAAAAIAEgjsAAAAAACQQ3AEAAAAAIIHgDgAAAAAACQR3AAAAAABIILgDAAAAAEACwR0AAAAAABII7gAAAAAAkEBwBwAAAACABII7AAAAAAAkENwBAAAAACCB4A4AAAAAAAkEdwAAAAAASCC4AwAAAABAAsEdAAAAAAASCO4AAAAAAJBAcAcAAAAAgASCOwAAAAAAJBDcAQAAAAAggeAOAAAAAAAJBHcAAAAAAEgguAMAAAAAQALBHQAAAAAAEgjuAAAAAACQQHAHAAAAAIAEgjsAAAAAACQQ3AEAAAAAIIHgDgAAAAAACQR3AAAAAABIILgDAAAAAEACwR0AAAAAABII7gAAAAAAkEBwBwAAAACABII7AAAAAAAkENwBAAAAACCB4A4AAAAAAAkEdwAAAAAASCC4AwAAAABAAsEdAAAAAAASCO4AAAAAAJBAcAcAAAAAgASCOwAAAAAAJBDcAQAAAAAggeAOAAAAAAAJBHcAAAAAAEgguAMAAAAAQALBHQAAAAAAEgjuAAAAAACQQHAHAAAAAIAEgjsAAAAAACQQ3AEAAAAAIIHgDgAAAAAACQR3AAAAAABIILgDAAAAAEACwR0AAAAAABII7gAAAAAAkEBwBwAAAACABII7AAAAAAAkENwBAAAAACCB4A4AAAAAAAkEdwAAAAAASCC4AwAAAABAAsEdAAAAAAASCO4AAAAAAJBAcAcAAAAAgASCOwAAAAAAJBDcAQAAAAAggeAOAAAAAAAJBHcAAAAAAEgguAMAAAAAQALBHQAAAAAAEgjuAAAAAACQQHAHAAAAAIAEgjsAAAAAACQQ3AEAAAAAIIHgDgAAAAAACQR3AAAAAABIILgDAAAAAEACwR0AAAAAABII7gAAAAAAkEBwBwAAAACABII7AAAAAAAkENwBAAAAACCB4A4AAAAAAAkEdwAAAAAASCC4AwAAAABAAsEdAAAAAAASCO4AAAAAAJBAcAcAAAAAgASCOwAAAAAAJBDcAQAAAAAggeAOAAAAAAAJBHcAAAAAAEgguAMAAAAAQALBHQAAAAAAEgjuAAAAAACQQHAHAAAAAIAEgjsAAAAAACQQ3AEAAAAAIIHgDgAAAAAACQR3AAAAAABIILgDAAAAAEACwR0AAAAAABII7gAAAAAAkEBwBwAAAACABII7AAAAAAAkENwBAAAAACCB4A4AAAAAAAkEdwAAAAAASCC4AwAAAABAAsEdAAAAAAASCO4AAAAAAJBAcAcAAAAAgASCOwAAAAAAJBDcAQAAAAAggeAOAAAAAAAJBHcAAAAAAEgguAMAAAAAQALBHQAAAAAAEgjuAAAAAACQQHAHAAAAAIAEgjsAAAAAACQQ3AEAAAAAIIHgDgAAAAAACQR3AAAAAABIILgDAAAAAEACwR0AAAAAABII7gAAAAAAkEBwBwAAAACABII7AAAAAAAkENwBAAAAACCB4A4AAAAAAAkEdwAAAAAASCC4AwAAAABAAsEdAAAAAAASCO4AAAAAAJBAcAcAAAAAgASCOwAAAAAAJBDcAQAAAAAggeAOAAAAAAAJBHcAAAAAAEgguAMAAAAAQALBHQAAAAAAEgjuAAAAAACQQHAHAAAAAIAEgjsAAAAAACQQ3AEAAAAAIIHgDgAAAAAACQR3AAAAAABIILgDAAAAAEACwR0AAAAAABII7gAAAAAAkEBwBwAAAACABII7AAAAAAAkENwBAAAAACCB4A4AAAAAAAkEdwAAAAAASCC4AwAAAABAAsEdAAAAAAASCO4AAAAAAJBAcAcAAAAAgASCOwAAAAAAJBDcAQAAAAAggeAOAAAAAAAJBHcAAAAAAEgguAMAAAAAQALBHQAAAAAAEgjuAAAAAACQQHAHAAAAAIAEgjsAAAAAACQQ3AEAAAAAIIHgDgAAAAAACQR3AAAAAABIILgDAAAAAEACwR0AAAAAABII7gAAAAAAkEBwBwAAAACABII7AAAAAAAkENwBAAAAACCB4A4AAAAAAAkEdwAAAAAASCC4AwAAAABAAsEdAAAAAAASCO4AAAAAAJBAcAcAAAAAgASCOwAAAAAAJBDcAQAAAAAggeAOAAAAAAAJBHcAAAAAAEgguAMAAAAAQALBHQAAAAAAEgjuAAAAAACQQHAHAAAAAIAEgjsAAAAAACQQ3AEAAAAAIIHgDgAAAAAACQR3AAAAAABIILgDAAAAAEACwR0AAAAAABII7gAAAAAAkEBwBwAAAACABII7AAAAAAAkENwBAAAAACCB4A4AAAAAAAkEdwAAAAAASCC4AwAAAABAAsEdAAAAAAASCO4AAAAAAJBAcAcAAAAAgASCOwAAAAAAJBDcAQAAAAAggeAOAAAAAAAJBHcAAAAAAEgguAMAAAAAQALBHQAAAAAAEgjuAAAAAACQQHAHAAAAAIAEgjsAAAAAACQQ3AEAAAAAIIHgDgAAAAAACQR3AAAAAABIILgDAAAAAEACwR0AAAAAABII7gAAAAAAkEBwBwAAAACABII7AAAAAAAkENwBAAAAACCB4A4AAAAAAAkEdwAAAAAASCC4AwAAAABAAsEdAAAAAAASCO4AAAAAAJBAcAcAAAAAgASCOwAAAAAAJBDcAQAAAAAggeAOAAAAAAAJBHcAAAAAAEgguAMAAAAAQALBHQAAAAAAEgjuAAAAAACQQHAHAAAAAIAEgjsAAAAAACQQ3AEAAAAAIIHgDgAAAAAACQR3AAAAAABIILgDAAAAAEACwR0AAAAAABII7gAAAAAAkEBwBwAAAACABII7AAAAAAAkENwBAAAAACCB4A4AAAAAAAkEdwAAAAAASCC4AwAAAABAAsEdAAAAAAASCO4AAAAAAJBAcAcAAAAAgASCOwAAAAAAJBDcAQAAAAAggeAOAAAAAAAJBHcAAAAAAEgguAMAAAAAQALBHQAAAAAAEgjuAAAAAACQQHAHAAAAAIAEgjsAAAAAACQQ3AEAAAAAIIHgDgAAAAAACQR3AAAAAABIILgDAAAAAEACwR0AAAAAABII7gAAAAAAkEBwBwAAAACABII7AAAAAAAkENwBAAAAACCB4A4AAAAAAAkEdwAAAAAASCC4AwAAAABAAsEdAAAAAAASCO4AAAAAAJBAcAcAAAAAgASCOwAAAAAAJBDcAQAAAAAggeAOAAAAAAAJBHcAAAAAAEgguAMAAAAAQALBHQAAAAAAEgjuAAAAAACQQHAHAAAAAIAEgjsAAAAAACQQ3AEAAAAAIIHgDgAAAAAACQR3AAAAAABIILgDAPz/9u5mua3DOuD4ISSKlFSP/ATSOk3lJ6j7ApW6bTt2t03arFs3zraxJ9O1p0m3laftttETxH0CaZJma894b0UigPsFBAckZFIiKQK4JO8Ffr8ZDMQPWTZlecZ/HJ4DAAAALRDcAQAAAACgBYI7AAAAAAC0QHAHAAAAAIAWCO4AAAAAANACwR0AAAAAAFoguAMAAAAAQAsEdwAAAAAAaIHgDgAAAAAALRDcAQAAAACgBYI7AAAAAAC0QHAHAAAAAIAWCO4AAAAAANACwR0AAAAAAFoguAMAAAAAQAsEdwAAAAAAaIHgDgAAAAAALRDcAQAAAACgBYI7AAAAAAC0QHAHAAAAAIAWCO4AAAAAANACwR0AAAAAAFoguAMAAAAAQAsEdwAAAAAAaIHgDgAAAAAALRDcAQAAAACgBYI7AAAAAAC0YDCdTgMAAAAAAFhdtvZBCO4AAAAAALCWw+AOAAAAAACsTXAHAAAAAIA1zSfcm8kkAAAAAACANUwnJtwBAAAAAKANg+mkCQAAAAAAYHXTqR3uAAAAAACwtkmulJnY4Q4AAAAAAGuZzlr7IC+nAgAAAAAAq8vWPpg9BQAAAAAAsLrcJjNoGitlAAAAAABgPdNcKSO4AwAAAADAOuYrZexwBwAAAACA9UwWR1NFdwAAAAAAWM2isw+O3goAAAAAAGB5Od2e5sG9aeoAAAAAAABWMD0W3Bf1HQAAAAAAWE7TNPNnwR0AAAAAANZwYqWM4A4AAAAAAKuZTE5MuDcBAAAAAAAsbzqdzp9fT7gv3gEAAAAAAFzciR3uyVoZAAAAAABYziK2p++De1MHAAAAAABwcdNjw+yvg/vxCg8AAAAAALxbXVevf2ylDAAAAAAArGgyOWWlTGOlDAAAAAAALOXUHe7T6fTErhkAAAAAAOBsuTkm2/rC4PgHTbkDAAAAAMDFTN64jXoiuNe14A4AAAAAABfx5hD7yQn3SRMAAAAAAMC7nRvc3xx/BwAAAAAATtect1Iml7s3ojsAAAAAAJwrW/rxg6lp8NYn1VUAAAAAAABnO62lvxXcJ/a4AwAAAADAueq6fut9bwX3qjLhDgAAAAAA52lOGV5/K7jnzpnpZBIAAAAAAMDb5vvbT+nog9M+uarKAAAAAAAA3nbWLdTTg7vDqQAAAAAAcKp6meA+yXH46TQAAAAAAICTcqXMaU4N7hnbz/oJAAAAAACwrXKdzFkD64OzflJtjzsAAAAAAJxQlme387ODuz3uAAAAAABwQt3UZ37szOA+mUyslQEAAAAAgCPZzKezdn6WwXk/ua5MuQMAAAAAQGresRnm/ODeCO4AAAAAAJCqd9w+PTe4N3V97ng8AAAAAABsg4usYT83uKfzLq4CAAAAAMA2qKt3t/J3BndrZQAAAAAA2HZVG8E918q8a0weAAAAAAA21UXWyaR3BvdUV6bcAQAAAADYTmUxvtDnXSi4l+XF/mIAAAAAALBpqvpiQ+kXCu7T6TTqug4AAAAAANgmzSy2TyeTC33uhYJ7qqsiAAAAAABgm5Tlu4+lLlw4uFdVNZ90BwAAAACAbZDHUqvqEoJ7xvaqNOUOAAAAAMB2WHbV+oWDe7roYngAAAAAAOi7ohgt9flLBfdmVvMdTwUAAAAAYNMtcyx1YangnpYt+gAAAAAA0DfLHEtdWDq455S746kAAAAAAGyqZY+lLiwd3FNZOJ4KAAAAAMBmKsarbXpZLbiXY1PuAAAAAABspLpZ7ZbpSsE9Y7spdwAAAAAANk3ubl/2WOrCSsH98BcdBwAAAAAAbJKiWG2dTFo5uOeUe7XClVYAAAAAAOiidabb08rBff6LV9bKAAAAAACwGdaZbk9rBfemrqOuV1seDwAAAAAAXbHudHtaK7indYs/AAAAAABctzZa99rB3ZQ7AAAAAAB91sZ0e1o7uKfxeBgAAAAAANBHbW1yaSW4T5omqtkrAAAAAAAA0CdtTbenVoJ7ylcAptNpAAAAAABAX7R5p7S14D6ZvQJQFkUAAAAAAEAftDndnloL7qksx6bcAQAAAADovBwib3O6PbUa3DO2m3IHAAAAAKDryrJodbo9tRrcU74iMGn5bxIAAAAAANpyuCJ9HG1rPbin0eggAAAAAACgi4pxu6tkFi4luDd1HfXsAQAAAAAAXZKHUquqjMtwKcE9jUcHDqgCAAAAANApbR9KPe7SgvvhDhwHVAEAAAAA6IaM7dNLvEF6acE9leXYAVUAAAAAAK5dtupi3P6h1OMuNbjnShkHVAEAAAAAuG7j8TAu26UG95QHVK2WAQAAAADguuSh1Lqq4rJdenBP8704DqgCAAAAAHDF5qtkLvFQ6nFXEtytlgEAAAAA4DoU48s9lHrclQT3lOP6VVUGAAAAAABchVwlc5Vd+sqCexqPhvPxfQAAAAAAuExXuUpm4UqDu9UyAAAAAABchfF4eGWrZBauNLinpq6jLIoAAAAAAIDLkJPtueb8ql15cE/5D9s0TQAAAAAAQJvmq2TG47gO1xLc56tlhq/mzwAAAAAA0IZszgcHL+O6XEtwT9exsB4AAAAAgM1VFOMr39t+3LUF95S73O1zBwAAAABgXeUstufjOl1rcE855T65xlccAAAAAADot8ONKtcb29O1B/fcqTM8eGmfOwAAAAAAS1vsbe9CY7724J7y1YfR6CAAAAAAAGAZ2ZanHdmi0ongnuqq6sTIPwAAAAAA/ZAry7Mtd0VngnsqxqOoqjIAAAAAAOA8VQ5xj7s1xN2p4J7Go2E0TRMAAAAAAHCaXFM+7uCa8s4F91xsPxq+mn/BAAAAAADguGzHXTmS+qab0UH5BRvOovvdu+/Fzs5OAMA2evHiu/jyyy/jq9/8Jp4/fxZff/11AACkBw8exMOHH8Sjx4/jo48+DgDYFhnZ57G9owPbO99++233XgY4snvrVty+fTcAYNs8ffrr+Icf/yi+++67AAA4T8b3n376M+EdgK2Qg9pdOpL6ps6tlDmuKssYj4cBANvkXz75p/jbv/lrsR0AuJD8Lrgf/+jv4/PPfh4AsMmKYtTp2J46HdxTWRSzL2S3Ls0CwGX5/LN/jS+++CIAAJb12Sy4f/LJPwcAbKKM7cW4+5240ytljtvbvx17e/sBAJvqyy+fzKfTAADW8V///T/x6NHjAIBN0ZfYnnoT3NPtO3djd/dWAMAm+rMf/sBhVABgbffu3Yvf/u7/Z8/vBwD0XVWVMRoeRF90fqXMcfmFzS8wAGyanG4X2wGANrx48SKePHkSANB3fYvtqVfBPeUXuK7rAIBN8vTX/xsAAG35v6++CgDos2bWgPsW21PvgnsaDV9F0zQBAJvi2fPnAQDQlmfPnwUA9FW23+GsAfdRr3a4H7ezsxN37r4XN27cCADou/f+5E4AALTp5athAEDfzGP7wcuYTnuZrfs54Z7yC55feOtlAAAAAAD6L9fI9Dm2p94G97SI7g6pAtB39x88CACAtjz84IMAgD7JxnvQ89ieeh3cF3J5vugOQJ998PBhAAC05cF9L+YD0B/Zdvt4IPU0GxHcU/6GFMU4AKCP/vzDvwgAgLb85aNHAQB9UBSjjYntqbdHU8+yt3879vb2AwD65MWL7+KHf/qD2fOLAABYx/379+O3v/t9AEDXZWwvxps1RL0xE+4LxXhk0h2A3rl37/345a/+IwAA1vXTT38WANB14/Hmxfa0ccE9ZXQfDl/1fsE+ANvl0aPH8Y8/+UkAAKwqY/vHH/9dAEBXZbMdjQ6i3NCh6Y0M7qmuqjh49YeYTCYBAH3xi1/82+x/lD8NAIBl5Qv3n5puB6DDstUeHLyMqixjU23cDvc3DQaDuHP3vfkzAPTFkyf/GZ9/9vP45ptvAgDgPPfu3Yt//+Wv4vHjvwoA6KqmaQ63kmz4gPTGB/e0s7MT+7fvxu7ubgBAn2R4f/r06Sy8fx3Pnz0LAIB0/8GDePjwg/jwww/jo48+jvfffz8AoKuqqozxaLgVK8C3Irgv7O3fjr29/QAAAAAA4PIVxWYeRz3LzdgieUy1aeq4ffvufOodAAAAAID2LY6j5q3NbbJ1i80dUwUAAAAAuDzZXl/NGuy2xfa0lZdE59dwZ7/hZVEEAAAAAADtKIvxvL1u+nHUs2zVSpnj8lsaxuNhTKZN7O3dtmIGAAAAAGBF2VuLWWzP4L7Ntja4L+SUe35rw52778VgsJUD/wAAAAAAK2uaJobDV1s71X6cwhxHO4Vevpi/AgMAAAAAwMXkRPvw4KXYfmTrJ9yPK8aj2asxdezv3zHtDgAAAABwhhxiHo8Ooq7r4HuC+xtyvcyweTnf675761YAAAAAAPC9nGrPbSG5t52TBPdT5Kszo3x1pqnm4d20OwAAAACw7TKwz7tpVQWnE9zPUZVlNHVt2h0AAAAA2Gqm2i9GcH+HxbR7VZd2uwMAAAAAW8Wu9uUI7heU3ybxqnoRe/u3Y29vPwAAAAAANlVOspdlMZ9sN9V+cYL7korxKKrZv2jWzAAAAAAAmyjXbA9HBzGdTILlCO4rcFQVAAAAANg01sesT3BfQx5Vzcetvb24dWtfeAcAAAAAemexPia3e7Aewb0FZVHMd7xbMwMAAAAA9IU97e0T3FuyWDNTFCPhHQAAAADotLIs5y3TnvZ2Ce4tE94BAAAAgK7Kg6ij8TAmTRO0T3C/JMI7AAAAANAVGdqzVTqIerkE90smvAMAAAAA1yVXx9RVIbRfEcH9irwZ3m/u7sbOzk4AAAAAALTJMdTrI7hfsUV4HxSDuHHz5jy+DwaDAAAAAABYh9B+/QT3a5LhfVKWUc0euWbm1u7ePMADAAAAACzDfvbuUHg7oDoK7znpnhPvGd5NvQMAAAAAZ8kJ9qrM3eyV0N4hgnuHLNbNJFPvAAAAAMCb5tPs5Xj+bG1M96i5HXV86v3mzd24tbdv6h0AAAAAtlDTNPNJdrvZu09w77icep8fOpg9bty4Ebu7t+Lm7CG+AwAAAMDmmmYXrMporIzpFcG9R/KVrKYZRYxH38f3m7sxmP0YAAAAAOi3yaz/VbPALrL3l+DeU6/je4zm0+65693OdwAAAADoj1wPM4/sVTlfGZPbLug3dXYD5B/EydHO952dnfn0e06+m34HAAAAgG7JVTGLwJ5DtXaybxbBfcPkH9D8dpPDbzk5mn6fRfcbN24K8AAAAABwxSZHB08nk5xkrwT2DSe4b7j59Pv8VbMqMsAvJuAzwOcjA7wDrAAAAACwvpxeb44FdhPs20dw3zInJ+APLSL8YHC4iiYDvEl4AAAAADhdNrbDuF4fRfXJvLeJ6wjuvI7wEXWUZfH6/RnhM8ZniD9cTXNz/vbO7Mf5DAAAAACbah7PZ48M6jmtnlskMqwfvu24KacT3DlT/sfjUP3Wxw5D/GF4P3wMjr3v+yC/+PjRG0I9AAAAAFdqEc4XFrE8I/ri7cPJ9Onr9czzCXbT6qzgj5EhJJtMFfYNAAAAAElFTkSuQmCC;" vertex="1" parent="1">
                    <mxGeometry x="-640" y="290" width="650.39" height="1408.32" as="geometry"/>
                </mxCell>
                <mxCell id="3" value="" style="shape=image;verticalLabelPosition=bottom;labelBackgroundColor=default;verticalAlign=top;aspect=fixed;imageAspect=0;image=data:image/png,iVBORw0KGgoAAAANSUhEUgAAAXcAAAMsCAYAAACvFuLjAAAACXBIWXMAAAsTAAALEwEAmpwYAAAAAXNSR0IArs4c6QAAAARnQU1BAACxjwv8YQUAAHZnSURBVHgB7b0L2CZFeeddPZwUZpwRNirJXgywHjbiDIO7VzyEc+ImEBTw26wxIKcrnxJxBdw1RLILg98Go1kF3AXRbxfQQDTJfhwCSnJl5TRGzSaRYUbURAMzRATdBWaY4TTA21//+3mr3+rqqup+3vPU/H7XvPM8T3d11V2nf91dXd1dPPzww6VZIIqiMHvuuafZfffd67/ddtut/hP6vZh58cUXzXPPPWe2b99efweA2UM6sPfee5uXvOQli14LyrI0L7zwgpmYmKi1QH87duwwzz//fL1voSjmU9ytmOtvZ6i0oWzZssU888wzBgBmzktf+lKzfPnyWi92dqwT+Oyzz9aCP59iPy/qKjHfZ599zF577ZVFhfmsWLGiGa0BYPpIK9SfcsGegehPPP3007XQS/DnmjkTd4m4BH3p0qVZCrrPsmXLzGOPPWYAYPrkJOwhrNDLGdy2bVvtEM7VtO6si/uuJuoWeRwAMDPsNbfcUT7tGb+8eV27m21mVdw1VyYPdlepIACAmSCtlGbKm5cnP5vX7mZF3GWgLoBoTh0AAMbDevLSUIn8bEzVzFjcNQWjkWdXmoIBAJgLNPshgX/yySdn7MVPW9wl5hJ1iTsAAMwOS5Ysqb14LRWXFz9dpiXuOoV4+ctfbvbYYw8DU6hcuKEJYHpwra6NFqXIi3/iiSempStLzJioAvbbbz+EHQBmFXms0EY6K72dzsA3VmlaYWeEDZPLHbcACwG6Ema6ujtY3BH2figbgOmDcxRnOvo7SNwR9mHoSjcATA+metOMq8ODxF0XTxH2fuR5sCQUYHpwn0w/djHLEJ3pFfeXvexljKgD0QUhygpgfPT4DhyjYUhjtJKmj6S4a5qBdezjobX/ADAeTGmOh8TdPmkyRvQKhn2kwHxyySWXmLvvvrt+PvqBBx5oLrroIrNmzZrBx2/atMl89KMfrb8fddRR5vTTT2/tX79+vfn0pz9df7/mmmvMXGA9kIV8SD/AzoR9LO5sYPXj0EMPrTUkhcLdd9995uabbzZbt25ttuvYo48+uv4cwoMPPmh+/OMfm9ngla98pTnooIMGhZUjqUcHx9bAR1/WoXkdvVBjvjjzzDPN5z//+frOLBWqCl2Ff9lll5lzzz23Cbd582azcuXKYBwqFO0XZ5xxRkvAr7jiCnP++ec3v/XWlLlCd5XNxVPeAHJETuRsiPstt9xiTj755Pq73/9dpCvSA/3pewwNDhdffHHHSXTZuHGjqTTUvPa1rzWzwbe//W3zz//5Px8cnx4ZHHvUeNBz1ynSfAq7KkXCLm/7pptuqgVeXvgb3/jG2ptX4WrbddddZ84666z697XXXtuKQxUlYdc+xeWiOPSnQUKjtB0A5gqNqHouBHerAqSZTa9dd3L2Ic9eA4Ar6nIm7QyBtusMXxohDZLTKd2R3oTOBP7u7/7OHHfcceZP/uRPzD333GNmwjve8Q5z/PHHm1tvvXWwuGumQHodeg5NUNzne95YhSnOO++85mH9KkgJtURb4u+Onv4D/VUJdhDQiO2LuyrsxhtvNCeddFIt7vOBbOTlHQBptGBjutgzdWnFAw880BteOnHMMcfU39U/P/jBD7Y0x0WaJO2RltgB4d577+2E03tSdV1STudMkTY9/vjjY7/RTXqttzv5U8GdC6qaqF+oZY8qfBc7utrtEm5VoqZqXCTsqiCdQoVQeAn7fKIRdbY8EoAckSjOZIbAnoH7uhHDXsfT57e+9S2zdu3aevpXwnzwwQfXf8cee2w9fSs9kbeuqR1NA/szBXOBP0X0jW98Y9Bx0uvQwpclfqCFECRNxwiNlBolVWl21BTuNIp/aqRTJoXTKNx3AWW+0Vwid90BdNFyvnG8dnnSEmEJb2qevA8JuoRdSMjlyUtDNEDo76677qq1R0Ivp1EOpS6YjrOwY7bQfP4jjzwyKKzE3V9K2hJ3eZsL4bXryrRGVHvapNMtFay9IBK7gCoUTqKu06vFyL777ssNYAAO9kaccZDgSoTtNO1MkFeuKRAJuZBzqbN76Y2uy1m9UVpDzwoWGt1j43vvLbdyIddoa0TVKKkRWiOzOz9uPXIV9Ic+9CFz2mmn1ftVyfLqVTkSeRtGqOI00s/Vkseh2FuGNf/OBVbY1RlyC727pFln5HPhNcsZlM4objtlq9/SIAm99EjbF3I2QBdV999//8HhJe7uKr1G3DX3tVAepqZi7GoZ98KpXZNup20URoKvq+IqeHt1XMfrz0UNRCP9Qou7sA1aF0teeOEFA7AroqmYIY8y0Ty4+q5lrvqwBFzIMbTLIiXmn/rUp5p9Q9HZwEymi0JoRmMc5L1r9sVekG3EfSGf66ClSBJt/dkC1nd58TpNsqOnhF/77QCgUVZ/LhJ5Te2k1rkuBGrQP/VTP1XfLKG3nQPsSozzOs4hSxpnE60yscJs9WcoGrC0YkZaM9PpIon5U089VQv0dNE105a4S/EXcmWHRr077rijXm7k3mik6Rd3BYwK3V8ps7Ohi6xqEDp9YpoGcsfe6T6O8+iKa+guebt00XrLNnzfcTGsl66pIOnQONNAq1atMrfffrtZvXp1/TdT1q1bZ173uteZ6aJytnfI13eoakpm3Ascc4Wdc1cBh9af5oQ8eEQeckQCI29dS6un80Awexav6Vd7U6O0Qd/tdIVd3SKtsILsHzcOin868/tanv2Tn/zEzAaveMUr6pU6M0HTv3osQS3us3X7L0wPibzuMBv35gWAxYamFCTq1oOE+UcOox6BUk/L8BzlhUUDq/50KqU7zTSHpz89/0ZePQ8hg8WGhFvTubqPw/7pNngEfeFRPdTirgpiHfbiQB1DFcPjTwFgukjP68GXOygBAPJC02NLZrLsBgAAFh/y3pcwJQMAkBdabo24AwBkhqbbEXcAgMxgWgYAIFOKiYkJFlEDAGTGEgMAANmBuAMAZAjiDgCQIYg7AECGIO4AABmCuAMAZAjiDgCQIYg7AECGIO4AABmCuAMAZAjiDgCQIYg7AECGIO4AABmCuAMAZAjiDgCQIYg7AECGIO4AABmCuAMAZAjiDgCQIYg7AECGIO4AABmyuwGYRz7/+c/XfzFWrFhhbrzxRjNXrF+/3nzoQx8yd9xxhwHIGcQd5pVNmzbVf6effnpn31133VWL71yydevWOh2A3EHcYd5ZuXKlufjii4P7XK9+8+bNddgtW7aYW265xRx44IHmqKOOCh5333331YOGwhx66KHRMHbwuPvuu+tPPz6bpovSFzqrsL81SPgsX768DuOHB1gImHOHRctBBx1kzjzzTLPvvvuatWvXmmOOOcYcfPDBtYhb9F3hDjvsMHPyySfXn34YCboNc/7559fbFFcoPoVzPXvt03GayrFoYFA4/08DkLjiiitqWwAWEsQdFjUS0gceeMA8+OCD9WdZlrXgWyTQ8pAff/xxMzExEQwjobVh7rzzznpbLKzPJZdcUnvzLk888UR9hqDj7R/AYoNpGVjUaPpGQir0efnll9diLcGVR67Pm266qZkCiYWRqPvTJAp77bXXmmOPPTY4HSMPXIOLv92GtXaF0LSNOyj4cQDMNXjusKjx58/tb4m2nT9fs2ZNMoxEPSbEdrvODFw0HSOv/ZprrqmnXFzsnHoKHX/00UfXfzpe0z9zfbEYwAVxh50KK6z24uV0w/Sh6Z4PfvCDtTj72Hn+FBpgNGDoT1NAunD7zne+0wDMF4g7LGrsqhaL9X7dVTH+0kY/jMQ+tvzRbnc9e3nsRVHUF3FDhKZw+pC4uxduAeYaxB0WNZr31hJGIaGX8GqNvMRYXrXE+6yzzqrDSMRDYSTENoyLH9aicLGbnOxUjz8V5GPn3O28v/LRdwzAbMIFVVjUSLy1FNEiD9hdI6+LqVrt4oY58cQTzWWXXdb81sVUTbO4YZYsWdLE54YVF110UXCOXp73G9/4xnqf0khhl1+6duviLcB8UVTzgaUBWIRIgOVBy+OVWEpUYxdG7Z2vChubZ1ccmoaxjx9IxRdDZwfcnAQ7A4g7LFqsuIcuak4XTcXIi9dFToCcYc4dACBDEHdYtOhC52xPgWgOX2vXAXKHaRkAgAzBcwcAyBDEHQAgQxB3AIAMQdwBADIEcQcAyBDEHQAgQxB3AIAMQdwBADIEcQcAyBDEHQAgQxB3AIAMQdwBADJk96eeftYAAEBe4LkDAGQI4g4AkCGIOwBAhiDuAAAZgrgDAGQI4g4AkCGIOwBAhiDuAAAZgrgDAGQI4g4AkCGIOwBAhiDuAAAZgrgDAGQI4g4AkCGIOwBAhiDuAAAZgrgDAGQI4g4AkCGIOwBAhiDuAAAZgrgDAGQI4g4AkCGIOwBAhiDuAAAZgrgDAGQI4g4AkCGIOwBAhiDuAAAZgrgDAGQI4g4AkCGIOwBAhuxuADJg69YtZsOGjWbjxg1mw333Vb+31t/F5s2bW2FXrFhhDjjgALN8+QqzavUqs3LlgWbVqtVmdfVd2wByoNi2/enSAOyErFu3ztx225+ajZWor1t3j5kNVq9ebQ4/4ghzwgnvMEdUnwA7K4g77FQ89NBmc8P115urrrrSbNmyxcwlK1eurIX+wgt/p/L0VxqAnQnEHXYK5KV/7NLfnTUPfVxOOOHt5v3nfABvHnYaEHdY1Cy0qPscccSR5urPfhZPHhY9iDssSnSBVKJ+5ZVXmsXIKaeeynQNLGoQd1h03HbbreY3z37f2HPqB2iO/PAj6ouimi+X8C5fvrz+7qLVM1pNo/n7DRs21H8bN9xX/X7IjIPi/Ugl8KeccqoBWGwg7rBomI63PlrZ8vb6zxfxcZHoa/rnhhuuN1+rpoOGorn4Cy+8kGWUsKhA3GFRIC/6+ON+ubMmPYS88fefc455//s/UK9Znwtkh53rH+LRa2D5yu1/xjQNLBoQd1hwdLPRu3/tXb3CPh+i7qOpoRtu+ANzVXU20SfyEvg//OIf1dNCAAsN4g4LioRdHnvf/LpE/SMf+Z15E3Uf68lryiaFBqCv3P7nCDwsOIg7LBhDhF2PCbj6s5+rlyAuBiTyxx/3S0kvHoGHxQAPDoMFYYiwy1v/y69/c9EIu9DUy9e/8c3athhaiaMBQKtwABYKPHeYd4ZcPP29j3/CnHPOB8xM0OqbzZsfqgcSm5ZdIjkbd5peeul/qqZqLo3u5yIrLCSIO8wrEtyff+tbksL+mas/a0499T1muti7WiXqqTOD2XikwA3X/4E5++z3RfdL4P/y699gmSTMO4g7zCu/fcGHk+vYNQ0z3blqnRGc/b73jf2ogpk+UkDTLz//1jdH92sA+Xh1JgIwnzDnDvOGVpqkhF0e+3SFXR60zgim8wwaHfPWt7zZXHXlfzXTQTZfXdkeQ/HqrluA+QTPHeaFvnl23cavZ7VMh49Vc9+XJua+x0E2fGSadlx55X+pzkwuCO7TCpr7v/Ndpmdg3titasxrDcAcc8EFv1XPhYfQypOPfvT/MdNBHvF5555rZgvZKE/8ta99nRmXn/u5N9XXFP76r/+6s++5554zz1Z/b3vb2wzAfIDnDnOOvPZDXv+zwX1ax6559uncnDRk1Y085sOrOfWVeq1elYbmx79WTcNouWLqmOl62RJ3TfHE1sFr/TvPhIf5AHGHOUdrvmNe+7fv/+60H/h19tnvrd/KFKLvUQWaQtEyxpjI65G+V1/9OTMdNIevQSeELt5qeSTAXIO4w5ySEjo9Kld3n06HvrMBech9g0bf3aY/fPhH054jv+CCD9fPowmB9w7zAatlYE6JrUCRAE/3wqW49db46pMhwi4U5otf+uPo/pm8KEQXZnX2EEJr8AHmGsQd5gx517fddltwn9Z+z+T561+OLC3U2cA48eriaexRAuM8091HHn8s3tFjhPsfbQwwExB3mDMujXio8tpPPXVmby+Kr7wZ/5EFulM1xIYN95mZoMcnxLz366+/3gDMJYg7zBkxz1cXFWey3ju2OkZCOp2boEb2dEVYF1uHvDwkRsp7n+4NUwBDQdxhTtDUQ+qGpblg+Qye9b58jp4TH3v4mQaOdTOY9gHoA3GHOSF2u3295nyG7zrdmZD3HlsZc9ttf2oA5grEHeaE2JTMKaecYmbKihXheeyHqjMF3UQ0LjrmochZRiytcfiVyJz+xg0bDcBcgbjDrCOxjL2oYjZevCFv+ICI9z+dC5WxFT268Dsbz4KJXbBdV98pO/5gBDAExB1mnZiwSyxna0rmiMPDUx2fuerKsQRTYWPrzmfrDVD1C0Ii+d6A9w5zBOIOs05M3FevPtTMFqdEllLqIq4eUjaU367Cxi78njKDF4b4xAajmS63BIiBuMOsE7tBZ9UsvjBaXnXsQqWeN/PuX3tX8kYheezvfve7otM4OsuYzUcExPK+kfeswhyxuwGYZTZGPffZE3ehJZXrIs+t0WodvWbv8EqgTznlPbVY17ZV2zTX/Yc33JB8Bd9sL9eMTUelnk4JMBMQd5h1YoI12y+Klveum4RiD+jSdIv+bhjzIqviPHUWp2SEHVx8NmzEc4e5gWkZmHVSd5DONnpA12yeEaxatcp8/OO/b2Yb3sAE8w2P/IVZZ9nSvYPbq7Zm5gLNn+uxwhtmOH+tKZwvfvGPpvXikCHMd7nArg2eO+z0yCvW25w+cuGFZrpoKub22/98zoQdYL5B3CEbLrzwP9RvdtJjf4cib10Dw1xMxQAsJEzLwKyzGKYfNO+vVTG6+7R+vMDk25Y0779q1ep6nl6DwHx66kzLwHyCuMOsc8ghPxt8VstM3pe6s6PB5g2HdF8LqMHmhw8/YgBmG6ZlYN7Yldd0xx6JcMAuOtjB3IO4w6yzetWq4PZd+dVysZdws0QS5grEHWadmGDN5K1GOzvx5+2sMgBzAeIOsw7PUemyMfKAsNm+axfAgrjDrBO7Y3Td13bd18pt3Bh+tO9sPikTwAVxh1knJu4PTT7rZVdD1xpi+WZaBuYKxB1mnfR7Q281uxqxF2Fr+ooLqjBX8FRImBMkXCFR+/Jtt5lzzvmAmUtGr/nbWD/ed8N999UrVeQ9a025xLS+kamyL/VM+Nnkhuv/ILh9PtKGXRduYoI5QXeHHh951voPH/7RnHisGkwkpF/+8m3JZ7W76A7VXznhhPqZ73MhthpUDnn9zwb3feX2P0fgYc5gWgbmBHnFsUf8Xhl5/vp0kahrIDn+uF8yN9xw/WBhFwqr573rWMUx22vxL428n3W23/QE4IO4w5yhJy2GuOrK/zrWS6xjKI7fvuDDtTDrTGGmKA552eO8gzWF7PtaZL59tl6+DRADcYc5Q1MdIfQYgpl67/Kw5WnP9lmA0OCj58DM1IvXGUFslcxsv8YPwAdxhzlDDwmLTT3MxHu3wr5hDm+KkijPZJpGx111VXjgOeGEt++yD1CD+YMLqjCnpC6svv+cD5iPf/wTZhyssPetl7crYqyQ2jtBRytpNtTz9F8esCxTx37l9j8b+07Ss89+b/TdrVxIhfkAcYc5ZzQnHp57HkfoJMw//9a3JIVdoq65/ve//wO9z2qvX559wx/UIhx7sJeQwP/l178xeIVPaoXM4dVc++3VYAEw1yDuMOekvPdxhDPlDQt56Z+5+rNjv4BDIv+xS3+3XmmTivuLX/oj00ffALQrP9Me5hfm3GHO0cqQ2MoZieCll17aF0UtvClh1wVKie903qwksb36s59LvoNVd9YOubtWg0RM2PXmJ4Qd5gs8d5gX5NFqqiL2wg7Nvb8/ceeqVq+kVp5cOEurTy699D9VAh0ebDTlc/93vhs9y/hYdWxsoNK6dk1BIe4wX+C5w7wgQZR3HENry2O36Us050PYhV6yHTvLSC3hlO2pMxDZibDDfILnDvPKBRd82FyVWJv+l1//ZuepkjGvXd7w/d/5npkLfv6tbw4utQx573qGzVvf8uZoXBosPv7x3zcA8wmeO8wr8rIlyjEkqq4Hr7n2mNf+xS/9sZkrfi+yRFPe+2233db8lq0pYVdeP/IRbliC+Qdxh3lFHq/mnlMCf/bZ76svTIrYVI1Wr8SeGz8bpJ4YaS/s6kYs2RrDzrNP5yIvwExhWgYWBE15aP177AKrOOXUUxf0RqDUEs5zqqmW1KMPNH0jG+dyAAJIgbjDgjFE4EPM5Vy7zz/9mf3Htg9hh8UA0zKwYEj8JIKxRwPHmM8nKmr6ZxwQdlgsIO6woFiBT83B+6yaR+E84sjhA4mdY0fYYTHAtAwsCkZPYfyl5DNeLFovfng13z5aeTM3a8d105WWbOrJjkNe/sFNSrDYQNxh0SBB1ZuLrhrjGe2aotGFV11cnanQa4DRK/puu/XWsV7+oXXsWu7IqhhYTCDusOi4/vo/qJdCDvHiXeQ1r1q1up620dSIxF5z4L43LRHXRVI9vVFp6CXaX/vaut7HCPsobj2o7O1vf4cBWGwg7rAoGfKkxoUEbx0WO4g7LGok8nrUb+xdpPONnevnHaiw2EHcYadAc+C6aWjI25PmAkQddjYQd9ipsNM1Evtx5+THxb7VSS/6ZhUM7Gwg7rDTIoGvV7ZUF0M3ztLLsuWhr64uyp7w9rfjpcNODeIOWaC16Hr0rh5p8FDl3W+ovtcrYiZXxrgcMOmFa2WNvPPVk6tr9JsLpJALiDsAQIbw+AEAgAxB3AEAMgRxBwDIEMQdACBDEHcAgAxB3AEAMgRxBwDIEMQdACBDEHcAgAxB3AEAMgRxBwDIEMQdACBDEHcAgAxB3AEAMgRxBwDIEMQdACBDEHcAgAxB3AEAMgRxBwDIEMQdACBDEHcAgAxB3AEAMgRxBwDIEMR9mpz9vveaZUv3rv8uvfR3xzr2ggs+3ByreGCKrVu3mI9V5Xn8cb9s3nDIzzblpL+ff+ubzW233WYWG5s3b25sPK6ye2hY6h7mEsR9Frjqyv86OOxDD202X16EArUYUDm+4ZDX14PlunX31ELosmHDhlr8AaCf3Q3MmK1bt5obbrjenHLKqb1h161b1xEtMJW3/p8qUb+0+X3AypVm1arVZvny5fVvlbGE3f4GgDSI+yyhqYQh4v6xMadwdgV0NmOF/YADDjBXf/Zz5ogjjjQAMH0Q91lC3ri88iOOOCIaRt79UK9dcd1225+ar1Wf8loPOGBl5c0eUIteaBCRV3vllVfW30844e1mxYrl5obrr6/iuLU+Xh7vqtWrzYUX/k4dl4+mPBTWHr+6CusjEb6+itMP46Y9BNlyzjkfaH671yw+/onfn7awq3xvu/VWs3Hjhvq38rlq9ao6rb48q95C6V511ZVmy5bRVJDKfeXKlWYmpKaVZItsSqWlvN16662dMG7dqF5UP6G0bT1pED311Pc0+4a0TfeYK6spNLUroTYVwo0zFEZt/Ibr/6DOk22jy5evMKecempdH6E6g+EU27Y/XRoYG10MU+N1kTh85fY/ix6jC4R+B1IHlafq8ptnv7fpqCHUeb/4pT9qNX7Fq/itHeowVpR81NE+4nU25cVe4JM9oQHEtd8N46Y9BE253H//d5vf//Rn9p8cwA4w93/ne83AtnVL1eGrQWr16kOTZ0USNl2ATYnTxz/+CfN+Z0Dx86zyuDBRJta2EG7+NYB+/evfNDF0LeH4yYuuft27beort/95x1Hw8+mGScUbsvPwqo3c7rTV44/7pbrcU7jHHFLF89CkHZWGdMKq/b31LW9ufvthZKtsjqFBS30JgZ8+eO6zgDr0xsrjUmONee+uF6P9sY702xd8uCXsEkIJi8Rv46RXJ+/u7Pe9LzqQ2E4jT+jwSW9044b7KnF4qP4uT1n7fLFLoTnxubhWsKGyy3qAK1asiHZ6TWeFOntI2FUfyt/GDRuauC+44Lfqz6F5VrzuFJqENIaESOkpLQne6NrAChPO7wYzXVRvO8P1GpXdu3/tXdH9auNuHduzSreNK5+q1287TgCMB6tlZoFz3n9O8z02p+5uP8U5Hfb5lep02nqpEjN5uLdXwiJvUA1dQi/sQBJDp+UK/6XKw9efvM6PXHhhs19CMXTliaYL3IudKdRJZXfo74DANIMVX7FhcoAU9aC2sn1mIk9QwuHiCp7KRnlWWanMfvjwI9POsxuvvPq+6ZipKaqtySmqz1w1fPrKRYPrDYmzudkkVn86+xlC3yCkqQLbjv/wi1+q6ynUxu1UJ0wPxH0WOGDlgZWYnlB/D4mu67VLuG3jDaEpFZ1S/+MPf9SZA5bAaE7aoqmLoD1V/L9XdUR5wi4XXvgfmrMKidD1A8RCYvrbk17vEOSxyu7QXwhX3K3tf1l1cg1q+lNnt/PHCqszlqljt7QET961L8LTybMGGRuv7InNKbv8ujNtpIHcXx4rW9/97ndNy/N2LzjPB7H6C12H8RkyCH38479fOxtq429/+zta+1R/rvPjD+YwHKZlZgmd7tsbbNS5j3CmTFyvXV7gkAYrYZbIaO5SUxcPbX6oufBk0Zx0CM1RxzxNdRw7+GwcMEUgMXU92Nle7eOLuy/Q+n71Zz9rDnn9PXVYDZ522sOd4tAZg6ad7NSTi/bZPOsC9Tk9UzO//u6pKYWPDBB2oQuNf1gN4jYdTQPpYqymkWTvdKdjdKydS9dAo/Lo82bVTkI31s31PQL+qidTFM28fAjrfMiuLZNtWfX3h861LObcpw/iPkuMvJvRXLo79+7ejGNXN/SJu7y+j33s0ugF0T5WJTysVatWNd83B4TQRV6YnSYZMjUxU3R9IJSGXUFx1eR0hwZRlaUrmBqodFGwj82Rstd0iRUVt75OTUyhdeK4+nP1wLDBmTfuXECv8jHO9IoGCXdw/Vot7GlxV/ozmdufDu4gpDl0DdLHH//Lg4694Ld+q7M4QWiKMrX6DNIwLTOLuF6e9XB9r70PCao6tCvsmntWQ39/Nbc/ZN5zNm700eBkvbDDqw524UAPdiasTExXuRcordj5Xv9MUHn7YnzAmIOZBiZNKX3m6s/WZWbrQfFo2kbz1h/5yPBy1CBvB4L3n3POWAPNfOMOQpoSnA1H4NsbuSN5JuC5zyK+967TcnsKPWSNtHtaO1rNck4l6B9ozZ2nlo+58cQYIojqpHZQqm8quvpzZq5wB6Jxxdotz9jyv6FoXv+Et4/m9u3yR4nrqaeeOvbUgEQ4JsRD59w3b97UrPBRHYwzKKgNhi7ab60GsAvGuH4yFHcQGvdsR2gwkONTrzaq2u4Fv/XhenpGZaVrJOeMsaoLpkDcZxk10nWTp6dqpO72Pty5VIUPNerQ6avPxg0bo/vc0/XVq1cFw1zl3KAy19MxesSAJTVwfc3ZZy/suRem7c1IIVJLExs7qjin1u1vqga3S+sy0JSB7imYb37z7KkLx5ri8C+Op9BgFLovQGI5F+LuDkK/N3BFjYvyZvNn69Yupdw4z9NLOcG0zCxjvXeX2FxyipAXO7qjr1/cJZIhsZNX5C7FO+GEd5hU2vMxFaBycVezhC7YarBxBz47IKisrcDHjlWef/6tbzFnn/3ewSsvtMLGiozKMTVwzDXzca1jthgyCGmg1VNRNT9/fOQJmu5FWN3EBtMDz30OcL13MXS+2vVEJVQr6ps7Dq07hARmnAtx8nzOqcT5VyoBV7xf/vJttUjaaQF5qqmLVeNOBcwEt7xGT4Rc10yRrLunPVBpwHHFTktDrZdXr6+uBNwunZTXZx8fUK+ZruKK3WXqIw/Uio+mae7/znd7vf/ZRvmYj2sds8E4g5DasXUgNPDqIrMGbA2+ckzcds4zhqYP4j4HWI9S84aHBzz51HESL7sqJHQKPVoxcc+gmzt0M03ohhrZ9sUvpqcaxp0KmAnKt242+tjk9YbRaqPuFI1W+miNtIsE0D1WwhAaBJXn1F2mIZtsXdTTM1VdzOW1B5/pTnEsBONccNcAqUUBZ09OO2mZ74bfui8YVuUfekYODINpmTnCzrGfcsop4xxWi5catY8uPKqzD+lE7vyxjzpi6GYfl4WYCtBUiFaZhG7wUt4l4DFxTh0rTqlXqvz52HkaPWRtFKcGjPm8W3K2VpzMNdO54K6LvbqOEVuya+vbH8hhPHhw2CJF0wj2piWdsvbdHRh6KJSmIxSHziDq58wcfsS8eeMzQV67vRlJ4qH8D7VbF4x1em+fMriz5HlXRe1W9WXre0hbh2Eg7pmQeuIfAOx6MC0DAJAhiDsAQIYg7gAAGYK4AwBkCBdUAQAyBM8dACBDEHcAgAxB3AEAMgRxBwDIEMQdACBDEHcAgAxB3AEAMgRxBwDIEMQdACBDEHcAgAxB3AEAMgRxBwDIEMQdACBDEHcAgAxB3AEAMgRxBwDIEMQdsmHHjh3m0UcfMY8//lhrm35re67YfAO4IO67GLff/mWzbt3dZlyme1wMxXX7V75sZov1937L3HD9F8xX/+dfmPvv/3a97aHNm82f/PEfmVtuvsn81Te/GTzOFX9/YFisbN++zVx7zX8zjzwyEnTZPJtlCXmwu4Fdite8+rVmzz33NDmxfft2c28l7j/3c282h7zhDc32v/qrb5oDDjjAvOlNbzZ77rVX5xgNAj/4/vcrgX+utW/p0mXmsMPeaF79mteYxciee+5l1lT2LVu61ADEQNx3QuRtynvT57777pcUa4WTkNlwKcGyYSVuSxPCYb1dxad4YyiMwvbF14e1K5ae9ovXvPa1ne2vfs2RQWEfebplJZKHVQPASrNs2TKz47nnzGOPP14J/t/XZxbyjI848sikTTPNW4xUnrVNg89sxztOGFj8IO4LgLzMRyvhWLlyZfX93tpzfNX++5sjjjiqFsO/+qtv1PtDHuR3Km/THmN5/SFvqL1Ti6ZQDjjgQPPQQ5vqeIQ8PcWlfRIjpSU0bSGB+8EPvt+EFa9+zWtHHq8zcMg2He+G23e//cwv/MLbWgKn6Y1199zTiK6NT+mnhFB5k7f9q7/6LrO0ElsJjETWTU9lctzxv1LH8/3K6/6aM1WkaRmfP7v9y81xv/pv3jXKQyXse+65hznuuF9pCb++71/Vg/4OqcpUeb333qUtIQ3ZpLypPlRWtlw1baJyuf87327q8pBDDqnDagrp+5NnDH45x/L8C7/wi3VZj8Jsq+vtlyv7ZesQ+spyaBhbt8rL/d+532zftq2264jDR4OoPV7HvaZqt2umOQjBzEHcFwh1EnXuw484su7YX3PmoNUh1qx5Y+NBqmNJ/NVpJH6vf/0bKkE/xOxVHbf5oc3mf1XbfG9u/b1/a15dTcEcXnU6eaXqhDG+tu6eOs5fOPYX6w76/SpdCZDmr9WxLZrDVpz/+ldHcT722GPmjq/+RW33iSedXNtgvWKFW3PY8XW4zZtl4zfMusoGNz4XHae8Kd9W2K0IWxFTerLVpreymnJ5VTUQPProo3X5/evqu8v/+JM/MsdWArvvvvu28qByP+6441vCLsHUdIcVWQmWBk0NOBJ6N2+uTSpX2f1QVQ/+WVFdV1U9KU9KV78l6q961f6VXb9Yp6m62+6Uy7p77q7tU/z7VXZvq9JUXWig+dV/82vTmlIbUpaK157NuGGU9i0331iFeWcj8LJPU1o/96a31McpD7JP5ffqV7+mzq/aqpwY7Vc5wvzDBdUFRJ6dvPf9J712dXZ50fJ46m1HHlV7QBJwIYE/5ZT3mDe9+c21aEqcXlN5flaEXNSpbDixdPIzhKYlFNaKneJUx9UA5Hrftcd/5JFNnPtVAijvV2Ek4EId2g+nPCp/9UXLR8KrOiQsEr3D3jgaoBRO8aqMrHdap1eJoBUX2as0li0bic7o+9SfLQf39/d/8Pd1fm15SPjkBetPnr8E2HLIpCjZvIVsUjyqp5DoSugUh8KqfJU/2a7v2qZy1kDurnRR/o6bFFflT3lW/LXt1aA7HVJl+XOTZw269qAwxzlnA27a9zvtS2c/h1f1advuqE52VPl7VV1/2qZPlfMjj7CKZ6HAc18g6rlaR3CXTgqUtrfCVdtbF/yKop5CkVelzvh4NUe847kddedyGWeu9FWBU3vbwR955NFKhEY2SZw6+Vi2rLb50Ud/VA9KD23eNDrL8JfmFaOPR6rtNj3Zr8FAAqs8HnHE8U3wzdWUktLzByUJ0QGVqMgTns688+NVuUl0LErfequyR97symq/bFRayttoBc1rem0KlU37d3dKaj9nqsXW/eNPPF7Z+Xg1//9/6vrdvm17Xb9+HQ8lZffKSbv78uYPysucvNhy8o/V2Y8GDVgYEPedCHt6Xc/RVx1RnUdz6/r9v/6qvdRvz72Gn77rdLq7zc4BO557xPt3Ratec10JgcSpE64SAH9liqYklK+RzXu14gmJobt/Oug4N7+yVfPeo8Fs/2oa4t7WAKRytDZPN81xUD3KS67rt5qWkfevgVqDznQZ5XnP3jAx6sG7GuRh5wJx34nQ/Ls66YknntQSwvu9KZnZwHZ290zCFfpW2OrMYc99R/aMVuS8tnWBN4bi1mm/0tK8rrxoe5ziCQ0Q1rbprlBRvO4As+9++9ZnAfJg7SokE8mb0kzZNNMlpjrbUV2GLpT6g+I41NcLtm1Phknlza6Mgp0L5tx3ItRBXzU5F+vynfvvNzPhB4G53Icm55n3r+ZR3W2+hyevW53fXrSUffbYUDiL6z3bVSa6bmBP/+W52iV5fjwKY1eOjIu8YNeON/3cm2vh1I1OOitSPjSVIKFVPhTWTuPYY32b6qWhEWEch23bRssPfWEfrcWf/lmDyjJkt37baZO+vLkXpWHnAHHfibBzzVacJEB2aeNMUDzrm7nv0a3surCoKQF3Kkb7tJrDCkCd/ldG6evioDhszRtrUdZKG7vO3YbTNovvCWpQ0IqdddX0g45RfHYFh52/16fi0PZDXn+ImQ528GnOTJYtq1ehaKWNLlYfd/wJTbpf/epf1Cs/rNjKJuVV+2wd2LtDY2c146CbkmSX6sLOseu7zmhC1zti6LrCvZNx+HaPVmntaMry3nv/tp4a88OIOsxXVWfltNfVw8LBtMxOhARNFyzlZYp6CuTVr60vZN5yy01mukjEtRJjdHFxRL2CxptaUTgJw5/88ZeabRKdI46YutHHrnvXWn1rZyhcCK2w0Np8Oz2jlRtf/er/bN1ar3i05ju1+ieFVq/oTEVxapWHHWSWOfFpaeC2SvC01LS1Dr76LZs0oPp5m42bfTTwaDC5d1LQbdzKr9bLD0U3YmlQULuQzdbuvrJUmHWTyyMtyld9H8M0yxsWjmLb9qdLAzsVWikj5On5UzTjoiWAWp8tz0zxSry1vjoVrzy9bfXdmUtbohiy086PL5uBOAxNbyjybEceaVHnW/Pu44qzX1b+zWEzwd4pO1v5dRlSlrNd3rAw4LnvhOy339zcEj403nr544BOP1t2Dk1vKPtOrs+Xd2wfhmbvYO3DTpf4eauvh4wxdZLC3ik7Fwwpy9kub1gYEHfYJbE3H+lPN9oMXQ0yWoq6o75JS57t6AFk99cXZV/z6sX5oDHYNUHcYZdnHC9Zc9S62OzPXetMAG8XFhPMuQNMA+alYbGDuAMAZAjr3AEAMgRxBwDIEMQdACBDEHcAgAxB3AEAMgRxBwDIEMQdACBDEHcAgAxB3AEAMgRxBwDIEMQdACBDEHcAgAxB3AEAMgRxBwDIEMQdACBDEHcAgAxB3AEAMgRxBwDIEMQdACBDEHcAgAxB3AEAMgRxBwDIEMQdACBDEHcAgAxB3AEAMgRxBwDIkGJiYqI0AACQFXjuAAAZgrgDAGQI4g4AkCGIOwBAhiDuAAAZgrgDAGQI4g4AkCGIOwBAhiDuAAAZgrgDAGQI4g4AkCGIOwBAhiDuAAAZgrgDAGQI4g4AkCGIOwBAhiDuAAAZgrgDAGQI4g4AkCGIOwBAhuxuFohn//hPTbn9qda2Jfu/0uxx2BvMkle9wkyXpz/9381exx1rdnvNQeaZa75k9jjiTWb36jsAwK5EMTExUZoFYMuv/t9mt1cfZJYs3afZ9sIPHqwF/2X/5XenLfAaNJ79k1vruF/8/oNmxf/4fw0AwK7Ggor70gs/aHY/bFVr+5P/9ndqT3vvD/6GmS4vPvIT88L6jWbPw99simX7GACAXY0Fm5aJoWmZF+79dv1dXvzTV/w3s/e5v2GKpV2RrqddqvC7V3/PV8e8+P0HzEv+zTvMbvu/ovr7hTrMs398azXd8wqzZzU989TvXhFNd6/jf6GeylF6+/zOua19O9b9lZl45Md13AAAOwOL7oLq85WQFpNTMuW2p8xzt99RfwbD3rvRvPjoj+vvE9WnjnWRKD/96f9Wi76QyNs/7SudbaYaPGx6LhOP/qSOw48bAGAxs6CeuzzvJa+aElMJaVkp7kvPereZKVaU5dVb3Hgl4i85/tjWtNBENZ3js+0jl87oAi8AwEKwoOIuD732mieRJ/3ivXfU0zK77X9ss33Hum82c+d7VGI8RGyfueaL9aqZkGAP5el68KmmdI58k9nxlTsMAMDOwoKKu+85i+erue/tlbcsQW22VWKvVTUT1Rz8M//9S/X8+EvP+rVovJpnf/5b365XyqTm2VPI89/xla+aZf/ld+uLswAAOxOL8oKqvHR563usGQn/Ph/8jcbDl9Bv+7e/U3vlISTK8tpfdu3lZrroQq5W7WgaRxdnX1hvAAB2KhbdBVWJs6ZSdotMvewxOYc+MXkh1Uei/JLKq99t/+nPk+tagFbX7HX8sQYAYGdkQT33FyshX+LMiUvYn6ougmqe25+uEfKon9HSxmb/l1r75dXvWXn0L53hksUd93zTLJ+B5w8AsNAsqLg/9bufbv3WWnatNV966YWt7brhyaLVL0s/dmEwPon+bKy00Tw7Nz8BwM7Mgt2hCgAAcwdPhQQAyBDEHQAgQxB3AIAMQdwBADIEcQcAyBDEHQAgQxB3AIAMQdwBADIEcQcAyBDEHQAgQxB3AIAMQdwBADIEcQcAyBDEHQAgQxB3AIAMQdwBADIEcQcAyBDEHQAgQxB3AIAMQdwBADIEcQcAyJDdn3r6WQMAAHmB5w4AkCGIOwBAhiDuAAAZgrgDAGQI4g4AkCGIOwBAhiDuAAAZgrgDAGQI4g4AkCGIOwBAhiDuAAAZgrgDAGQI4g4AkCGIOwBAhiDuAAAZgrgDAGQI4g4AkCGIOwBAhiDuAAAZgrgDAGQI4g4AkCGIOwBAhiDuAAAZgrgDAGQI4g4AkCGIOwBAhiDuAAAZgrgDAGQI4g4AkCGIOwBAhiDuAAAZgrgDAGQI4g4AkCGIOwBAhiDuAAAZgrgDAGQI4g4AkCGIOwBAhiDuAAAZgrgDAGQI4g4AkCGIOwBAhiDuAAAZgrgDAGQI4g4AkCGIOwBAhiDuAAAZgrgDAGQI4g4AkCGIOwBAhiDuAAAZgrgDAGQI4g4AkCGIOwBAhiDuAAAZgrgDAGQI4g4AkCGIOwBAhiDuAAAZgrgDAGQI4g4AkCGIOwBAhiDuAAAZgrgDAGQI4g4AkCGIOwBAhiDuAAAZgrgDAGQI4g4AkCGIOwBAhiDuAAAZgrgDAGQI4g4AkCGIOwBAhiDuAAAZgrgDAGQI4g4AkCGIOwBAhiDuAAAZgrgDAGQI4g4AkCGIOwBAhiDuAAAZgrgDAGQI4g4AkCGIOwBAhiDuAAAZgrgDAGQI4g4AkCGIOwBAhiDuAAAZgrgDAGQI4g4AkCGIOwBAhiDuAAAZgrgDAGQI4g4AkCGIOwBAhiDuAAAZgrgDAGQI4g4AkCGIOwBAhiDuAAAZgrgDAGQI4g4AkCGIOwBAhiDuAAAZgrgDAGQI4g4AkCGIOwBAhiDuAAAZgrgDAGQI4g4AkCGIOwBAhiDuAAAZgrgDAGQI4g4AkCGIOwBAhiDuAAAZgrgDAGQI4g4AkCGIOwBAhiDuAAAZgrgDAGQI4g4AkCGIOwBAhiDuAAAZgrgDAGQI4g4AkCGIOwBAhiDuAAAZgrgDAGQI4g4AkCGIOwBAhiDuAAAZgrgDAGQI4g4AkCGIOwBAhiDuAAAZgrgDAGQI4g4AkCGIOwBAhiDuAAAZgrgDAGQI4g4AkCGIOwBAhiDuAAAZgrgDAGQI4g4AkCGIOwBAhiDuAAAZgrgDAGQI4g4AkCGIOwBAhiDuAAAZgrgDAGQI4g4AkCGIOwBAhiDuAAAZgrgDAGQI4g4AkCGIOwBAhiDuAAAZgrgDAGQI4g4AkCGIOwBAhiDuAAAZgrgDAGQI4g4AkCGIOwBAhiDuAAAZgrgDAGQI4g4AkCGIOwBAhiDuAAAZgrgDAGQI4g4AkCGIOwBAhiDuAAAZgrgDAGQI4g4AkCGIOwBAhiDuAAAZgrgDAGQI4g4AkCGIOwBAhiDuAAAZgrgDAGQI4g4AkCGIOwBAhiDuAAAZgrgDAGQI4g4AkCGIOwBAhiDuAAAZgrgDAGQI4g4AkCGIOwBAhiDuAAAZgrgDAGQI4g4AkCGIOwBAhiDuAAAZgrgDAGQI4g4AkCGIOwBAhiDuAAAZgrgDAGQI4g4AkCGIOwBAhiDuAAAZgrgDAGQI4g4AkCGIOwBAhiDuAAAZgrgDAGQI4g4AkCGIOwBAhiDuAAAZgrgDAGQI4g4AkCGIOwBAhiDuAAAZgrgDAGQI4g4AkCGIOwBAhiDuAAAZgrgDAGQI4g4AkCGIOwBAhiDuAAAZgrgDAGQI4g4AkCGIOwBAhiDuAAAZgrgDAGQI4g4AkCGIOwBAhiDuAAAZgrgDAGQI4g4AkCGIOwBAhiDuAAAZgrgDAGQI4g4AkCGIOwBAhiDuAAAZgrgDAGQI4g4AkCGIOwBAhiDuAAAZgrgDAGQI4g4AkCGIOwBAhiDuAAAZgrgDAGQI4g4AkCGIOwBAhiDuAAAZgrgDAGQI4g4AkCGIOwBAhiDuAAAZgrgDAGQI4g4AkCGIOwBAhiDuAAAZgrgDAGQI4g4AkCGIOwBAhiDuAAAZgrgDAGQI4g4AkCGIOwBAhiDuAAAZgrgDAGQI4g4AkCGIOwBAhiDuAAAZgrgDAGQI4g4AkCGIOwBAhiDuAAAZgrgDAGQI4g4AkCGIOwBAhiDuAAAZgrgDAGQI4g4AkCGIOwBAhiDuAAAZgrgDAGQI4g4AkCGIOwBAhiDuAAAZgrgDAGQI4g4AkCGIOwBAhiDuAAAZgrgDAGQI4g4AkCGIOwBAhiDuAAAZgrgDAGQI4g4AkCGIOwBAhiDuAAAZgrgDAGQI4g4AkCGIOwBAhiDuAAAZgrgDAGQI4g4AkCGIOwBAhiDuAAAZgrgDAGQI4g4AkCGIOwBAhiDuAAAZgrgDAGQI4g4AkCGIOwBAhiDuAAAZgrgDAGQI4g4AkCGIOwBAhiDuAAAZgrgDAGQI4g4AkCGIOwBAhiDuAAAZgrgDAGQI4g4AkCGIOwBAhiDuAAAZgrgDAGQI4g4AkCGIOwBAhiDuAAAZgrgDAGQI4g4AkCGIOwBAhiDuAAAZgrgDAGQI4g4AkCGIOwBAhiDuAAAZgrgDAGQI4g4AkCGIOwBAhiDuAAAZgrgDAGQI4g4AkCGIOwBAhiDuAAAZgrgDAGQI4g4AkCGIOwBAhiDuAAAZgrgDAGQI4g4AkCGIOwBAhiDuAAAZgrgDAGQI4g4AkCGIOwBAhiDuAAAZUkxMTJTVR/VXFs5m73cyijHCjoOiLM30cG0K2efG7YcVobIoPGPcbfa7+9lnV9R20813MA8Dt8X2JcOa4WUfKstQWfXZ0Xx68blxDCq/QH22DC3iefPznWoP/vfQb5OIy8/vkGNd20O2GS8PqXoMtd0h+QjFQ/9fjP0/Iu6xCGIZGLfTxfaLVrxmquHbfVFbjdcxzWhDKl8zrYhY+HHLKSRi9nssTCqdcWjZbdpC0ys4xTDxCKXlhxlLGM3MOr6lr21Pt5378fcNpCZULk4mh8TTHOeknarHQX2K/j+Yxdf/J8U9ZmRsW6vQIx18SEZsZEMEwk1rXFHzC97GmQoX+p0K624LiY9rc1+eQ7bGGn+9zUzf1lTaIU+6r4PGxMC3vXNsIB99gpsS4pRtft6GlF2wvIwZe5BxRWeoINSHFD0Dj+npR16AmbQV+v/O0P8Dc+7BzPiJOWHLqd2tMH2G18cWbeGo/yLHumHdOGx6RSLNTjxF+JjYSOna5+6L2uof58VtvHjcsH7ndY/rVGzZLRPXztBxbtxuuFC91ds8QYiGmzTKTT8qiqH8l918mEA9myJiT0B4XULtuhEo77igJxXKQ6L8ov2gjMRZeJ8B20P5dTt4DNt3mj5XpMN2oP/vhP0/ckG1UyBOBIUTgV/ZTZieCg7RVJgTvz+CdeKKHNcSuMJrBG7H9exKiWLweyJ8a1sgXChPZZEO4+bBP9wV1FTndcP7HoGffhkoO78DtLwoLx5fJP3v0YZbOsLhDxSmHa453rQpA2FitMo60O5cYam3m3g5B0UgUtch08pAOBMJZwcYN51O+3fsCtkYgv7ftin6PRG+tW1B+v+A1TJ+pt0OHPPIRj+iUXZGTr/hjeK+5JJLzDvfeXJx5plnFJs2bTZp+9yRLmSbP9r7ndAXMjdcKM2UiBaBsP5334Poq+xQHoztbF569tMv12Rcpl0fIWEOCX0jukU3/U77MMOFLxaHmx+/zlK2h+IP5S20r9M+TXe7e4wbZyyeznGmnYZLrCv5bT2Uths29L2Phev/3fAp++j/U2mMPqs593JitLcMGBPDLQA/E33Hh4SgHX7Lli3m/PPPN5///OebbQceeKC544476s+uHTFbmt/GyZ8xvSsiOnZ6x8TSSR1vIukMwVZk65TetMu7k+cB+Wpz9933lDfffFNx9913m02bNtX1INasWWMOPfRQc8YZZ5ZHHXVkoO5iDbivnaT2hQYGpxg6x/QRKp+Qzf4xvo1D9sfai91nJvenyi3WfmN2JNt/Ga4nN4HF0//jYVODyfz0/6e2TZj7/na7+cZd28yGv9lufvzI8/X2fZbtZv7Za19i3nL0y8xbq79X/vSeC97/J8U91tnaGev+TnWKcTrOVBgJyjHHHGPuu+++Wsgvu+yyWuglNkcddZS58847U3EGbPMbQKyRxESqT8BdUmXnl6/byUO2xH77toXSddNO2TAKt2nTg+ass84yd911l+ljNMjeWX2ujIQYUu6xgcGNw+534wyFceOZzFCy8/alPS0biq5Yx45xtxfBznr33XcVV1xxRV0f6g8rVqyoB9jTTz+9/tM2OT4333xLed996wv9tgPwxRev9eqmTwD72tL89v+wban4TY9ts9f//+LWLebqTz5SCfyLpo+T3v1PzHve94pK9Jc4aVgbrK31bxO2Jfbbt82NsxXGOOI+lGABmHAD8LeP9qkx3nLLzbVgb9682axcubIWjTVrDivPOOP0wgq7hFyfCnfYYYfVxz344IN1+LhNKVv9jm9tNYGCLxPxD2m8IVt8UoLVCMakfX0iM6QzdO2WSGjwtCIi8TjxxBNVF9Xv5fX29evvK2+55Zai8urr+hIXX3xx/deY2rJxKL2emQl31j5hHid8tF0kytn0hB1qow0rRuHPP/88Uwl79Jijjjq6HoxtPYRo102dhjHRM4Wh7de1d2b9f0Sof3WEOGB3n00pW6ff/z+59h8LibtY/S/2qTz0ZZWHvrzx0CX49/3NU5VH/6T5i9tG4ap95hOfO8i8cv89zIL0fy2FrP+N/vP+QtvtttQxoTDlxAMPPFBW4lFWIlKODA7/VYJeViJeWq677rpmnxN3JL12msPs7stTKC4/rSHHDSnrWF5C5dvaXsbzHv678cabmnI97bTTyscff7zXzosuurg5phKQAeXUl89k2cWOTcXfk45ffqFwQ+sslfdxjhuFPffcc+tyVf9QOT/wwIP1LvWba665tqycmqbsKy+9rKYpJ+usnPjWt75V9y27vzrj9fIWy3fKztD2vvpz0+lLIxl/mbZ1/vr/7//Hh8p/ddiG8uQjv13eeP3/jpTn1N8jP3y2fM/x362Pec+vfK/6/VxPnkM2xOKPbu/k1/QXdCjjQw2c+rv22utaol5NsZRqzGqEtlGHhH3t2rXNvosuuiiRdirjMTs7eUyECeWrjHyPlUnn+In+fJQziCduj4TD1oeExO5TfVSn+E1dVOXfyfunPnVZUyfVFM3ANH27Y9/Hy8ew4/vKq2Ob/ZsYnn45MTwvfthyQuJthV1C7cTr1NkDtcCfdtrpUVvs4Kt4vMF6oE2xchlS3tMpg9Cxfn2E7InFOW7arTx2wnzh6kcnRfq75SMPP9cct23rC+UXPvNoJfj31/v//W/8Q0vEn9z6fHn2u/6+3veb1WfYtlQ5+jb55dMfjxlWEOWQSomGkWBYMahO+ctKWJpwjz/+RO2FhIT9jDPOaI6ToAxrCEMr141jYhr5Kwc0Ft/WpE1jhE2lMzGoHKyXd/rpZzTbrMD4fyMvsH28HZBVZ8PKz89nqFxj+QqVix8utX28suna10o3YteQuojbe/TRR0faeTteCXw6/xOV43S0c2YVK48+sY+FjeatTJdvGajHce0IlWe3jAbmaSKdn4larCXO+lv/v7a1wvz+f/zHZp/9e2cl9I8+vKOJWwJvPXgNBD02lXGb+vIQzocZFlEqgVYhdxKRhzjleV9cTjidQ57FoYeu6Qj7E0880XiP8kB0+tlfga4NQwohFl+sPNx43HRax4bCTaTtnUiVa6ysA2WftLe1T56hLfOpgXaiKXPrybveZKjc7DTBTTfdVIbz0ZffsmPbRLSRx/IY3/biixND28jgOLt1Ectb6Nhw3OoHto/YaZZwXEmbmu06m1Jcqs/x62ScPz//ZaSsWmVQpsoinUZfuGDdToSPjcU39d0K+O9f9FArnh9875kJ681//7tP19MwF5+/qQ77mU883Epj/V9vn7DCv60S+7hdwTzHyjpQ9t04lrTm74OT/sbZ7n52Jv8nLwDYCyEjzjrrzPpHNaVi1q692NgLJFu2PFGMVsWsb108Fbqgun79+iYOrQSYumDg29i6YuxcCXG3h64s+xdwLO52f797ISNUVKUfpmh/+heM+ohd5GvK2V5xKcK2Nukbd79dYqqLcxJ4u10XrsV5551bf1YXt+uLrLqoqvpq26Fw59W/Lr/8chMuS7ccXXuabZPGFV6e/QuhUxeKymALDbeLonBtsGVi02jCGefClenaGLrYZwJh/bTs7+hF3Ga/LXe1c5X3MNyyacqy3j45SDf1GaZzEdjMRf/v1ntp4uUS6uN+f52//v/1u5+st5z6vlcY99gffO/p+vOfvfal5p+97qWlLpy+7e2jerNLI214XXzV3/bqgus//P1z89r/lzgdycQT9K/E2gLzO0tTgPX/Wi+t5VwSbSsECqNG5y53dIVdPPjgg813CYuWhbXT9TPrFkZf5Q3ppL4odyMJx9X8Dgi8+z3ViXwx8Rupb2fj9CUaSzu9u+66u/48/fTTjJuWltKJk08+uf48//wP1eWvulmx4uUdm7WyRqgew6SErVXGZVc4/HIb7S+KzooKb+BoxCXRllu/zVT7L8r4gBQSCDfOvrbpM5UPW7b2voIBg4aX9nRprbIws93/p2x17ffrOeWUhOyYn/6/4W+fqpc8Hvzal5hX7r9na++rX7d3/akwEnOtfbcraUYrY9r9X+IuvnHn1nnt/0umAjWRm3ak49Au0Jtvvrn+lIdoPZLROvaji5iwCyvmVjxGYuQ2BF98k6N5AF9AmobmHe97J3bblJfUjiPW2EPpxhqZ3zj78hjal4q3KDdv3lR/G50RTeWtmoap60mD8jHHHFteccXl9c6qjoJiq7DWs6/i7BFyv05aXmcRttXPQxNXYHvIi3X3u2Hsd/vpt6cYvaLb89sfjGw5Lq/jHd04tjXSLlpiWMbtLuq17/pmB2sT9Mr9tmbtnb3+bzfGB0OfvjY+f/1/++Ra9lf9dCPsTdiDX7dX442ffsL3iv/r6O/USyBf+dN7mJNO2c/4/f/g172k/jXy6uev/y8JRO5kxveSfGIGjrAe3Uknndjs1R2QWqMbE3Y9ckBTMqMbmC4vR/GsN6Z3RO/rWCFajcATGPezL67QYBA7xvd+QnGEGmeog8T2pW2zHuLUFMBo10EHHVTeeOON9XfdSKPPT33qU7qvIFI2Rbl8+fJAeiEhLyPtaTqCWkbSmhJM401Fmc4gYrxOFLPLFdWQQBrjDWLePiepzvYRqgfdoCeqAbUID0JB20zItuuuu67+POmkk0zc1hCz2/+nfsfyn+rTfhrz2/+fenIk7rrzNBTXRZ88wJz07v2am5Qk9p/47EGOlz91zNI6DmNGA8b89f8l4UZbH2C6iflhY16R/T1iJACj3/IKxRlnnNESdnktZ555ZjUvv7b+/alPXWasRzN1uurGG+to9rtb4b7NbsG63pBJNBC/iDqeXzG84YY2hyo9Vjd2n0nY5IeZKg/3LMq34eijj66vj4jqwmo1nXZ+Ugy2bt1quramOmHqt42n+W7CcQzpuDasH7d7duV7cH5Ya0RTJ0UkTCvRbjmU3jHdPmRvOtJZ6/r19xZxD671WfqD2kc/+tH6mor6lm5Gaw+G7vExe5xsdPZPr/+3y8Tf33jLk/+F+mrwuHno/634W7+WLtu9PPvf72/+v7sOKf/sb99gPvG5g+ublrrpWFFv5SEU/6z3/yXdgnAD+ZWXGmXdeEJhR/s0RSMk4pp315/uPq28xtrjkPBcc801k95+IrmWnanvrm3+PreiY/uD8ZtAZzMm6cHHhCUUv5tGrHGHbPMbdBkccOygun79fYF4i7puqivuZnSPQVnomTOjh7i90xx88MFmyZIlzZ+9s3XlygMCA5ybbqqRWlv9dlNGwsfyNxWoHbcbb6httATMT8MNa7rH+nYZtx+Yru3hgeToo4/R8tK6PI899livbmKDT9uDv+SStcXatRc3g8WonvvEcS77fyqNJi7fgSpMWPgDzF3/ry6U1r80rx6I34zT/x/4u2frb3r2TDvs3Pb/3U2QTkcrTOsqdygB99hR5PZ0XtMz8giF1q5XXnrx6U9f0XqWib31/dxzz2uejVF5MPXnoYeucTLh2uY2pLLQSorRBTfffr9hhhrqkDBNHk18AHM/7fdQ3H64UBo+URGMfA/nSVMAmvrSIyBG66tbdtSZ0z9Nzaxde0lpp2hiTM3tNsd6HShWtnGxG/+4wqbf/AjEXXjlWrRtbLLghAsNDH678suvMOm+4eZnyi49R+mJJ7aYL3zh85XAH2O+9a1vdaYtu9Rx1P1JA7DQGdfoelXMXndbiNnp//HvbriWyBdTAt9scspo/vr/wa97aVlNyRQ//tEO88DfP1tfWHXyaDb+7dPlH3z2x8U/VPt04VXCfdKv/5NitGqm3R+/ftdo1c2qf7mPk5Yxc93/J+fc/cboN4LSO7AV1jmm3antPOLowupUJWhJ5AMPPFA/5VF/asQPPPBg3bjdpXmXX35F/X3qwl8Z6oxNJRftoipMcP4zNYq7eYgd43+6o3VHSwI15ApCSxMSFe2HcfM/lKk6PfHE0VysTt+7SxxHS/MkLjqrkrBr4JVXqfl41dvkOtvSPuNHU2xd+0YRmkH5Sf12yzUlTKVpC0XLG7ffve1lJO3Q9pRQtuqiaNdPYbq2tPpWa8DRozZOO+30xoOfWs7Y7V82LtXjeeedV8cpYbdTm922HrTXzFX/D9natqllS8C2mIjNT/9/2wmj6cub/vD/tPr/9Z/7ifnwex9oVtQIifwn1/7QnPPuHzgPFitKCbsGB11s1dMi57X/d28w6LuNPrUIv32DwOOPP9Hc4j51I5J/s0F4If/oVusDnWMHpx2xfzzbI8cFbnhw8zLkLxZ/aLtrk5tWylY/b6HfE/XjH1S2ulPV3X/vvesnbLnbZ5xM3ljTSkOPJVCYqTtUfdv88ip77PXz1HdjUWr7kPJPHevbNM6+UJsZx67Rnx4xYMt3dKOZH/fo97XXTt1VPHo8h2tjyq5guIS9ofTDNsXLuBVlj219ZRVNe6bHN9t1c1L7DtWy/PObH2+2ff4zj5ZPbnl+tP2Wx5q7Udeev6k+Xo8oeM/x3/PuUE3VRWybX26x8m3nbeAdqqFK8Qsy3Bk/9alPOY30gUFpjO5cPdQRn1gBuL9b3wM29RZgJD43z0Mbvn9cqKLCFRIPE6qLceJr71Nd2IH34ovXlqNtU8+bkfhP3S3ZzosrKPFny6TyMJ2/ciL9e2IadoTKqJPOGLbF0vLrrM+GidLtA1N9px3HaImqL+zjlNXQOmr9jJTNuHf5jlNGQ/LV+h6wqc+ucP+/8fqfNI8WeOTh5xqxHj1ArB1Wg4F91szXvrq1/M13fb95Lo2TzkQ4H37asXLwyyken0kXWF8h9lXC6NM+60KN9N57751IpaFG7D6SwL09PpHhst+moX/jNIiJSKX5n33l1Ju/iXAlDsrPRDd/o23us2Q0iFqPvf1gqqnjJTjuQ97CgjLExr68lImydo8NxRHybGLhU3ZEt3vxhdLo2BxJO5bW6Lcv8A8++GATt/rR1IPfLvLLpwzbPtFjR7RMJ/rLJRS++RxQ5qnyHifMTP+6/d8+FdL+jcQ6lNdy4qpPPNwJ+8jDz/aUU2/+JuLlFv8zXQMnApUZqtyyHFaRtpGucYVkQs8j0bSNwmi/vBAJh22wXWEfkvmQjeVEt4BC+Qz+jmxrpVvGCjeeVizd5GlxGS/7vvRCdo0+q3n0ziOYVRfWax/VzV0TegiVG27qAVd9aabs6AubKru+ukttd20eYqefR7/eQ2XQZ/OwPIUEXvXTfaJny7YBcafK2T8+GF/s2DKcx1RZ+sf12ZmK07fFT6ucSJW397vZ5oq2vPg/v+Xx+hkz1m559X95x5bGW+8+SbKcSKTj2hvLexkv+3DZBl7WkbqyPLoyb4J3YPpXse22qXi0TEvrcPvQ+tzq1N+55T12ZXvcVRihOKK/jRnrinX9NZFu7GJTMKwTV6qMg/uN6ayr9leJtG3XRTuttHBfaxhDF8m1zM6ufurGF7IvdlGvc2Ft0s7UxcpRRuNtwie2MqKOpkjb64a14VvxeLa4Fwdj17ti9ReKe1QW1cXVQsuF7Z3FltNOO625YSmQjknVuWmtLpqf/u/EY7pxxOoutG9h+v9f/OkTRhdT28+PCXPqe19hTv71/SZvgrLxW+an/xdSeRNdCRDqBEmjyqkEwkInIbnlllvqFTRaIjm1TnplLRgS9inhiNkVKozSpMOMwzgV4aY5G2mn4k+lOWRwCgn9VFjVzegmmvWtutFNaFpho3sP2nWTEu9x8yeCgm6m9vUJ+FBbbDmYgfXmirYZOJCF7DOR/PYxeh6T1rFrAFadfPCD504+iC+V9nTtmbv+nzjWRNqrWWz9/y9ufcJ8/a5txi6TFLpTVQ8S052qbVGfDabX/yfF3Q/s0teZ+sKMEgpX3JAROdVA0x5pwI6QiATEro8hYjDO6NwXT59QueVsIh233pXovLHt4wxc44R1w7u/O7YaYzxtjR7v29DkYfK4UFtwGVcU+sqxCWfaeTCBwaWxNSFgZkwhj9Wn/Z4Ka6H/h9Ne/P0/8g5Vv5OFOp0fdkji/jFTG4YXcKijDklvSEOLffrpD5kW6KuQOprCtLxIS7TRmzHKqa/hGNO5SWSIJzuk44XC+ts6Ha3+0Q4bKs++AcyfNkiJYSv9AR3St2UuSbWncdpWXz329U/6fzf9naP/LwkbUG8r2r9jhqb2NXH1HOePvvWniUXYjtdtKL5wdArReIJm2pXgfhYBm3y0vRhQ2iFvqNV43DyFOoINa4al1TQYd7vx7HXClY6wx+Lz8+CXdYiQAAc7y6Q9dv84Ilv4x5TdtuPbYW0vi3CYll0mXgatfcYEb1jqlLuJp+Nus2UbK3c/fTcfrXYcON7ucz9d6P859P8l3YJoDDDdTAY7vzGtu9SabZFG5cfjx+mPUG7HKkzEm4t0ulg6Ic+xQxnuAKVJd4yWJ2yGi1+qI5pEPt2wrYbaNqPTKWwDm2w7ybJqeT1FWuTs95hdRRlP3w3jd1I3X608dE1JenYpMWq10cQxvvA2dnhi4ttn23DzvWy381javicZ6kt9Ih6qk1idWRvo/4Fjzc7S/5eEDXULtDThBN2EO8LhhjftSvCPDxkc61h+0NCI6x8Tw2/0KXuKsv0GoFBj7jRSL50QRShM6XUOf5QPxVOarjcwFV3w2JbtxnS8TT+c8cI1nTDQgdzBwETChMSsCIhjKyITqR/Tjd/NS6pTGBO2rVUG3n43fExsQ+F8sU+JnLvNL4+YHcbE4/P7hvvnh6f/t9k5+7/zbBm34GNG+Z3InjLYBPzErLGmaBvQir/opu3/DmUmtj9UWVHh8uwNdSC/UN0G39dh/dHUTbdwOoXdVoebjM/9HorX/YyJhC+Wre0RUSon1d7tlLH4/Hx37DLxQSXU2WON1xd/97tfH8b/Xnq2mS5+W7Jl4Bvgip6Ny+8Toe+ttCL7g3mLxO2Hd20L7UsdY9Oh/+fW/+1SyMl0goaU4cgbz810t/fhhvPjD3Y0E7bD3x6zqwkb2z6gUZeJ9GLxh/IWsr+vzPzy6g1vwvWSKsPQ/lb/LLsd2kTimw6hDjYkvPvbdoZQPcfaVbPfGGN60vZtdL0rM6COxi1/4+er9OrGt8NMr//S/7vpxY7befp/YCnkENKJaU2u3rbkhj/qqCOLyChYxDuj35H8NFPb3AYrUuHt/lDeLOMUrpsH//hYuJBoBIXExMPE4q0fu6w7HevvWr++adNms2bNoSbdudJxtsUhtdKm1WE9IezE6dSf8cTTtynangJllSxLE+70Ns4QqXKP4ZZTaHss3nHTsXGmhGw6IhMKO444LXz///EjO+rH+NpwxeT+Vf9i7xn1f71H1b6VqZ0H//gh5TM7/X9JunO7iReRQcBGPnWc7nbUTUp6Xrv+zjjjdM9IP81QI4yNoG6arm1NXE0g53cRj1PbGjGJhDEh4TFO+t5vP+6U2BWR4/q+m6LbUXxG+ydvTmqEXS/Adl6xF7Cv7Im7qT/TFazQca1y6BEut02Evvt2+ul00jPhz9Z+J44iYrvd2bVV7z3VYOmi34E3XRm/o27e/JCel++kE+rMZir5lm2tduRvi9VZEQ4/e/3fBK9zLI7+r7tMdRPShr/ZXmz4m6fMfdXnf774hzPq/z/+0fN6LLCTTzcPC9f/dw93tNBI4BZerENOoScN2tfk2Vfrjb7fVUjwDzrooPK0006r9+uO1RNPPKmpDL0QW8/RmHxJRJOe7l5VR1J4PYf89NPPaF7s0SbYQbwKavYXZmqlQ9FfBsVUUBPqR6FR1qZrfzfbnINTgheKzxUk/7Tdj3eUT5VdJezFZZddPvnc/LLQG3/00g4xKs8D6wH55S/ft7zpppurelpZlfPp9TPeR/VYNDaMXny+XI8tKCRkqh/npdtNBj0i+ezk2QQ6fdH9GRP+IlCusX0tcQiELYt4ey/0jt+6TdtX5UnYjznm6PoRGnrDUle0y0J3Ao/a+cpi9Hay0ADlt9XQINVs90QndkyyzGep/9v+4dsSs8P+Du3302t5rMZEz05i/d+Yt53wcrO6fnHGqF9Mvm2prD4LvT7v63duLV75M3uVbz1qaWHvNFWYajAo9Cq90Qs5RmlXg0XxD3//TH2n6k1/+Jie2a4wpZ7v/qr995A3X6erl3usql+q/ULxjbuebPq/XgqicFUche5uTZeNWz79/X9JfET2Ix3CKLymZKY8wymj9BwMefR6S8zjjz9enHnmWfWe0Us5pirykkvW1uH1SAKJit4paV8MceaZZxZ684+ERO9c7XpH7TS7Db/TSLztqdGw/l2azpSB70H5HcGYbtxuFCG7/fh84WttD3hC7jGjz/PPP68W9tF0jF7Ksbnadn79vBj9nXzySfV23eJeCVNxxhmnFU888UT90g77iIgnnni8FjJ918Or9Oo9Wx86Y5Ngtcu204YSHkqrrAJh/AIrnTJyP92Csp5dyKMKHTNum+9Wotqv++wdOSNV2RSjZ/fotYV31+362muvqQeEk04aOTZ65IMe/SDhV1m6z5KpBuDikks+Ovn8n1F+RmU9ysemTQ/Wx8rpGW0f5XM0RfpQOepH9xk331U91gO+fo1epTh6vMFUn5pe/zfBMb0jtsZ0Lmj6g4B/Vmy3N8eYNKH+79s61c7k1d90w/8u3vb2l5tyYqL45NqH6z16nsw37nzS/GK1/altL5jJ7aW2P1AJ+1uPWV7qTUx6IcdH/91DdVzfqAaI7dtfrPNw/Wd/YvTWJm3XIKAzBr1IW3HV4ba9WJ1NbAnk0S8bt9z6+/+SsBB1PY12gdjvbqfpG82N+cIXvlC/cLmoZro0NVB5PHVD0sSX8UZueZDqIBIReYPygPQgsTvvvKPyJg8s7ACiBt21qeUZ28yargj4+YoJgL+tdMvLKSffYwh5Tq6tsd+pAdfmxw0bG5Cmvt97770665kU9hE667npphvr99du3fpkORqQR1FVA0F54IEHleedd14TXnWgB1jZutGZ2Y033lSqfvSi7OXLV0wKUrAjO4Oh/e2HCeXVJyQ4fhtuyqQM12Nh2h3Etyc2QAcFYjTSl6Mw1133+arNHlj9HVT/vvnmmwqV/YknvmPy1Ya31GdGavcaWOWgaNC1Yc8//0PNYHvSSScXozivqwfN008/zTz44Cazdu0ltV0jJ2hkt/qDzsAUr17TZ7FTo9puz9Bsvj7/+euqettSyOHSYF6dudVv1zrzzDNm2v8jbbIsun2vb3vppddsT9iU7v9lK/42J//6P6lF+l+94+Vmn6VL6oeESYzf9+/3N6+qtp9U7decfSXMxWj7T5ev3H/32sN/69HLy7ccvawOX4laqfn8f/i7Zzpp6P2sq//l0vLgyfe0CsWp6aLKqzc/eeSFWen/u7c3uJXpV2wr8kjFjdCDpkLIC7zuumubcKO3s48YNSgTMHqqA+npeFW4WlzkLWpKoDv6h7w/f/TzR8EQfqMOfW+lV5jO9Ewq3tBAGEvHP9amNzReU7+E/Mgjj6rF5NprryutV6ffmhbQ9IAE2uZh9P7b0XeVt/ZVg2vHo1C92fo46KADPVum6s4tGJOe3/SwjklfeRQRIXfLwq8rK/IhT8n97ZjeiXMURn1ZZ0ISzDvvvKv2grWnEuiy8swbZ2R0MXtTPThKTBWHBP2uu+6sw1988UXN1NbRRx9VC3N1fP2nOKqBuKzEOCCMnYHHsbcsrCMkz1yD9uQrMOuDPv3pT+sMor66eNBBB2uQL3S2vGbNYdPq/+nwsfZdJvq/35ZC/WB4/y/adrRS3edlU09xrKZXih8/vKOaSplo2fXK/feovPIJE8pntW/01MhqtH/0R88Zee2f+NxB5rfe+2AdopqfL1/x03sE++krKm9eX/7zxf9YXPzJlaWd0umWScDwQPvffSpyt8OFOkphAoXX6UxalaHGMZXglBGjl2DbefKirDySwk7faH7SommAbibKQnFXDb8YzW0WmnsvTPD0PSrMdUAvj600wiISGvQ6Yh5IO8SQuN0O2xIUt1zt7yKeZrtjVBe2662T0zOl5srdx/faFywLnaaPVjiNLsiOpsUa76ewg4O+Kq6R0J9pX+jslWf4QmTbRv97E9YEBDgQT99g6obxbQp5hG44U4bja6ctT7oaOI1vl86YRt635uXXVv3eTK5cGoU79NDVzeqyybOnOr2qLOsBV4KsYyfPZKv4nqjDVMfUZS43cTRgHFXHobBygoS2j95xW9T9UvV4773fqqZu7mzloDozqGy5q86gzjpGA/n4/b9bn7b8+tpnuExN15EqAv3XjNH/vTDtAVviK/HWd82z6wmP8uR/XHnT8tB1jMRb0ypi6n2pIzb87dPm1LN/qpqL31EL+7+75Ge8+Hc4c+tTtmggOXTyOsDSLz5WDx6j+f7p9//dne9lOGArImP3jd403g4jr+SMM84szjvvXOOGtchjlKdXeQSaI5x8gXaRSLcspuyqO0Exesxp3Wj9hhdM02s8ZbwRGO/4UMdvhUuk5+J7FCkhC6ZvpuwuvTw1cUSErYsEXo8Al2epMyd5jZWQ13O2I2EeRXX55ZdpmqC+OKhrJF0KTdvUc7yKS3XvXP9o6ixOUXa3xcqu1QQDnlwnzkSn97/3tgdjoteFpwZ0OSqTF6RbxmqaRmWuQVTlLaE+7LA19by79Yz1XWVsH4et/qHt8rTl+VfXpApNRwoNupP5q4V65BQVpeIYef9FWQ0CxegtW6PrXJbRdNoxtYOkadHJgbg+66qOaZYr6+x6dFZszDj9f2q/7xwWXvkWptsPYv0/NjiX0+z/JlnfmgPX/Lq9wLlPdYH11Pe+ovhk5U3rYqrmxzX3rqg0VXPJv9tcSOh//MiO2jvXMVb49ULsV+6/V5NGJfz1RdtT3/cK47dfDSSTc/mFpoMmBxIzk/4/+VRIt4TKwUKRJj6CqxHLQ5l6GYc1eEic9cWjYnT8lJfjNJqIHSkPMTagdcTGmJaHHgoTi3NomKKnTFLpxgaS0P7RZzVVVnmHW+pTdXuMvMG1a9ca3XM9Vc7xPHTrI1UmMdtDdvbtHyIIyeNrY8L1bCLtxrW/mBTne2qnRW8OsxHIi590XuozooMOOrCeL6+Es9S1ieridTE5ONYie9lll9XhRmdDI0dJolvNr1fifrnOWutpSNWJvt955531Ga4+XXHXIKEX4lxzzTV1PBJ3XeMaXTB/pwaWenpUA5Hm4BW/4tRCBV2PUdyavrNO1PRJefB+O3XLtC9OP/zs9f9PXvzDyut+Zf17n32KYunL2s9k15LHpcuWTHrUU+lqjl1z5RLt9ss5Frb/z8JNTP52m3Co0IemkeqkqY7tph1rPLF9Q4UnZe+Q36nG5p9ClqG0jGkJ0hC7o42oMAFx0yqmStzLyamYmFAbM2gqquixNZZP99iYCJvEcZ10AvVuDYjlI9XO+zpXu26nHJoph2Q0KL58cslwvUqsXhZpL3q7g+rozGhrqWsjcTtSg52b17Cd7UE6RZ79X965xF3z5uOgqZzqYuikR+6mYQK/56//797OYMqwWIfxt8Uqw+4bIkZueD8OH7svFXdMIPrsjp3NRMXShIXLr4jGpsk0/PyOfkxG4KVZmvZ2v6H6Ham1L1AX3XKV97d8+csK0xG9cTpdSNTdC5mlk81WGBOov8ljQzRl2NoY6BiJDlUU4XoaR4hs+CLYxuwUSHvbQV4hjNro1DWrqfgnRTfQ90wn3naf8Le77a197OS03C7b/9/2jhVm6dIlTrzD+v/Sylt/29s1C1GYxdT/I5574UTsd3B3f6B9tcKGRlM/rtixQ/YN7YRRT6M+uGtjU0DGjOVx+GnaePtsinodhRnmHU/mY1wbfXusDTOlM7B4+QilExOVVPzjHN/XdmLtcxy7QmGGt9Fqjr0WcWfe3qT7jG2fQ4gN+rE80/935v5f6XrftEynMJ1IgqPQNAycbiHEwrr7+46NVvrA7UWkLNz0/LlGN4wfd2zfUNzOHuuAoTJp2W1M79JDN4x/fCvcwE7hxlvHNSB8Z8AoTGs1jxmjLfSJuTHd8PZ36NhBA4AxnfXKsb6SEqdOHKa/L4XspP+Pv33x9v/nn3+hXJIO3MnIZAw2U/bPDd8pmMTg0bLK3xTJbKzjhfaP2yj0GRO/1PF2u9+oykDD9htDzB7719nufHc/6/RNO69u+/JtbcI4NjV17KXp2m/TcY93l2i1wkXKsYkzYH+oaILF7tlVdncFbeojFM5v5264UKcdlFbZFYUyEH9SEN1t3nF++FA8fXbS/+Nxh7Yvnv5flhPum5hCCQQz4mXCLRC/AmPf3fj9Rm33uYUQE4dURRdeXKGwvs1uuFhjtIJUmHDHdr+7ZRPqBC59Da+xzwvf12Ftp/TLMtR4fLt8DyxaD4G0Yw202W+m2lKsbcQGHDetlOj6AhRt04H0Y4IY6lyhcvPjC6U5ZBCo4zbtsmzy44YzXvl7cbS2JfpWymY/Hfr/Yu3/L7zwon0TU6jw+hpeaPT2O1Gsgbhhm/gC+/o+7XGh0XZSj4L58Csl1cA7lTCZqCuYri1+OqlGHatgX5hS5eim63rEbpx+A0l9j5VX6wp94Hi/kafEK9ShQ3G49vt5aImp/9lTXsE4ynD9hQaaUJuPlevQvuTa3zU2XJ5+G/S9uEA0zadrN/3fBNl5+/+LL7449JG/7n7/d7JhFN1RzA3Xis+LozDDOqlrS6cwvEbmduAhheaKWeOlOPGaoi0+oQp38+TG6W/vfA/YYUy349SfZbvcY9kKeX8xUgIVyqf1MI2JDyYmsD+aZuxYExef0oRtN84xqYHPeJ6WtcF+huI1kXy1OrExLS831r7LSHyxturnKdbXTCRePw1/X8s2+v9O1P937HjOeu6+15Hq+G4l+SNmSAT8cCGDfaxnN6Qgysjx/mdjg1PBxgtnN7UKyrHFfm/y5NobsDUkcinha/0O5NU/1hUiH7dzdBq/iROzLyjmpTdgePtCYc2AtG2DDVF6Ye22mBj4bcGUJurNubY28XqdNtRJg23fqe/SdOvATytlux+330ZNoG6ibcKk+zv9P4f+//zzz5slpneEjzW6UGOOjTB+Yce8kFRDDx0fG/VSx7oVVJqwB+F3OnfETwmqMeFCLwL7fULiGYrTROLq2FPGxaGMpBtKY0h+Q/USstXNR9ADaRINpx/NqwnXm09HJHvamfu9DAhBKs7COd4XPtfbsmFiQuaX1+iAcN2m+oMVNn+gov974czO3v81JaO7jpekEwt1XBNphD7+qBnal8qMH3dsxHMz51ZATDxCtvjhOyN3YaJeqQmk6dvvi2lMPArT7VCuJzGdxtxEErLXdEUiJvZD0vYbYd8x0bIwaTFt5SEiVG578OOPtSW3M/aVr29/x15vsHLr1+1Xrk1D03Q/Q/b78aZspf/n1v937NhRfyaWQoZGCdfSUOMMUZhwQ/ONDGXAHt+J07GhVVCmvT3UoEP4nS1WgW54K44x2/xK9I8NHRNqQL4nkeo0fvqNHSZkqAlPcUQ6WciTiKXtHxOMvzBRoeg08Ih97u+QEEX0KCms0fKK0BwXScO1o2+9c6yfBNtSkbbHj7MliCbdvv3wrd/0/0Xe/5955tn625L2AaFGFeuwvnHuyNnKjPEyljC2c2wxiiBW8W76/vfYaJeqGBsmdmz96dnmxtus9zb9jd63yTjxhso51OjKVAcPCZibpjHRizZNHF6YWNqudxGqT78TNttNuzxDQu3G5Xo3oThj20vTbct9NO2kDPcLG6b+bcygASFUtymhd/9sWNeT9Nvn0H5SWqNNO236fw79XxdTxZJw4FDHchN2DQslEgozFUn7GL8BhSoxNArHhM09vvAUzI2n9OwL5aWTd9NtrK14TbtBGtPOYxHI+9BG4BMd/a1NgWNcz8D+Do7+3jGhdhHr6CGbCu+3m3bphQ8JSuEeW4bbTl9Z+m3Grw+/LlvbewTIT67wvofq3u6Lippp2+pud3+n2lSIZpfX7t046P/h74u//z/zzNOF5tvFkimjYwf5BpZFvFJ98QiGCTTQMtJZU8e5dpVFvEObSEPxj03Z3Gw3ccpIx7P5KwPCEkpzSPm74ctAxwrFFSqjaFgvjAn8bjVQkxapULtwbfLbQqdcnE4aa0+NfcYkxS10bBFQZ3dAKiPHtQ4p2wNQU1/OMUM7cEhw/Dbb+T4wHb8u6P859f9nnnmm+b5Eb4UxrdPWVEGV3kiVotXYTTi+0IjmV3bo0/0eE5VgBzTdY/zR3bfdeo5N2EgYN23TIy7WvlYcjpGpPKU6QKjjpxqLidgcakStsCYg8oG4o2mbeNr2ON++0ou7OdaLtKdZtso51uZLN56IbSHx8YUvJBytY5w4g/uLsFi4+/243LBFIj43P/R/E7V95+n/L744UT733HPN7yXbt28v2gf7EXYb88jrLwdmwLF56nsZD2f3N9sjjTlEMNOO+JQBG01ku9uQUx5JsIID4e3vWN5L79hUhw91Lr9TuGLQ1xHddG1cLq2GXnZFxhUIE4inI9ZevKG0hg5MbqRuJ4yWn/9ZtPPjd+RgUjr1LeJi49eDcdKK2eeWsd+2/OOtnanyDnmtIRtK+n8m/X/btidb6S15+umnjJ2jCY9svhFm8vVa4dEj1BimrC6chFId0fdIYpUfGvXd413RcQfooM0Je1Li6HfmPvoa6NBwoU5hbQh5WH6ZpTpfX5qxdGPbYsc02yL1P6SsWml4v0Ph7PdYOcU6pmubXojth3EHh1Q7CNlXJgQsaseAuEMi0IrXLyPTPt4NS/8Pszj6v9a22yWQliV67u/27U/ZA7wIChMuWPdUouPBFcM6c18nsvEHK94dVYu2XSEPyJ6C+95aqBJbcbppmnh+3ON8EfG/+1GN05BCBNMIlYHp5qfVv3sacChuNw03/6FOFrTdjd907fXDhQYl45V5rE2kRDMk/J3vph+3jflphNKO1ZO7z6bti0+oHXXiSNjg21rbZfqPp/97tpjF0P811y6Bd6mXQsp7n9rR6igBA93K6zSOwkRH8ua36Xb+2HHuqN0apb1wnbi8tP14bLhOXvxK9dJI5isiIk1eehrIVOD211Rlu/G2GqZfrk4efa+mdI6NinAZrjP3083P0AZaRr5Hvb6IAHY6lWtzERYg+93vmC2vsWgLkn+8b4ePPxD6tvpp+k2hCVt2+2IZicsPE7MzJXDu8fT/xd7/pd3btm3r7K3FXd771M5QIbgG+gn6o2XIeLeT2AZTJAwOZyJeQG5aNg0/XT+MO9J3Gk2gQbvHuPkygbSinbc0LZFw0yi6SUdPSetP060b98CWnaYbhy9ijb2BtFp2BjqrH7avk/t5d49zP93tfj6a/AfaqXEGq5AA+fGaQJiOUEZsC25LtLkmfmOCg5iJ2Bmy1w54oTYZqxf32GZQM2lb3fD0/3a+jFno/r9t23YTorlDVW79c8/tMOGIjGkXnAl0kMIL5xoRiqtTh15BtDJVdOPw7Qql2UeqUuzv4HfTTdOP1z3GL5ugLaYfP76+jmA7YqgDhhq3L4Yt0Y90sNDA4R5jv5eROgwJaSdPgW2lc7ybtt/pTMQ++70zWJVTHSdmc2pwsmXoD6DNfjMVJiZYvoj4tETFtMu6Pr7eGbbBBGyLFT39f7H3/2effVZr24OhW48f2Lp1y+TFVb/y/UIrve12W6eRlaYzz2UCx7ojWohmV09ndZfDhQQj5aGEtoUq1nqLQWH17HI7u93vC6abTjRfnn22uPyOEOq0fpiOJ+V0zlCZpMoiZFuKWGey+2KDlYlsDw0UIYoeezrH+2248AbAAR3WzaP7V/YcU0wa3Cf67rZOPKabt+Ag5v25++j/i73/621LTz75pInREvepuZto4zPhDuk3fH+/+3vK+vb2RmScuIzpNiAXtwCLROPwjw/F7f4OeVyh/Z00ezpemdjn5yEkdiG7U42zF7fxmv54Wt5LRHD9Oo7Z6qYTS8uGCaZZpAWjnVC6I5WBtliYcGdsBNgTPJt+qO20hMEJa9rZsaYGxcnGHWubsbhjQhX6S5WRMfT/xdX/t27d2rmI6tJ5cNhTTz1VXWB9xh1qjNOgzfDG2+d5+A3FPy4UZyielggE7Ip1Er+zDBZE0+0gbpqd726nM+Gwvr1uGsbJr39MbJtPrAzdOkiJZJ2+Cecvaa8Z1ibsvlRYP/7SCReru1hntfnxw7XisSrbOnBqlxvMtbnw43T2NWmH6si094fah9/uQ3H11VNMuENp0P/DLHz/1wpH927UEMGnQmox/PPPv2DaDc6r7ymDy3iDDY3kboGPU7BBDyBQwJ3RsogLYChsKn23wYU6mo9tcG6D9vcXkbTcTzdN+z12TGp7U1em28Bbwunks/kLRz+4E9rf/v5Q/YXK0xfxPlEzJt2+Si+elNAU3jHuvpYNoUGn7HbYVDtr4jJxYXbFt5PnSHyxPmC/u32yqVPTzRf9f6H7//PP79ANS6aP4uGHHw4W7G677Wb222+/+tN0MhcTmcLJQazA3Q5TBuL2j0l5cLFtvq19nSlUiKGGZyvDt9vd1sRpjBnQZlvxDAmTymubTZs2mbPOOsvcddddBkCsWbPG3HjjTebAA1ea6bdR+n877vnr/3rEwGOP/Z8iNR3THBETdxEWeNHyoor2qF4mjC0SFZ+qDNto3ILvq8A+G1yiXlhITB1b3HCpdKL7vbIzZdqW2O/w8W984xvN+vXrDYDLUUcdZe68887Anj6Rof8vZP+XoD/22GNmiLDXR6XEXUwJ/O6mXXGDKiURZkhDckfFIaPbdInlKRbWkmwUdYD+hpj0OkzYu0nZOxVuyZLEu1hgl0b3tpikdxkSNfr/QvX/cTx2S2/vd0aLwKjtGtVkyLS3dcKU7QKwv23G3LD1p/fbDdP6btrbfVuKSCt2C9O3N4YbzrXf7qs/TdfTSBEsU9ONt5VGwN6ptOShAfgceOCBZrJdmuHt0tD/W7bNX/8fafB4wi4GuXY28tFFVmtssBASBdgK5hWAW7ix4/1TQnta4ybtNpyOKalRtgw3iBAhMXVHWhuvH94fwUP7jek2Frfh+4051mBGcV177bXm0EMPNQAWDfh33HGnCbS7yRBuHzIm3D7p/+3fc9f/K80tx5mKcemdlvFZvnxFuffeL3UyM9bhJnbaEQ/nnpZZ/IbmHuOHiYXzR1N/lE2N4K5NMVtix5gxj+vEEzi2rxxip8zR08G+vCTS9T2sWLqxNFLb3UIcWk/GmPj66Mg+SytvZlid+3Gmyn5Ie0v1g46N47ZfY3rLc9i0wXDo/0OP07J03Xc09dTe8Rh7Unbr1i3Fli26k9VdB1z0pB4r9FTH8gOFRve+UdDGmQpXf4/sj3nQoYpN5cMeE4pznDhitsW8iZRXEDomts/H7xgh2/w68D1C97jQ72D8Tt6KSNsr/PAmjFsnxqQHIyuCfR14Mlg7jQGDWyhM6HjXa3brt0k70v47A4L/GaiTIrDP/V3Q/+eo/0vMn3xyW6m7T6cr7GJ3Mw20eH7Hjh2FvPi99trTdBur7QwdcfG2W5pjvYprvLUEvXGauPg0ncW097vHGG9fqHN3jvMrLCJ6LRuKeJytfNU7p45NeaF+mkNFuy9cn6fZl25hTHAgSA0wnfSKcH5jTcYtp1j8obbUfA+0jVAe/LZVxOJrZ6UlYsFyi/Ry295iIlBG2l7f71A6sT5J//eO89Id3v/1THY5z9U0TE+++xl7WsZn7733LpcuXVbstptOAtxGWn91M1mE97XMabk9Jlhp0fCTxwSSaoX3O17MnlSjseFjHWKIQPppxbyBlIgO6ozGJL1XNw3XDnd7Ku1x8jpuebXscTphSDiHlIcYp15S+G2o1Z4KM3y6J9Jf/DoxifhCxw5ppyFS7cXE7HD6Hf1/Ov3/xRdfqJ/uGHsI2HSYlufu8vTTTxfVn1m2bJl56Uv3LiuR98RJhLwfGybq/eizR5w6ncQTAT+dRuwSo3BrNB+ngiLegfs9Kt5Nz+geG4rb/x5Ko8mjicfb8V4j21vpGBP1ckNptOIPHJfKq2uP6xH5HdO1zQTK2B7j2+nb5qfvxusOvm4ZpI7zSZWLm07HY0+0DVsWnXr3BpvQsUFbTHrwTLahvrKn/3vlo4d/VXPr5fbt24qZTMGEmLG4WzTxL6Hfc8+9KqFfqnXxgQ4rUpl3v/uV6v6OjbyhuvDj8+Pwvw+tnCbNxga9V7Mi0IFCQtE6PhW+DP+O2RQL56bX18FDdMSrDOcrZfvkYR2x8euzL143L510nDL120hr4CjCbSo2CBRe3gvT3u6LrJ+XcoCwlSbe7kL5norMGF/RWsc4x/pphwjV4ZC21grjxWESNux6/V9CrvdXP/XUdjN6H+/sM+NpmRgveclLq7+9am8+3ZBCFT80TGp7SzTqAPGG6Y/2IZFpHTMZX8hLCMXf16Bj4d30Uo2yz0MNCpYjJu5x49g1zv6+8Kl0XfuGxtkXvx821AZCg+h07EymbZy6NcaYnjYdii9kcyiOJpyJDySh+NxjUvTFETsmZWsqzM7V/7UI5bnnnpWn3nnf6VwwZ+LeJFCdWe21117V30uMLr5OPcqg3usUYkxwYsJmTLrS3DAdRycmeCbdgUPh/WOGduRYnDMVuJkcO26eXDHyw9n6NJH0U3H21ZffJobY3JfnVFtLib9rT6c9dxLrimosfhNJq+/30MEoFM9QWvmN5Clml79f5Nv/dWfps88+U0jMn3vuOTPbUy9JC+da3DsJVmK/xx57GE3f7L77bpq+KZcsKQqJflHEyrPPK7L7Yo3cJegxld0G5m5v0hnYkGN5CDX0mKde2+oc6+cxVCYpj2xogx23s/udp68OYp5Un50xAfTjDtpYhssudkzShsBxfeLbd3zfce6+VNwxwQrZa7elBtUYKWHrOwNyt/nf+9JbnP1/dINRUVYXReu7SHWzpz4rL31exdzn/wdbRc8neDixcwAAAABJRU5ErkJggg==;" vertex="1" parent="1">
                    <mxGeometry x="730" y="290" width="651.17" height="1410" as="geometry"/>
                </mxCell>
            </root>
        </mxGraphModel>
    </diagram>
</mxfile>